<?xml version="1.0" encoding="UTF-8"?>
<svg version="1.1" xmlns="http://www.w3.org/2000/svg" width="512" height="512">
<path d="M0 0 C1.06279175 -0.00571014 2.1255835 -0.01142029 3.22058105 -0.01730347 C4.38125092 -0.01842133 5.54192078 -0.01953918 6.73776245 -0.02069092 C8.57724457 -0.02813828 8.57724457 -0.02813828 10.45388794 -0.03573608 C13.81319827 -0.04783041 17.1724465 -0.05529814 20.53177118 -0.05974674 C22.62970275 -0.06268017 24.72762888 -0.06678531 26.82555771 -0.07125092 C33.38762102 -0.08491291 39.94967189 -0.09458799 46.51174843 -0.09845281 C54.0914545 -0.10294161 61.67098097 -0.12053278 69.25063241 -0.1494534 C75.1088737 -0.17103243 80.96706429 -0.18115492 86.82534492 -0.18249393 C90.3253361 -0.18354395 93.82515815 -0.18949424 97.32510757 -0.20731354 C101.2231357 -0.22677582 105.12093674 -0.22252044 109.01901245 -0.21600342 C110.18373077 -0.2252182 111.3484491 -0.23443298 112.54846191 -0.243927 C114.13419006 -0.23557327 114.13419006 -0.23557327 115.75195312 -0.22705078 C117.13514583 -0.22925062 117.13514583 -0.22925062 118.54628181 -0.2314949 C119.27317648 -0.10875576 120.00007114 0.01398338 120.74899292 0.14044189 C121.73899292 1.62544189 121.73899292 1.62544189 122.74899292 3.14044189 C124.80824431 3.86426656 124.80824431 3.86426656 126.74899292 4.14044189 C127.07899292 5.46044189 127.40899292 6.78044189 127.74899292 8.14044189 C128.40899292 8.14044189 129.06899292 8.14044189 129.74899292 8.14044189 C129.87274292 8.75919189 129.99649292 9.37794189 130.12399292 10.01544189 C130.62096648 12.33165021 130.62096648 12.33165021 132.74899292 14.14044189 C132.41899292 14.80044189 132.08899292 15.46044189 131.74899292 16.14044189 C139.6307937 26.90062029 147.55064722 37.61860191 155.74899292 48.14044189 C156.73899292 47.81044189 157.72899292 47.48044189 158.74899292 47.14044189 C160.2690839 47.05417592 161.79274592 47.02484821 163.31527328 47.03021812 C164.25744634 47.03109377 165.1996194 47.03196942 166.17034316 47.0328716 C167.20738584 47.03899327 168.24442852 47.04511494 169.31289673 47.05142212 C170.41308018 47.05394568 171.51326363 47.05646924 172.64678597 47.05906928 C176.35243615 47.06883141 180.05801775 47.08586056 183.76364136 47.10284424 C186.41279063 47.11134717 189.06193845 47.11945603 191.71109009 47.12709045 C198.17208354 47.14665996 204.63304474 47.17170842 211.09401104 47.1986935 C216.34606729 47.22052822 221.59812755 47.24038031 226.85019684 47.25880814 C227.59711684 47.26143026 228.34403685 47.26405239 229.11359079 47.26675398 C230.63089605 47.27207155 232.14820133 47.27738434 233.66550663 47.28269239 C247.90482377 47.33273682 262.14411142 47.38895816 276.38339666 47.44729812 C288.59867212 47.49720499 300.81395751 47.54192914 313.02926636 47.58282471 C327.21068872 47.63030554 341.39209394 47.68094349 355.57348657 47.73665011 C357.08649968 47.74258527 358.5995128 47.74851662 360.11252594 47.75444412 C360.85696576 47.75736251 361.60140559 47.76028089 362.36840419 47.76328772 C367.6114905 47.78362684 372.85458179 47.80172073 378.09767914 47.81895065 C384.49142677 47.84002589 390.88514974 47.86459113 397.2788665 47.89359711 C400.54043223 47.90830733 403.80198232 47.92094709 407.06356812 47.93040276 C410.60146644 47.94093022 414.13928773 47.95744876 417.67715454 47.97549438 C418.70527433 47.97715461 419.73339412 47.97881484 420.79266906 47.98052537 C435.64070092 48.07546669 435.64070092 48.07546669 440.74899292 51.14044189 C441.46945056 53.12170039 442.12900551 55.12548282 442.74899292 57.14044189 C444.28269409 59.29934609 445.96702253 61.17089567 447.74899292 63.14044189 C449.23399292 62.64544189 449.23399292 62.64544189 450.74899292 62.14044189 C453.12500704 67.75731346 453.03466538 72.96059428 453.01641846 78.94880676 C453.02094957 80.03915299 453.02548068 81.12949921 453.0301491 82.25288624 C453.04281223 85.90758651 453.04117145 89.56213812 453.03952026 93.21685791 C453.04550444 95.83701265 453.05230973 98.45716563 453.05987549 101.07731628 C453.07647373 107.45768102 453.08198457 113.83800881 453.08310024 120.21839333 C453.08405161 125.40836169 453.08816634 130.59831789 453.0945015 135.78828239 C453.11211343 150.51744367 453.12134085 165.24657583 453.11984055 179.97574771 C453.11976064 180.7694547 453.11968072 181.56316169 453.11959839 182.38092041 C453.11951663 183.17560212 453.11943487 183.97028384 453.11935063 184.78904682 C453.11853852 197.65478759 453.13765717 210.52041107 453.16587512 223.38611794 C453.19465054 236.61091413 453.20841275 249.83565322 453.20668757 263.06048149 C453.2060251 270.47931651 453.21145379 277.89802868 453.23304367 285.3168354 C453.25131726 291.63644714 453.25555272 297.9558804 453.24202482 304.27550722 C453.23552503 307.49545142 453.23747122 310.7149853 453.25273132 313.93490982 C453.36400966 339.0503735 453.36400966 339.0503735 448.74899292 349.14044189 C448.26033941 350.22553323 447.77168591 351.31062456 447.26822472 352.42859745 C446.76687822 353.32350612 446.26553173 354.21841478 445.74899292 355.14044189 C443.28414917 355.78106689 443.28414917 355.78106689 440.74899292 356.14044189 C438.80094549 357.78293061 438.80094549 357.78293061 437.18649292 359.89044189 C436.59223511 360.61231689 435.99797729 361.33419189 435.38571167 362.07794189 C434.57553589 363.09887939 434.57553589 363.09887939 433.74899292 364.14044189 C433.00649292 365.04794189 432.26399292 365.95544189 431.49899292 366.89044189 C429.75887504 369.07126707 429.75887504 369.07126707 428.37399292 371.20294189 C421.79026679 379.0527692 410.40065009 380.90130363 400.74899292 382.14044189 C395.62510061 382.41453648 390.50723981 382.41130397 385.37765503 382.39440918 C383.84157381 382.3967173 382.30549369 382.39989617 380.76941586 382.40386367 C376.57408958 382.41217206 372.37885492 382.40810448 368.18352842 382.40189123 C363.64903884 382.39735148 359.11456462 382.40435804 354.58007812 382.40985107 C345.70715367 382.41873048 336.8342631 382.41682954 327.96133733 382.41102579 C320.74820888 382.40650359 313.53508991 382.40589882 306.32196045 382.40807343 C305.29419241 382.40837989 304.26642437 382.40868636 303.20751184 382.40900211 C301.11942776 382.40964158 299.03134368 382.41029001 296.9432596 382.41094729 C277.37690424 382.41664633 257.81056765 382.41009938 238.24421537 382.39934656 C221.4661761 382.39041144 204.6881645 382.3919636 187.91012573 382.40118408 C168.41236319 382.41189423 148.91461707 382.41609705 129.416852 382.40995955 C127.33657646 382.40932248 125.25630093 382.40869373 123.17602539 382.40807343 C122.15256907 382.40776487 121.12911275 382.40745632 120.0746426 382.40713842 C112.87265403 382.40541372 105.67067591 382.40832174 98.46868896 382.41303253 C89.68834622 382.41864963 80.90803923 382.41710746 72.12770057 382.40647104 C67.65040225 382.40122551 63.17316347 382.3991385 58.69586563 382.40576935 C54.59268295 382.4117541 50.48961469 382.40841223 46.3864423 382.39781424 C44.90677475 382.39559089 43.42709741 382.39669241 41.94743621 382.40156582 C31.51833976 382.43326453 21.24503598 382.25782352 11.68649292 377.64044189 C10.78801636 377.21762939 9.88953979 376.79481689 8.96383667 376.35919189 C6.56022705 375.03657073 5.1260487 373.64946719 3.49899292 371.45294189 C1.55246993 368.8807508 -0.51787403 366.45345671 -2.63772583 364.02325439 C-3.72966159 362.74888869 -4.79440336 361.45079822 -5.83303833 360.13262939 C-6.34221802 359.49583252 -6.85139771 358.85903564 -7.37600708 358.20294189 C-7.83233521 357.61641846 -8.28866333 357.02989502 -8.75881958 356.42559814 C-10.42792873 354.70538429 -10.42792873 354.70538429 -14.25100708 355.14044189 C-15.23627408 352.91379873 -16.21432152 350.68442873 -17.18850708 348.45294189 C-17.46630005 347.82710205 -17.74409302 347.20126221 -18.03030396 346.55645752 C-20.40827119 341.08426786 -21.37479325 336.47462014 -21.38243484 330.53157997 C-21.38627599 329.40777164 -21.39011714 328.28396331 -21.39407468 327.12610018 C-21.3932082 325.89644482 -21.39234171 324.66678947 -21.39144897 323.39987183 C-21.3944201 322.08971835 -21.39739122 320.77956488 -21.40045238 319.42970979 C-21.40851146 315.79461171 -21.41031133 312.15953338 -21.41104984 308.52442741 C-21.41290225 304.60341234 -21.42045043 300.68240748 -21.42718506 296.76139832 C-21.44076013 288.18918514 -21.44679153 279.61697664 -21.45119572 271.04475451 C-21.45395897 265.69256904 -21.45819642 260.34038538 -21.46269989 254.98820114 C-21.47489041 240.16975582 -21.48519085 225.35131194 -21.48857498 210.53286171 C-21.48879455 209.58469504 -21.48901411 208.63652836 -21.48924033 207.65962937 C-21.48945861 206.70919978 -21.48967689 205.75877019 -21.48990178 204.7795397 C-21.49034525 202.85361648 -21.49079181 200.92769325 -21.49124146 199.00177002 C-21.49146288 198.04644636 -21.49168431 197.0911227 -21.49191245 196.10684983 C-21.49586193 180.62131081 -21.51332146 165.13581881 -21.53660098 149.65029795 C-21.56030828 133.75195952 -21.57277651 117.85364469 -21.5739429 101.95528829 C-21.5748599 93.02870521 -21.58061858 84.10218342 -21.59876251 75.17561722 C-21.61415495 67.57601646 -21.61928895 59.97649595 -21.61102441 52.37688257 C-21.60711515 48.49955995 -21.60806094 44.62239898 -21.62208176 40.74509621 C-21.63714319 36.54160684 -21.6289626 32.33848246 -21.61849976 28.13497925 C-21.63058436 26.29718838 -21.63058436 26.29718838 -21.6429131 24.42227042 C-21.60690583 18.25322218 -21.38801184 13.53031115 -18.25100708 8.14044189 C-16.12600708 6.89044189 -16.12600708 6.89044189 -14.25100708 6.14044189 C-13.92100708 5.15044189 -13.59100708 4.16044189 -13.25100708 3.14044189 C-12.26100708 3.14044189 -11.27100708 3.14044189 -10.25100708 3.14044189 C-9.92100708 2.48044189 -9.59100708 1.82044189 -9.25100708 1.14044189 C-6.17795209 0.0485477 -3.23840328 0.01043812 0 0 Z M-0.25100708 1.14044189 C-0.25100708 1.47044189 -0.25100708 1.80044189 -0.25100708 2.14044189 C38.68899292 2.14044189 77.62899292 2.14044189 117.74899292 2.14044189 C117.74899292 1.81044189 117.74899292 1.48044189 117.74899292 1.14044189 C78.80899292 1.14044189 39.86899292 1.14044189 -0.25100708 1.14044189 Z M-17.25100708 11.14044189 C-16.25100708 13.14044189 -16.25100708 13.14044189 -16.25100708 13.14044189 Z M-18.25100708 13.14044189 C-17.25100708 15.14044189 -17.25100708 15.14044189 -17.25100708 15.14044189 Z M-19.25100708 15.14044189 C-18.25100708 18.14044189 -18.25100708 18.14044189 -18.25100708 18.14044189 Z M-20.25100708 18.14044189 C-20.25100708 122.09044189 -20.25100708 226.04044189 -20.25100708 333.14044189 C-19.92100708 333.14044189 -19.59100708 333.14044189 -19.25100708 333.14044189 C-19.25100708 229.19044189 -19.25100708 125.24044189 -19.25100708 18.14044189 C-19.58100708 18.14044189 -19.91100708 18.14044189 -20.25100708 18.14044189 Z M159.74899292 50.14044189 C159.74899292 50.47044189 159.74899292 50.80044189 159.74899292 51.14044189 C249.17899292 51.14044189 338.60899292 51.14044189 430.74899292 51.14044189 C430.74899292 50.81044189 430.74899292 50.48044189 430.74899292 50.14044189 C341.31899292 50.14044189 251.88899292 50.14044189 159.74899292 50.14044189 Z M448.74899292 65.14044189 C449.74899292 67.14044189 449.74899292 67.14044189 449.74899292 67.14044189 Z M449.74899292 67.14044189 C450.74899292 71.14044189 450.74899292 71.14044189 450.74899292 71.14044189 Z M450.74899292 71.14044189 C450.74899292 157.60044189 450.74899292 244.06044189 450.74899292 333.14044189 C451.07899292 333.14044189 451.40899292 333.14044189 451.74899292 333.14044189 C451.74899292 246.68044189 451.74899292 160.22044189 451.74899292 71.14044189 C451.41899292 71.14044189 451.08899292 71.14044189 450.74899292 71.14044189 Z M-19.25100708 333.14044189 C-19.25100708 334.79044189 -19.25100708 336.44044189 -19.25100708 338.14044189 C-18.92100708 338.14044189 -18.59100708 338.14044189 -18.25100708 338.14044189 C-18.25100708 336.49044189 -18.25100708 334.84044189 -18.25100708 333.14044189 C-18.58100708 333.14044189 -18.91100708 333.14044189 -19.25100708 333.14044189 Z M449.74899292 333.14044189 C449.74899292 334.79044189 449.74899292 336.44044189 449.74899292 338.14044189 C450.07899292 338.14044189 450.40899292 338.14044189 450.74899292 338.14044189 C450.74899292 336.49044189 450.74899292 334.84044189 450.74899292 333.14044189 C450.41899292 333.14044189 450.08899292 333.14044189 449.74899292 333.14044189 Z M-18.25100708 338.14044189 C-17.25100708 341.14044189 -17.25100708 341.14044189 -17.25100708 341.14044189 Z M448.74899292 338.14044189 C449.74899292 341.14044189 449.74899292 341.14044189 449.74899292 341.14044189 Z M-17.25100708 341.14044189 C-16.25100708 344.14044189 -16.25100708 344.14044189 -16.25100708 344.14044189 Z M447.74899292 341.14044189 C448.74899292 344.14044189 448.74899292 344.14044189 448.74899292 344.14044189 Z M-16.25100708 344.14044189 C-15.25100708 346.14044189 -15.25100708 346.14044189 -15.25100708 346.14044189 Z M446.74899292 344.14044189 C447.74899292 346.14044189 447.74899292 346.14044189 447.74899292 346.14044189 Z M-15.25100708 346.14044189 C-14.25100708 348.14044189 -14.25100708 348.14044189 -14.25100708 348.14044189 Z M445.74899292 346.14044189 C446.74899292 348.14044189 446.74899292 348.14044189 446.74899292 348.14044189 Z M-14.25100708 348.14044189 C-13.25100708 350.14044189 -13.25100708 350.14044189 -13.25100708 350.14044189 Z M444.74899292 348.14044189 C445.74899292 350.14044189 445.74899292 350.14044189 445.74899292 350.14044189 Z M-13.25100708 350.14044189 C-12.25100708 352.14044189 -12.25100708 352.14044189 -12.25100708 352.14044189 Z M443.74899292 350.14044189 C444.74899292 352.14044189 444.74899292 352.14044189 444.74899292 352.14044189 Z M34.74899292 380.14044189 C34.74899292 380.47044189 34.74899292 380.80044189 34.74899292 381.14044189 C154.20899292 381.14044189 273.66899292 381.14044189 396.74899292 381.14044189 C396.74899292 380.81044189 396.74899292 380.48044189 396.74899292 380.14044189 C277.28899292 380.14044189 157.82899292 380.14044189 34.74899292 380.14044189 Z " fill="#9FC5E7" transform="translate(40.251007080078125,64.85955810546875)"/>
<path d="M0 0 C1.06279175 -0.00571014 2.1255835 -0.01142029 3.22058105 -0.01730347 C4.38125092 -0.01842133 5.54192078 -0.01953918 6.73776245 -0.02069092 C8.57724457 -0.02813828 8.57724457 -0.02813828 10.45388794 -0.03573608 C13.81319827 -0.04783041 17.1724465 -0.05529814 20.53177118 -0.05974674 C22.62970275 -0.06268017 24.72762888 -0.06678531 26.82555771 -0.07125092 C33.38762102 -0.08491291 39.94967189 -0.09458799 46.51174843 -0.09845281 C54.0914545 -0.10294161 61.67098097 -0.12053278 69.25063241 -0.1494534 C75.1088737 -0.17103243 80.96706429 -0.18115492 86.82534492 -0.18249393 C90.3253361 -0.18354395 93.82515815 -0.18949424 97.32510757 -0.20731354 C101.2231357 -0.22677582 105.12093674 -0.22252044 109.01901245 -0.21600342 C110.18373077 -0.2252182 111.3484491 -0.23443298 112.54846191 -0.243927 C114.13419006 -0.23557327 114.13419006 -0.23557327 115.75195312 -0.22705078 C117.13514583 -0.22925062 117.13514583 -0.22925062 118.54628181 -0.2314949 C119.27317648 -0.10875576 120.00007114 0.01398338 120.74899292 0.14044189 C121.73899292 1.62544189 121.73899292 1.62544189 122.74899292 3.14044189 C124.80824431 3.86426656 124.80824431 3.86426656 126.74899292 4.14044189 C127.07899292 5.46044189 127.40899292 6.78044189 127.74899292 8.14044189 C128.40899292 8.14044189 129.06899292 8.14044189 129.74899292 8.14044189 C129.87274292 8.75919189 129.99649292 9.37794189 130.12399292 10.01544189 C130.62096648 12.33165021 130.62096648 12.33165021 132.74899292 14.14044189 C132.41899292 14.80044189 132.08899292 15.46044189 131.74899292 16.14044189 C139.6307937 26.90062029 147.55064722 37.61860191 155.74899292 48.14044189 C156.73899292 47.81044189 157.72899292 47.48044189 158.74899292 47.14044189 C160.2690839 47.05417592 161.79274592 47.02484821 163.31527328 47.03021812 C164.25744634 47.03109377 165.1996194 47.03196942 166.17034316 47.0328716 C167.20738584 47.03899327 168.24442852 47.04511494 169.31289673 47.05142212 C170.41308018 47.05394568 171.51326363 47.05646924 172.64678597 47.05906928 C176.35243615 47.06883141 180.05801775 47.08586056 183.76364136 47.10284424 C186.41279063 47.11134717 189.06193845 47.11945603 191.71109009 47.12709045 C198.17208354 47.14665996 204.63304474 47.17170842 211.09401104 47.1986935 C216.34606729 47.22052822 221.59812755 47.24038031 226.85019684 47.25880814 C227.59711684 47.26143026 228.34403685 47.26405239 229.11359079 47.26675398 C230.63089605 47.27207155 232.14820133 47.27738434 233.66550663 47.28269239 C247.90482377 47.33273682 262.14411142 47.38895816 276.38339666 47.44729812 C288.59867212 47.49720499 300.81395751 47.54192914 313.02926636 47.58282471 C327.21068872 47.63030554 341.39209394 47.68094349 355.57348657 47.73665011 C357.08649968 47.74258527 358.5995128 47.74851662 360.11252594 47.75444412 C360.85696576 47.75736251 361.60140559 47.76028089 362.36840419 47.76328772 C367.6114905 47.78362684 372.85458179 47.80172073 378.09767914 47.81895065 C384.49142677 47.84002589 390.88514974 47.86459113 397.2788665 47.89359711 C400.54043223 47.90830733 403.80198232 47.92094709 407.06356812 47.93040276 C410.60146644 47.94093022 414.13928773 47.95744876 417.67715454 47.97549438 C418.70527433 47.97715461 419.73339412 47.97881484 420.79266906 47.98052537 C435.64070092 48.07546669 435.64070092 48.07546669 440.74899292 51.14044189 C441.4580523 53.12580817 442.11593471 55.12955111 442.74899292 57.14044189 C444.18433315 59.18163395 445.71432252 61.09883741 447.31149292 63.01544189 C451.63097813 69.40076786 451.00948757 76.3564344 450.94430542 83.75762939 C450.94006058 85.57606857 450.94006058 85.57606857 450.93572998 87.4312439 C450.92455959 91.29274479 450.89946029 95.15401142 450.87399292 99.01544189 C450.86395908 101.63783437 450.85483394 104.26023049 450.84664917 106.88262939 C450.8246305 113.30197978 450.7911839 119.7211941 450.74899292 126.14044189 C450.41899292 126.14044189 450.08899292 126.14044189 449.74899292 126.14044189 C449.61364136 125.35282471 449.47828979 124.56520752 449.33883667 123.75372314 C446.37962615 108.7804723 439.01983187 95.72519287 426.37399292 86.82794189 C413.37488691 78.83371816 401.68632399 76.83757893 386.62489319 76.87974548 C385.09125038 76.87672177 383.55760908 76.87283118 382.02397043 76.86815292 C377.82606031 76.85789248 373.62823579 76.86004975 369.43031871 76.86433351 C364.89645337 76.8668043 360.36260844 76.85778216 355.82875061 76.85029602 C346.95254602 76.8375566 338.0763717 76.83575441 329.20015951 76.83809628 C321.98365407 76.83988053 314.7671578 76.83812752 307.55065346 76.83387184 C306.52290316 76.83327665 305.49515286 76.83268146 304.43625862 76.83206824 C302.3482572 76.83085646 300.26025578 76.82964233 298.17225436 76.82842586 C278.59729532 76.81755314 259.02235352 76.81971149 239.44739351 76.82581071 C221.55023898 76.83097904 203.65313888 76.81972615 185.75599512 76.80071249 C167.36808531 76.78132759 148.98020125 76.77307927 130.59228116 76.77683574 C120.2733524 76.77874687 109.95446996 76.77626886 99.63554955 76.7621212 C90.85041788 76.75019811 82.06536105 76.74881291 73.28022834 76.76091137 C68.80076609 76.76679364 64.32144068 76.76791753 59.84198761 76.75590897 C55.73554287 76.7450286 51.62934887 76.74817898 47.52291576 76.76217065 C46.0431696 76.76481167 44.56340366 76.76246985 43.08367696 76.75443479 C25.01847195 76.66320459 10.18105721 81.10317319 -3.10256958 93.82794189 C-11.48078325 102.84594643 -16.48855395 114.01371213 -18.25100708 126.14044189 C-18.58100708 126.14044189 -18.91100708 126.14044189 -19.25100708 126.14044189 C-19.29778965 112.17990227 -19.33289345 98.21937485 -19.35463142 84.25877285 C-19.36506497 77.77618629 -19.37921649 71.29365243 -19.40188599 64.81109619 C-19.42362943 58.55413864 -19.43557894 52.29723175 -19.44076157 46.04023933 C-19.4444546 43.65405543 -19.45166615 41.26787427 -19.46246719 38.88171196 C-19.47700185 35.53747457 -19.47898417 32.19344607 -19.47805786 28.84918213 C-19.48524841 27.8644693 -19.49243896 26.87975647 -19.49984741 25.86520386 C-19.4838635 20.52613678 -18.90672942 16.20968521 -17.25100708 11.14044189 C-17.25100708 10.15044189 -17.25100708 9.16044189 -17.25100708 8.14044189 C-14.964639 5.45987242 -13.62868288 4.26633383 -10.25100708 3.14044189 C-9.92100708 2.48044189 -9.59100708 1.82044189 -9.25100708 1.14044189 C-6.17795209 0.0485477 -3.23840328 0.01043812 0 0 Z M-0.25100708 1.14044189 C-0.25100708 1.47044189 -0.25100708 1.80044189 -0.25100708 2.14044189 C38.68899292 2.14044189 77.62899292 2.14044189 117.74899292 2.14044189 C117.74899292 1.81044189 117.74899292 1.48044189 117.74899292 1.14044189 C78.80899292 1.14044189 39.86899292 1.14044189 -0.25100708 1.14044189 Z M159.74899292 50.14044189 C159.74899292 50.47044189 159.74899292 50.80044189 159.74899292 51.14044189 C249.17899292 51.14044189 338.60899292 51.14044189 430.74899292 51.14044189 C430.74899292 50.81044189 430.74899292 50.48044189 430.74899292 50.14044189 C341.31899292 50.14044189 251.88899292 50.14044189 159.74899292 50.14044189 Z " fill="#80AAD8" transform="translate(40.251007080078125,64.85955810546875)"/>
<path d="M0 0 C0.66 0.33 1.32 0.66 2 1 C1.67509929 1.89210206 1.35019857 2.78420412 1.01545238 3.70333958 C-0.56547782 9.29203782 -0.27194369 14.98368531 -0.24723816 20.74656677 C-0.24965257 22.03322221 -0.25206699 23.31987765 -0.25455457 24.64552265 C-0.26095149 28.20579859 -0.25491277 31.76596033 -0.24679029 35.32622874 C-0.24020004 39.17019737 -0.24516468 43.01415351 -0.24867249 46.85812378 C-0.25370997 54.38437809 -0.24807836 61.9105884 -0.23882218 69.43683725 C-0.22842855 78.20376465 -0.22850864 86.97068259 -0.22899476 95.737615 C-0.22949525 111.38213347 -0.22033782 127.02663149 -0.20581055 142.67114258 C-0.19172585 157.84692762 -0.18463969 173.02269466 -0.18530273 188.19848633 C-0.18536267 189.6002983 -0.18536267 189.6002983 -0.18542381 191.03042971 C-0.18546417 191.96336496 -0.18550452 192.8963002 -0.1855461 193.85750622 C-0.18623636 211.14001416 -0.18034315 228.42251447 -0.17139288 245.70501993 C-0.16837906 251.81381376 -0.16731362 257.92260619 -0.16686058 264.03140068 C-0.16617767 271.4782951 -0.16170222 278.92517664 -0.15252777 286.3720656 C-0.14791806 290.17048461 -0.14486123 293.96888719 -0.14612198 297.76730919 C-0.14742305 301.8870409 -0.14095804 306.00672404 -0.13371277 310.12644958 C-0.13526137 311.32402073 -0.13680997 312.52159187 -0.1384055 313.75545305 C-0.12141072 319.59992644 0.11086331 325.22111081 1 331 C0.34 331 -0.32 331 -1 331 C-1.82435123 327.39887494 -2.12595533 324.07668465 -2.12863445 320.38555145 C-2.1318589 319.26050972 -2.13508335 318.135468 -2.1384055 316.9763341 C-2.1368569 315.7453145 -2.1353083 314.5142949 -2.13371277 313.24597168 C-2.13597833 311.93440708 -2.13824388 310.62284247 -2.14057809 309.27153349 C-2.14669626 305.6325718 -2.14656248 301.99363308 -2.14538372 298.35466743 C-2.14517972 294.42960235 -2.1506983 290.50454467 -2.15544128 286.57948303 C-2.16374798 278.89087976 -2.16649611 271.20228415 -2.16705366 263.51367676 C-2.16752872 257.26574413 -2.16958294 251.01781403 -2.17275429 244.7698822 C-2.18156013 227.06140336 -2.18617366 209.35293058 -2.18542381 191.64444953 C-2.18536388 190.21242211 -2.18536388 190.21242211 -2.18530273 188.75146484 C-2.18526185 187.79561656 -2.18522097 186.83976828 -2.18517885 185.8549549 C-2.18477218 170.35514299 -2.19434733 154.85535535 -2.2084411 139.35555047 C-2.2227936 123.44592171 -2.22971194 107.5363048 -2.22884732 91.62666941 C-2.22851501 82.69234091 -2.23127714 73.75803788 -2.24202538 64.82371521 C-2.25111546 57.2189448 -2.25331786 49.6142114 -2.24651595 42.00943792 C-2.24324347 38.12834715 -2.24322027 34.24732744 -2.2518692 30.36624336 C-2.26114187 26.16211748 -2.2549774 21.95815724 -2.24723816 17.75402832 C-2.25238172 16.52300872 -2.25752529 15.29198913 -2.26282471 14.0236659 C-2.25822592 12.89862418 -2.25362712 11.77358245 -2.24888897 10.61444855 C-2.24910634 9.6439357 -2.24932371 8.67342286 -2.24954766 7.67350054 C-1.98064933 4.79268884 -1.19985577 2.61935188 0 0 Z " fill="#9FC5E7" transform="translate(21,75)"/>
<path d="M0 0 C0.66 0.33 1.32 0.66 2 1 C1.67657623 1.93981216 1.35315247 2.87962433 1.01992798 3.84791565 C-0.35294304 8.68751792 -0.30755632 13.43286749 -0.31884766 18.43334961 C-0.32889328 19.4584967 -0.3389389 20.4836438 -0.34928894 21.53985596 C-0.38005076 24.91067979 -0.39713677 28.28142445 -0.4140625 31.65234375 C-0.43277976 33.99647194 -0.45235359 36.34059344 -0.4727478 38.68470764 C-0.52401593 44.84131924 -0.56367025 50.99795267 -0.60089111 57.15466309 C-0.64096402 63.44235613 -0.6920414 69.72995878 -0.7421875 76.01757812 C-0.83888387 88.34498853 -0.92330887 100.67245004 -1 113 C-1.33 113 -1.66 113 -2 113 C-2.04674168 99.00491885 -2.08186647 85.00984982 -2.10362434 71.01470661 C-2.11406643 64.51636869 -2.12823352 58.01808316 -2.15087891 51.51977539 C-2.17259193 45.24985933 -2.18456542 38.97999371 -2.18975449 32.71004295 C-2.193453 30.31662387 -2.20067514 27.92320759 -2.21146011 25.52980995 C-2.22595436 22.18037552 -2.22797878 18.83115015 -2.22705078 15.48168945 C-2.23424133 14.48978607 -2.24143188 13.49788269 -2.24884033 12.47592163 C-2.23506944 7.88983611 -2.21770331 4.15032434 0 0 Z " fill="#80AAD8" transform="translate(21,75)"/>
<path d="M0 0 C2.73168173 2.73168173 2.94224633 4.76619227 3.12025452 8.56903076 C3.1169236 10.02131073 3.1169236 10.02131073 3.11352539 11.50292969 C3.11344986 12.60376892 3.11337433 13.70460815 3.11329651 14.83880615 C3.10813522 16.02121887 3.10297394 17.20363159 3.09765625 18.421875 C3.0962413 19.63699768 3.09482635 20.85212036 3.09336853 22.10406494 C3.08776988 25.98606831 3.0752176 29.86801406 3.0625 33.75 C3.05748483 36.38150958 3.05292195 39.01302007 3.04882812 41.64453125 C3.03780089 48.09637383 3.02106408 54.5481828 3 61 C2.67 61 2.34 61 2 61 C1.99191315 60.36630493 1.98382629 59.73260986 1.97549438 59.07971191 C1.8891716 52.46049561 1.78965687 45.84156926 1.68261719 39.22265625 C1.64442818 36.75525802 1.60955804 34.28780604 1.578125 31.8203125 C1.53225555 28.26543009 1.47429672 24.71091455 1.4140625 21.15625 C1.39673569 19.51203064 1.39673569 19.51203064 1.37905884 17.83459473 C1.26521186 11.87300589 0.58415103 6.73925954 -1 1 C-0.67 0.67 -0.34 0.34 0 0 Z " fill="#81ABD9" transform="translate(490,127)"/>
<path d="M0 0 C0.66 0.33 1.32 0.66 2 1 C0.81775332 3.36449336 -0.54096681 4.43426315 -2.5625 6.125 C-3.20316406 6.66382813 -3.84382813 7.20265625 -4.50390625 7.7578125 C-4.99761719 8.16773438 -5.49132812 8.57765625 -6 9 C-6.66 8.67 -7.32 8.34 -8 8 C-5.36 5.36 -2.72 2.72 0 0 Z " fill="#9FC5E7" transform="translate(479,424)"/>
<path d="M0 0 C1.12894876 0.93274109 2.25300876 1.87140122 3.375 2.8125 C4.00148438 3.33457031 4.62796875 3.85664063 5.2734375 4.39453125 C7 6 7 6 9 9 C5.55862568 7.4705003 2.7777867 5.54630448 0 3 C0 2.01 0 1.02 0 0 Z " fill="#9FC5E7" transform="translate(32,424)"/>
<path d="M0 0 C0.66 0.33 1.32 0.66 2 1 C1.67 1.66 1.34 2.32 1 3 C0.34 3 -0.32 3 -1 3 C-0.67 2.01 -0.34 1.02 0 0 Z " fill="#9FC5E7" transform="translate(482,420)"/>
<path d="M0 0 C0.66 0.33 1.32 0.66 2 1 C1.67 1.66 1.34 2.32 1 3 C0.34 3 -0.32 3 -1 3 C-0.67 2.01 -0.34 1.02 0 0 Z " fill="#9FC5E7" transform="translate(29,420)"/>
<path d="M0 0 C0.99 0 1.98 0 3 0 C2.67 0.99 2.34 1.98 2 3 C1.34 2.67 0.68 2.34 0 2 C0 1.34 0 0.68 0 0 Z " fill="#80AAD8" transform="translate(487,125)"/>
<path d="M0 0 C0.99 0 1.98 0 3 0 C2.67 0.99 2.34 1.98 2 3 C1.34 2.67 0.68 2.34 0 2 C0 1.34 0 0.68 0 0 Z " fill="#80AAD8" transform="translate(194,109)"/>
<path d="M0 0 C0.99 0 1.98 0 3 0 C2.67 0.99 2.34 1.98 2 3 C1.34 2.67 0.68 2.34 0 2 C0 1.34 0 0.68 0 0 Z " fill="#80AAD8" transform="translate(191,105)"/>
<path d="M0 0 C0.99 0 1.98 0 3 0 C2.67 0.99 2.34 1.98 2 3 C1.34 2.67 0.68 2.34 0 2 C0 1.34 0 0.68 0 0 Z " fill="#80ABD8" transform="translate(188,101)"/>
<path d="M0 0 C0.99 0 1.98 0 3 0 C2.67 0.99 2.34 1.98 2 3 C1.34 2.67 0.68 2.34 0 2 C0 1.34 0 0.68 0 0 Z " fill="#81AAD8" transform="translate(185,97)"/>
<path d="M0 0 C0.99 0 1.98 0 3 0 C2.67 0.99 2.34 1.98 2 3 C1.34 2.67 0.68 2.34 0 2 C0 1.34 0 0.68 0 0 Z " fill="#80AAD8" transform="translate(182,93)"/>
<path d="M0 0 C0.99 0 1.98 0 3 0 C2.67 0.99 2.34 1.98 2 3 C1.34 2.67 0.68 2.34 0 2 C0 1.34 0 0.68 0 0 Z " fill="#7FABD7" transform="translate(179,89)"/>
<path d="M0 0 C0.99 0 1.98 0 3 0 C2.67 0.99 2.34 1.98 2 3 C1.34 2.67 0.68 2.34 0 2 C0 1.34 0 0.68 0 0 Z " fill="#81AAD7" transform="translate(176,85)"/>
<path d="M0 0 C0.99 0 1.98 0 3 0 C2.67 0.99 2.34 1.98 2 3 C1.34 2.67 0.68 2.34 0 2 C0 1.34 0 0.68 0 0 Z " fill="#80AAD9" transform="translate(173,81)"/>
<path d="M0 0 C0 0.99 0 1.98 0 3 C-0.66 2.34 -1.32 1.68 -2 1 C-1.34 0.67 -0.68 0.34 0 0 Z " fill="#998AB8" transform="translate(486,121)"/>
<path d="M0 0 C0.66 0.33 1.32 0.66 2 1 C1.34 1.66 0.68 2.32 0 3 C0 2.01 0 1.02 0 0 Z " fill="#80AAD7" transform="translate(483,119)"/>
<path d="" fill="#A0C7E7" transform="translate(0,0)"/>
<path d="" fill="#A0C5E7" transform="translate(0,0)"/>
<path d="" fill="#9EC5E9" transform="translate(0,0)"/>
<path d="" fill="#9EC6E8" transform="translate(0,0)"/>
<path d="" fill="#A0C6E7" transform="translate(0,0)"/>
<path d="" fill="#A0C6E8" transform="translate(0,0)"/>
<path d="" fill="#9FC6E6" transform="translate(0,0)"/>
<path d="" fill="#9FC7E7" transform="translate(0,0)"/>
<path d="" fill="#9FC6E7" transform="translate(0,0)"/>
<path d="" fill="#9FC6E7" transform="translate(0,0)"/>
<path d="" fill="#9FC6E7" transform="translate(0,0)"/>
<path d="" fill="#9FC6E7" transform="translate(0,0)"/>
<path d="" fill="#9FC5E7" transform="translate(0,0)"/>
<path d="" fill="#A0C6E8" transform="translate(0,0)"/>
<path d="" fill="#A0C6E8" transform="translate(0,0)"/>
<path d="" fill="#9FC5E9" transform="translate(0,0)"/>
<path d="" fill="#A0C5E8" transform="translate(0,0)"/>
<path d="" fill="#9EC6E7" transform="translate(0,0)"/>
<path d="" fill="#9FC4E7" transform="translate(0,0)"/>
<path d="" fill="#A0C6E7" transform="translate(0,0)"/>
<path d="" fill="#A0C5E9" transform="translate(0,0)"/>
<path d="" fill="#A1C7E8" transform="translate(0,0)"/>
<path d="" fill="#9FC6E8" transform="translate(0,0)"/>
<path d="" fill="#A0C6E8" transform="translate(0,0)"/>
<path d="" fill="#9FC6E7" transform="translate(0,0)"/>
<path d="" fill="#A0C6E8" transform="translate(0,0)"/>
<path d="" fill="#9FC6E8" transform="translate(0,0)"/>
<path d="" fill="#A0C5E8" transform="translate(0,0)"/>
<path d="" fill="#A0C5E7" transform="translate(0,0)"/>
<path d="" fill="#A0C6E8" transform="translate(0,0)"/>
<path d="" fill="#9FC6E7" transform="translate(0,0)"/>
<path d="" fill="#9FC6E6" transform="translate(0,0)"/>
<path d="" fill="#81ACD6" transform="translate(0,0)"/>
<path d="" fill="#81ABD8" transform="translate(0,0)"/>
<path d="" fill="#80ABD8" transform="translate(0,0)"/>
<path d="" fill="#81A8D9" transform="translate(0,0)"/>
<path d="" fill="#81ABD9" transform="translate(0,0)"/>
<path d="" fill="#81AAD8" transform="translate(0,0)"/>
<path d="" fill="#81AAD8" transform="translate(0,0)"/>
<path d="" fill="#80AAD9" transform="translate(0,0)"/>
<path d="" fill="#82ABDA" transform="translate(0,0)"/>
<path d="" fill="#81ABD9" transform="translate(0,0)"/>
<path d="" fill="#80AAD7" transform="translate(0,0)"/>
<path d="" fill="#81ABDA" transform="translate(0,0)"/>
<path d="" fill="#81ABD9" transform="translate(0,0)"/>
<path d="" fill="#80ABD8" transform="translate(0,0)"/>
<path d="" fill="#81ABD8" transform="translate(0,0)"/>
<path d="" fill="#80AAD9" transform="translate(0,0)"/>
<path d="" fill="#80AAD9" transform="translate(0,0)"/>
<path d="" fill="#82AAD9" transform="translate(0,0)"/>
<path d="" fill="#81AAD9" transform="translate(0,0)"/>
<path d="" fill="#80ABD7" transform="translate(0,0)"/>
<path d="" fill="#80ABD9" transform="translate(0,0)"/>
<path d="" fill="#80ABD9" transform="translate(0,0)"/>
<path d="" fill="#80ABD9" transform="translate(0,0)"/>
<path d="" fill="#80ABD8" transform="translate(0,0)"/>
<path d="" fill="#81AAD8" transform="translate(0,0)"/>
<path d="" fill="#80AAD9" transform="translate(0,0)"/>
<path d="" fill="#80ABD7" transform="translate(0,0)"/>
<path d="" fill="#80AAD8" transform="translate(0,0)"/>
<path d="" fill="#7FABD8" transform="translate(0,0)"/>
<path d="" fill="#82ABD8" transform="translate(0,0)"/>
<path d="" fill="#81AAD9" transform="translate(0,0)"/>
<path d="" fill="#80A9D9" transform="translate(0,0)"/>
<path d="" fill="#81ABD8" transform="translate(0,0)"/>
<path d="" fill="#80AAD8" transform="translate(0,0)"/>
<path d="" fill="#82ACD9" transform="translate(0,0)"/>
<path d="" fill="#81ABD7" transform="translate(0,0)"/>
<path d="" fill="#7FAAD8" transform="translate(0,0)"/>
<path d="" fill="#80ABD8" transform="translate(0,0)"/>
<path d="" fill="#80ABD8" transform="translate(0,0)"/>
<path d="" fill="#80AAD9" transform="translate(0,0)"/>
<path d="" fill="#82ABD9" transform="translate(0,0)"/>
<path d="" fill="#81ABD9" transform="translate(0,0)"/>
<path d="" fill="#81ABDA" transform="translate(0,0)"/>
<path d="" fill="#80AAD9" transform="translate(0,0)"/>
<path d="" fill="#80ABD9" transform="translate(0,0)"/>
<path d="" fill="#82AADB" transform="translate(0,0)"/>
</svg>
