<?xml version="1.0" encoding="UTF-8"?>
<svg version="1.1" xmlns="http://www.w3.org/2000/svg" width="1080" height="1080">
<path d="M0 0 C356.4 0 712.8 0 1080 0 C1080 356.4 1080 712.8 1080 1080 C723.6 1080 367.2 1080 0 1080 C0 723.6 0 367.2 0 0 Z " fill="#E5994E" transform="translate(0,0)"/>
<path d="M0 0 C0.86842529 0.7118042 0.86842529 0.7118042 1.75439453 1.43798828 C16.78059355 13.86025043 31.07874676 27.54735665 43 43 C43.87382361 44.05392723 44.75170529 45.10449815 45.6328125 46.15234375 C59.40732687 62.67194043 71.09104538 80.93002193 81 100 C81.3496582 100.66370605 81.69931641 101.32741211 82.05957031 102.01123047 C99.57003369 135.36644772 111.2645407 172.25117717 115.72363281 209.68408203 C115.90726258 211.22287352 116.10186058 212.76039734 116.30761719 214.29638672 C127.3133044 296.94319556 101.16199981 382.76328411 51.25390625 448.6484375 C48.56409927 452.14977369 45.80220458 455.58815918 43 459 C42.52546387 459.5789502 42.05092773 460.15790039 41.56201172 460.75439453 C29.13974957 475.78059355 15.45264335 490.07874676 0 502 C-1.05392723 502.87382361 -2.10449815 503.75170529 -3.15234375 504.6328125 C-19.63875608 518.37965681 -37.88580092 530.24514114 -57 540 C-57.92329102 540.4738916 -58.84658203 540.9477832 -59.79785156 541.43603516 C-75.13531301 549.23495654 -90.69310787 555.54291408 -107 561 C-108.64983372 561.57004012 -110.29957944 562.14033502 -111.94921875 562.7109375 C-130.3872825 568.94773908 -149.73635913 572.4266284 -169 575 C-169.74556152 575.10441406 -170.49112305 575.20882812 -171.25927734 575.31640625 C-211.46059059 580.74878384 -254.02248407 576.836151 -293 566 C-294.06283203 565.70754395 -295.12566406 565.41508789 -296.22070312 565.11376953 C-318.07126593 558.9970367 -338.96582481 550.64539526 -359 540 C-359.76199707 539.60232422 -360.52399414 539.20464844 -361.30908203 538.79492188 C-384.14846086 526.84381891 -404.55986724 511.85672642 -424 495 C-424.81726563 494.29617188 -425.63453125 493.59234375 -426.4765625 492.8671875 C-438.25780222 482.5044248 -449.34732023 471.37345306 -459 459 C-459.87825418 457.94259945 -460.75997115 456.88806856 -461.64453125 455.8359375 C-475.38344068 439.34924619 -487.24724868 421.11006944 -497 402 C-497.7108374 400.61506348 -497.7108374 400.61506348 -498.43603516 399.20214844 C-506.23495654 383.86468699 -512.54291408 368.30689213 -518 352 C-518.57004012 350.35016628 -519.14033502 348.70042056 -519.7109375 347.05078125 C-525.94773908 328.6127175 -529.4266284 309.26364087 -532 290 C-532.10441406 289.25443848 -532.20882812 288.50887695 -532.31640625 287.74072266 C-537.74878384 247.53940941 -533.836151 204.97751593 -523 166 C-522.56131592 164.40575195 -522.56131592 164.40575195 -522.11376953 162.77929688 C-515.9970367 140.92873407 -507.64539526 120.03417519 -497 100 C-496.60232422 99.23800293 -496.20464844 98.47600586 -495.79492188 97.69091797 C-483.84381891 74.85153914 -468.85672642 54.44013276 -452 35 C-451.29617188 34.18273437 -450.59234375 33.36546875 -449.8671875 32.5234375 C-439.5044248 20.74219778 -428.37345306 9.65267977 -416 0 C-414.94259945 -0.87825418 -413.88806856 -1.75997115 -412.8359375 -2.64453125 C-396.31611391 -16.4110509 -378.06581243 -28.0932099 -359 -38 C-358.33629395 -38.3496582 -357.67258789 -38.69931641 -356.98876953 -39.05957031 C-323.63355228 -56.57003369 -286.74882283 -68.2645407 -249.31591797 -72.72363281 C-247.77712648 -72.90726258 -246.23960266 -73.10186058 -244.70361328 -73.30761719 C-157.48852154 -84.92164117 -67.34517579 -55.31177146 0 0 Z " fill="#E5994E" transform="translate(748,289)"/>
<path d="M0 0 C0.86842529 0.7118042 0.86842529 0.7118042 1.75439453 1.43798828 C16.78059355 13.86025043 31.07874676 27.54735665 43 43 C43.87382361 44.05392723 44.75170529 45.10449815 45.6328125 46.15234375 C59.40732687 62.67194043 71.09104538 80.93002193 81 100 C81.3496582 100.66370605 81.69931641 101.32741211 82.05957031 102.01123047 C99.57003369 135.36644772 111.2645407 172.25117717 115.72363281 209.68408203 C115.90726258 211.22287352 116.10186058 212.76039734 116.30761719 214.29638672 C127.3133044 296.94319556 101.16199981 382.76328411 51.25390625 448.6484375 C48.56409927 452.14977369 45.80220458 455.58815918 43 459 C42.52546387 459.5789502 42.05092773 460.15790039 41.56201172 460.75439453 C29.13974957 475.78059355 15.45264335 490.07874676 0 502 C-1.05392723 502.87382361 -2.10449815 503.75170529 -3.15234375 504.6328125 C-19.63875608 518.37965681 -37.88580092 530.24514114 -57 540 C-57.92329102 540.4738916 -58.84658203 540.9477832 -59.79785156 541.43603516 C-75.13531301 549.23495654 -90.69310787 555.54291408 -107 561 C-108.64983372 561.57004012 -110.29957944 562.14033502 -111.94921875 562.7109375 C-130.3872825 568.94773908 -149.73635913 572.4266284 -169 575 C-169.74556152 575.10441406 -170.49112305 575.20882812 -171.25927734 575.31640625 C-211.46059059 580.74878384 -254.02248407 576.836151 -293 566 C-294.06283203 565.70754395 -295.12566406 565.41508789 -296.22070312 565.11376953 C-318.07126593 558.9970367 -338.96582481 550.64539526 -359 540 C-359.76199707 539.60232422 -360.52399414 539.20464844 -361.30908203 538.79492188 C-384.14846086 526.84381891 -404.55986724 511.85672642 -424 495 C-424.81726563 494.29617188 -425.63453125 493.59234375 -426.4765625 492.8671875 C-438.25780222 482.5044248 -449.34732023 471.37345306 -459 459 C-459.87825418 457.94259945 -460.75997115 456.88806856 -461.64453125 455.8359375 C-475.38344068 439.34924619 -487.24724868 421.11006944 -497 402 C-497.7108374 400.61506348 -497.7108374 400.61506348 -498.43603516 399.20214844 C-506.23495654 383.86468699 -512.54291408 368.30689213 -518 352 C-518.57004012 350.35016628 -519.14033502 348.70042056 -519.7109375 347.05078125 C-525.94773908 328.6127175 -529.4266284 309.26364087 -532 290 C-532.10441406 289.25443848 -532.20882812 288.50887695 -532.31640625 287.74072266 C-537.74878384 247.53940941 -533.836151 204.97751593 -523 166 C-522.56131592 164.40575195 -522.56131592 164.40575195 -522.11376953 162.77929688 C-515.9970367 140.92873407 -507.64539526 120.03417519 -497 100 C-496.60232422 99.23800293 -496.20464844 98.47600586 -495.79492188 97.69091797 C-483.84381891 74.85153914 -468.85672642 54.44013276 -452 35 C-451.29617188 34.18273437 -450.59234375 33.36546875 -449.8671875 32.5234375 C-439.5044248 20.74219778 -428.37345306 9.65267977 -416 0 C-414.94259945 -0.87825418 -413.88806856 -1.75997115 -412.8359375 -2.64453125 C-396.31611391 -16.4110509 -378.06581243 -28.0932099 -359 -38 C-358.33629395 -38.3496582 -357.67258789 -38.69931641 -356.98876953 -39.05957031 C-323.63355228 -56.57003369 -286.74882283 -68.2645407 -249.31591797 -72.72363281 C-247.77712648 -72.90726258 -246.23960266 -73.10186058 -244.70361328 -73.30761719 C-157.48852154 -84.92164117 -67.34517579 -55.31177146 0 0 Z M-306 -46 C-306.95181152 -45.68224609 -307.90362305 -45.36449219 -308.88427734 -45.03710938 C-332.73043939 -36.91892629 -356.00701812 -25.95594122 -377 -12 C-377.68304199 -11.55060059 -378.36608398 -11.10120117 -379.06982422 -10.63818359 C-391.67762076 -2.30491784 -403.66893496 6.7331065 -414.79296875 16.9765625 C-416.72130517 18.74448863 -418.68847978 20.43846046 -420.6875 22.125 C-431.05628741 31.1871516 -440.52708857 41.15704342 -449 52 C-449.95054295 53.16357244 -450.90384331 54.32489584 -451.859375 55.484375 C-458.82435409 63.97433671 -465.13812228 72.7156136 -471 82 C-471.36657715 82.57621094 -471.7331543 83.15242187 -472.11083984 83.74609375 C-491.94798502 115.14378249 -506.09487493 149.61088062 -514 185.875 C-514.27851807 187.15012451 -514.55703613 188.42524902 -514.84399414 189.73901367 C-530.62785551 265.58937344 -515.55744441 350.72448707 -473.6796875 415.93359375 C-472.78946394 417.29103837 -471.89623747 418.64651846 -471 420 C-470.54915039 420.68594238 -470.09830078 421.37188477 -469.63378906 422.07861328 C-461.30279913 434.68152673 -452.26634091 446.66832393 -442.02734375 457.7890625 C-440.2385666 459.73982911 -438.52156881 461.72980395 -436.8125 463.75 C-428.85671288 472.85023909 -420.18070602 481.38072393 -410.69140625 488.8671875 C-407.83289493 491.13242289 -405.07945545 493.49906787 -402.3125 495.875 C-365.61695293 526.43100895 -319.56330946 546.87702858 -273.125 557 C-271.21231323 557.4177771 -271.21231323 557.4177771 -269.26098633 557.84399414 C-193.41062656 573.62785551 -108.27551293 558.55744441 -43.06640625 516.6796875 C-41.70896163 515.78946394 -40.35348154 514.89623747 -39 514 C-38.31405762 513.54915039 -37.62811523 513.09830078 -36.92138672 512.63378906 C-24.31847327 504.30279913 -12.33167607 495.26634091 -1.2109375 485.02734375 C0.73982911 483.2385666 2.72980395 481.52156881 4.75 479.8125 C13.85023909 471.85671288 22.38072393 463.18070602 29.8671875 453.69140625 C32.13242289 450.83289493 34.49906787 448.07945545 36.875 445.3125 C81.35547734 391.89467791 104.29481312 320.59326596 104.1875 251.625 C104.18623108 250.78418884 104.18496216 249.94337769 104.18365479 249.0770874 C104.08936134 216.21699082 99.46966582 184.23236198 89 153 C88.68224609 152.04818848 88.36449219 151.09637695 88.03710938 150.11572266 C79.91892629 126.26956061 68.95594122 102.99298188 55 82 C54.55060059 81.31695801 54.10120117 80.63391602 53.63818359 79.93017578 C45.3058884 67.32384765 36.26881046 55.33435829 26.02734375 44.2109375 C24.2385666 42.26017089 22.52156881 40.27019605 20.8125 38.25 C12.85671288 29.14976091 4.18070602 20.61927607 -5.30859375 13.1328125 C-8.16710507 10.86757711 -10.92054455 8.50093213 -13.6875 6.125 C-67.10532209 -38.35547734 -138.40673404 -61.29481312 -207.375 -61.1875 C-208.21581116 -61.18623108 -209.05662231 -61.18496216 -209.9229126 -61.18365479 C-242.78300918 -61.08936134 -274.76763802 -56.46966582 -306 -46 Z " fill="#FEFCFB" transform="translate(748,289)"/>
<path d="M0 0 C5.21191417 1.90858829 7.47183318 7.89308528 9.96875 12.5 C13.48373295 18.8122685 17.49515851 24.33126315 22.21875 29.8125 C22.79753906 30.54726563 23.37632812 31.28203125 23.97265625 32.0390625 C39.83940203 51.4355595 65.81757938 62.80306572 90.21875 65.8125 C94.49442838 66.09066551 98.74737206 66.14703739 103.03125 66.125 C104.17053955 66.12008545 105.3098291 66.1151709 106.48364258 66.11010742 C115.09249652 65.99063361 122.91078929 65.20140139 131.21875 62.8125 C132.41886719 62.48378906 133.61898437 62.15507813 134.85546875 61.81640625 C149.0768826 57.52174731 162.08202126 50.6752856 173.21875 40.8125 C173.87617187 40.296875 174.53359375 39.78125 175.2109375 39.25 C183.98559374 32.20208334 190.59176974 22.33095653 197 13.16796875 C199.08097413 10.85355201 201.54920672 10.76261974 204.53125 10.3125 C208.43516849 10.84184488 209.12184036 11.16912911 211.71875 13.875 C213.70397325 16.55585404 214.20332978 17.65212975 214.53125 21.0625 C210.76139338 31.83351892 202.70560316 40.42051981 195.21875 48.8125 C194.62320313 49.48152344 194.02765625 50.15054688 193.4140625 50.83984375 C175.27336094 70.01844615 150.42764735 80.01035798 125.21875 85.8125 C124.45328857 85.99280762 123.68782715 86.17311523 122.89916992 86.35888672 C91.44176637 91.6824914 56.56639751 83.7371565 30.609375 65.328125 C27.37975899 62.93512712 24.29071347 60.40459735 21.21875 57.8125 C20.32542969 57.0596875 19.43210937 56.306875 18.51171875 55.53125 C7.82036423 46.20300212 -0.29331836 35.76787738 -7.78125 23.8125 C-8.34457031 22.91660156 -8.90789062 22.02070312 -9.48828125 21.09765625 C-12.08014328 16.72809058 -13.78125 13.01960452 -13.78125 7.8125 C-10.76878933 0.83627528 -7.17803337 -0.58997535 0 0 Z " fill="#FEFDFC" transform="translate(437.78125,635.1875)"/>
<path d="M0 0 C3.59281445 1.18031088 5.33079376 3.04536157 7.97851562 5.73632812 C8.46534821 6.22644882 8.95218079 6.71656952 9.45376587 7.22154236 C11.0054672 8.788943 12.54250501 10.36992319 14.08007812 11.95117188 C15.10524694 12.98784306 16.13128117 14.02365919 17.15820312 15.05859375 C21.95986129 19.91914392 26.62690349 24.85844786 31.07763672 30.04516602 C34.01198869 33.36909217 37.17535438 36.46312639 40.33007812 39.57617188 C40.97203125 40.21361328 41.61398437 40.85105469 42.27539062 41.5078125 C44.97815538 44.19119267 47.68574785 46.8695941 50.39648438 49.54492188 C52.68450709 51.86778757 54.8630178 54.25446778 57.01757812 56.70117188 C57.71496094 57.49136719 58.41234375 58.2815625 59.13085938 59.09570312 C59.65035156 59.68738281 60.16984375 60.2790625 60.70507812 60.88867188 C59.10661343 65.13775524 55.89203892 67.71092927 52.58007812 70.63867188 C52.01675781 71.14527344 51.4534375 71.651875 50.87304688 72.17382812 C49.48856281 73.4175172 48.09746324 74.65383492 46.70507812 75.88867188 C41.38345866 71.44935746 36.44883799 66.75475582 31.58007812 61.82617188 C30.54560547 60.78493164 30.54560547 60.78493164 29.49023438 59.72265625 C28.15493501 58.37842085 26.82089567 57.03293233 25.48828125 55.68603516 C23.99316967 54.17905111 22.48712075 52.68292898 20.97851562 51.18945312 C18.71981794 48.90358897 16.58098768 46.54803604 14.45507812 44.13867188 C10.04691233 39.20448966 5.43268602 34.51569237 0.70507812 29.88867188 C-2.51887357 31.3040653 -4.65158979 33.00282115 -7.10742188 35.51367188 C-7.73261719 36.1453125 -8.3578125 36.77695312 -9.00195312 37.42773438 C-10.87639026 39.43948122 -12.67206814 41.48349019 -14.46289062 43.56835938 C-19.43379275 49.27994783 -24.87432889 54.5142178 -30.26757812 59.82226562 C-34.6922424 64.20431676 -38.89543394 68.62061072 -42.8046875 73.47265625 C-44.29492188 74.88867188 -44.29492188 74.88867188 -47.29492188 74.88867188 C-49.12695312 73.60351562 -49.12695312 73.60351562 -51.10742188 71.82617188 C-51.75324219 71.25769531 -52.3990625 70.68921875 -53.06445312 70.10351562 C-55.99930245 67.18922567 -58.64239111 64.05914914 -61.29492188 60.88867188 C-60.80088867 60.39987549 -60.30685547 59.9110791 -59.79785156 59.4074707 C-57.54420678 57.17471258 -55.29453971 54.93798701 -53.04492188 52.70117188 C-52.26761719 51.93224609 -51.4903125 51.16332031 -50.68945312 50.37109375 C-47.58658071 47.28148148 -44.59827582 44.27079999 -41.87304688 40.83789062 C-41.35226562 40.19464844 -40.83148438 39.55140625 -40.29492188 38.88867188 C-39.63492187 38.88867188 -38.97492188 38.88867188 -38.29492188 38.88867188 C-38.04959717 38.31665039 -37.80427246 37.74462891 -37.55151367 37.15527344 C-36.08016714 34.5013039 -34.35939786 32.74368005 -32.18945312 30.62304688 C-30.9606543 29.41068359 -30.9606543 29.41068359 -29.70703125 28.17382812 C-28.84916016 27.33722656 -27.99128906 26.500625 -27.10742188 25.63867188 C-21.25429307 19.90701461 -15.60872201 14.12496392 -10.29492188 7.88867188 C-8.94067534 6.34932937 -7.57052003 4.82346404 -6.16992188 3.32617188 C-5.54859375 2.64425781 -4.92726563 1.96234375 -4.28710938 1.25976562 C-2.29492188 -0.11132812 -2.29492188 -0.11132812 0 0 Z " fill="#FEFCFB" transform="translate(408.294921875,349.111328125)"/>
<path d="M0 0 C4.3285729 0.47644713 6.37189748 3.03871212 9.3125 6.0625 C10.21613281 6.98160156 11.11976563 7.90070313 12.05078125 8.84765625 C14.22427757 11.13052946 16.29748521 13.48383284 18.35546875 15.87109375 C22.04381949 20.11811743 25.98593448 24.06283228 30 28 C33.95184053 31.87613477 37.83504121 35.74679783 41.4375 39.953125 C43.97770943 42.90611846 46.63423398 45.65451129 49.4375 48.359375 C50.18644531 49.08253906 50.93539062 49.80570312 51.70703125 50.55078125 C53.25977765 52.04004228 54.81992667 53.52161676 56.38671875 54.99609375 C57.12535156 55.71410156 57.86398437 56.43210937 58.625 57.171875 C59.29789063 57.8122168 59.97078125 58.45255859 60.6640625 59.11230469 C62 61 62 61 61.88110352 63.05078125 C60.92219927 65.17211444 59.94543751 66.40020789 58.27734375 68.015625 C57.73916016 68.54414063 57.20097656 69.07265625 56.64648438 69.6171875 C56.08251953 70.15601563 55.51855469 70.69484375 54.9375 71.25 C54.08575195 72.08144531 54.08575195 72.08144531 53.21679688 72.9296875 C51.81787531 74.29334214 50.40980886 75.64760417 49 77 C45.92897593 75.64313306 43.96333766 74.15824156 41.70703125 71.68359375 C40.77395142 70.67317017 40.77395142 70.67317017 39.82202148 69.64233398 C38.82730835 68.55094116 38.82730835 68.55094116 37.8125 67.4375 C31.31995473 60.41488957 24.67272681 53.58748719 17.84887695 46.88647461 C13.88773633 42.97443307 10.17658369 38.97114052 6.64282227 34.66625977 C4.88816808 32.88657262 3.28261339 31.98233953 1 31 C-2.43553609 34.41057132 -5.86758565 37.8246019 -9.29663086 41.24169922 C-10.46042274 42.40050319 -11.62511549 43.55840322 -12.79077148 44.71533203 C-18.5377118 50.42035987 -24.24804921 56.09689361 -29.50805664 62.26123047 C-31.96706972 65.12706113 -34.55591795 67.85563212 -37.1875 70.5625 C-37.94836914 71.37944336 -37.94836914 71.37944336 -38.72460938 72.21289062 C-40.23046875 73.75390625 -40.23046875 73.75390625 -43 76 C-46.19602706 75.69490503 -47.82212247 74.54237354 -50.015625 72.27734375 C-50.54414062 71.73916016 -51.07265625 71.20097656 -51.6171875 70.64648438 C-52.15601563 70.08251953 -52.69484375 69.51855469 -53.25 68.9375 C-53.80429687 68.36966797 -54.35859375 67.80183594 -54.9296875 67.21679688 C-56.29334214 65.81787531 -57.64760417 64.40980886 -59 63 C-57.43025999 59.1470018 -54.95178412 56.88262207 -52 54 C-51.12230957 53.12754639 -50.24461914 52.25509277 -49.34033203 51.35620117 C-48.40560059 50.42783447 -47.47086914 49.49946777 -46.5078125 48.54296875 C-44.92261789 46.9651599 -43.33791034 45.38686367 -41.75341797 43.80834961 C-40.67228983 42.73224621 -39.59026533 41.65704256 -38.50732422 40.58276367 C-33.04141487 35.15925794 -27.65293423 29.73103412 -22.64990234 23.87036133 C-19.52477464 20.3276559 -16.12023474 17.05735723 -12.75 13.75 C-11.3465901 12.37219977 -9.94546283 10.99206979 -8.546875 9.609375 C-7.93682617 9.01092773 -7.32677734 8.41248047 -6.69824219 7.79589844 C-4.92647423 6.00302259 -4.92647423 6.00302259 -3.40332031 3.77441406 C-2.94022461 3.18885742 -2.47712891 2.60330078 -2 2 C-1.34 2 -0.68 2 0 2 C0 1.34 0 0.68 0 0 Z " fill="#FEFDFB" transform="translate(660,348)"/>
<path d="M0 0 C1.6015625 1.1953125 1.6015625 1.1953125 2.44140625 3.171875 C2.6015625 5.1953125 2.6015625 5.1953125 0.7890625 7.6953125 C0.0671875 8.5203125 -0.6546875 9.3453125 -1.3984375 10.1953125 C-2.10729644 11.50670154 -2.79300202 12.83308267 -3.3984375 14.1953125 C-6.77306465 13.64807567 -8.4807875 13.1404125 -11.3984375 11.1953125 C-14.42817204 10.80090662 -14.42817204 10.80090662 -17.7734375 10.8203125 C-18.89492188 10.79195312 -20.01640625 10.76359375 -21.171875 10.734375 C-25.07034868 11.29129981 -26.64252953 12.42959702 -29.3984375 15.1953125 C-32.72003336 20.55197062 -33.03339088 27.05245904 -33.3984375 33.1953125 C-32.7384375 33.1953125 -32.0784375 33.1953125 -31.3984375 33.1953125 C-31.0684375 34.8453125 -30.7384375 36.4953125 -30.3984375 38.1953125 C-28.9134375 38.6903125 -28.9134375 38.6903125 -27.3984375 39.1953125 C-27.3984375 39.8553125 -27.3984375 40.5153125 -27.3984375 41.1953125 C-24.48121202 41.27634654 -21.56624234 41.33582331 -18.6484375 41.3828125 C-17.8234375 41.40794922 -16.9984375 41.43308594 -16.1484375 41.45898438 C-11.34508936 41.52276745 -11.34508936 41.52276745 -6.8828125 39.93359375 C-5.04459072 38.04233108 -5.04459072 38.04233108 -4.3984375 34.1953125 C-8.6884375 34.1953125 -12.9784375 34.1953125 -17.3984375 34.1953125 C-17.3984375 30.2353125 -17.3984375 26.2753125 -17.3984375 22.1953125 C-7.1684375 22.1953125 3.0615625 22.1953125 13.6015625 22.1953125 C13.6015625 34.07622778 12.78215635 41.77411295 4.6015625 50.1953125 C-1.56510417 55.1953125 -1.56510417 55.1953125 -4.3984375 55.1953125 C-4.3984375 55.8553125 -4.3984375 56.5153125 -4.3984375 57.1953125 C-15.09454231 59.68900938 -25.26055676 59.50575985 -34.83984375 53.96875 C-41.8284159 49.12476258 -47.74972614 42.8157176 -49.3984375 34.1953125 C-49.91676948 25.97432624 -50.55684845 15.64403263 -45.0859375 8.8828125 C-44.1990625 7.9959375 -43.3121875 7.1090625 -42.3984375 6.1953125 C-41.5940625 5.3084375 -40.7896875 4.4215625 -39.9609375 3.5078125 C-36.41333468 0.30631727 -33.24949933 -1.8046875 -28.3984375 -1.8046875 C-28.3984375 -2.4646875 -28.3984375 -3.1246875 -28.3984375 -3.8046875 C-18.654092 -7.05280267 -8.94849884 -4.11147244 0 0 Z " fill="#FDF9F5" transform="translate(500.3984375,512.8046875)"/>
<path d="M0 0 C12.54 0 25.08 0 38 0 C38 4.95 38 9.9 38 15 C30.74 15.33 23.48 15.66 16 16 C15.67 18.97 15.34 21.94 15 25 C21.27 25 27.54 25 34 25 C34 29.29 34 33.58 34 38 C27.73 38 21.46 38 15 38 C15 45.26 15 52.52 15 60 C10.05 60 5.1 60 0 60 C0 40.2 0 20.4 0 0 Z " fill="#FEFBF8" transform="translate(593,509)"/>
<path d="M0 0 C4.95 0 9.9 0 15 0 C15 19.8 15 39.6 15 60 C10.05 60 5.1 60 0 60 C0 40.2 0 20.4 0 0 Z " fill="#FEFCFA" transform="translate(544,509)"/>
<path d="M0 0 C0.99 0.33 1.98 0.66 3 1 C-4.26 8.26 -11.52 15.52 -19 23 C-19.66 22.67 -20.32 22.34 -21 22 C-20.53102295 21.53625977 -20.0620459 21.07251953 -19.57885742 20.59472656 C-17.44575618 18.48247339 -15.31660041 16.36628554 -13.1875 14.25 C-12.44951172 13.52039063 -11.71152344 12.79078125 -10.95117188 12.0390625 C-10.23896484 11.33007812 -9.52675781 10.62109375 -8.79296875 9.890625 C-8.1383667 9.24125977 -7.48376465 8.59189453 -6.80932617 7.92285156 C-4.94130699 6.02204699 -4.94130699 6.02204699 -3.38793945 3.75683594 C-2.70090942 2.88720215 -2.70090942 2.88720215 -2 2 C-1.34 2 -0.68 2 0 2 C0 1.34 0 0.68 0 0 Z " fill="#FAEDDF" transform="translate(660,348)"/>
<path d="M0 0 C0 0.66 0 1.32 0 2 C-1.64453125 3.62109375 -1.64453125 3.62109375 -3.8125 5.4375 C-6.82463265 7.97339332 -6.82463265 7.97339332 -9.63671875 10.72265625 C-11 12 -11 12 -13 12 C-13.66 13.98 -14.32 15.96 -15 18 C-16 16 -16 16 -15.3125 13.625 C-13.87106866 10.74213732 -12.37097129 9.16774518 -10 7 C-8.7315625 5.700625 -8.7315625 5.700625 -7.4375 4.375 C-2.94736842 0 -2.94736842 0 0 0 Z " fill="#F8E5D2" transform="translate(468,512)"/>
</svg>
