<?xml version="1.0" encoding="UTF-8"?>
<svg version="1.1" xmlns="http://www.w3.org/2000/svg" width="1080" height="1080">
<path d="M0 0 C3.2196529 2.55140723 6.40523716 5.14352435 9.58837891 7.74023438 C12.52495977 10.11981216 15.50199288 12.44667459 18.48046875 14.7734375 C23.33789944 18.57711082 28.16770057 22.4134225 32.98046875 26.2734375 C37.81643795 30.15107246 42.66675205 34.00901596 47.54296875 37.8359375 C48.11805176 38.28727051 48.69313477 38.73860352 49.28564453 39.20361328 C52.15680188 41.45520085 55.03063095 43.70333321 57.90625 45.94921875 C64.86533055 51.39167789 71.74699701 56.91882673 78.58935547 62.50732422 C83.69788833 66.6675 88.89733205 70.68530358 94.13671875 74.6796875 C98.68169004 78.17581926 103.10079673 81.82725412 107.5390625 85.45703125 C111.63653897 88.79950246 115.77526817 92.06749251 119.98046875 95.2734375 C125.59607211 99.55464006 131.0732219 103.9868656 136.5390625 108.45703125 C140.63653897 111.79950246 144.77526817 115.06749251 148.98046875 118.2734375 C154.59607211 122.55464006 160.0732219 126.9868656 165.5390625 131.45703125 C169.63653897 134.79950246 173.77526817 138.06749251 177.98046875 141.2734375 C183.59607211 145.55464006 189.0732219 149.9868656 194.5390625 154.45703125 C198.63653897 157.79950246 202.77526817 161.06749251 206.98046875 164.2734375 C212.59607211 168.55464006 218.0732219 172.9868656 223.5390625 177.45703125 C227.63653897 180.79950246 231.77526817 184.06749251 235.98046875 187.2734375 C241.59607211 191.55464006 247.0732219 195.9868656 252.5390625 200.45703125 C256.63653897 203.79950246 260.77526817 207.06749251 264.98046875 210.2734375 C270.59607211 214.55464006 276.0732219 218.9868656 281.5390625 223.45703125 C285.63653897 226.79950246 289.77526817 230.06749251 293.98046875 233.2734375 C299.59607211 237.55464006 305.0732219 241.9868656 310.5390625 246.45703125 C314.63653897 249.79950246 318.77526817 253.06749251 322.98046875 256.2734375 C328.59607211 260.55464006 334.0732219 264.9868656 339.5390625 269.45703125 C343.63653897 272.79950246 347.77526817 276.06749251 351.98046875 279.2734375 C357.59607211 283.55464006 363.0732219 287.9868656 368.5390625 292.45703125 C372.63653897 295.79950246 376.77526817 299.06749251 380.98046875 302.2734375 C388.01746327 307.64746068 394.90668066 313.19346038 401.73291016 318.83251953 C403.20832136 320.04904327 404.6929864 321.25433094 406.1796875 322.45703125 C422.75346366 336.36974736 431.99338367 357.07510484 434.48046875 378.2734375 C436.01708787 407.32144896 426.16025092 428.13660996 408.01367188 450.38134766 C405.63409409 453.31792852 403.30723166 456.29496163 400.98046875 459.2734375 C397.17679543 464.13086819 393.34048375 468.96066932 389.48046875 473.7734375 C385.60283379 478.6094067 381.74489029 483.4597208 377.91796875 488.3359375 C377.46663574 488.91102051 377.01530273 489.48610352 376.55029297 490.07861328 C374.2987054 492.94977063 372.05057304 495.8235997 369.8046875 498.69921875 C364.36222836 505.6582993 358.83507952 512.53996576 353.24658203 519.38232422 C349.08640625 524.49085708 345.06860267 529.6903008 341.07421875 534.9296875 C337.57808699 539.47465879 333.92665213 543.89376548 330.296875 548.33203125 C326.95440379 552.42950772 323.68641374 556.56823692 320.48046875 560.7734375 C316.19926619 566.38904086 311.76704065 571.86619065 307.296875 577.33203125 C303.95440379 581.42950772 300.68641374 585.56823692 297.48046875 589.7734375 C293.19926619 595.38904086 288.76704065 600.86619065 284.296875 606.33203125 C280.95440379 610.42950772 277.68641374 614.56823692 274.48046875 618.7734375 C270.19926619 624.38904086 265.76704065 629.86619065 261.296875 635.33203125 C257.95440379 639.42950772 254.68641374 643.56823692 251.48046875 647.7734375 C247.19926619 653.38904086 242.76704065 658.86619065 238.296875 664.33203125 C234.95440379 668.42950772 231.68641374 672.56823692 228.48046875 676.7734375 C224.19926619 682.38904086 219.76704065 687.86619065 215.296875 693.33203125 C211.95440379 697.42950772 208.68641374 701.56823692 205.48046875 705.7734375 C201.19926619 711.38904086 196.76704065 716.86619065 192.296875 722.33203125 C188.95440379 726.42950772 185.68641374 730.56823692 182.48046875 734.7734375 C178.19926619 740.38904086 173.76704065 745.86619065 169.296875 751.33203125 C165.95440379 755.42950772 162.68641374 759.56823692 159.48046875 763.7734375 C155.19926619 769.38904086 150.76704065 774.86619065 146.296875 780.33203125 C142.95440379 784.42950772 139.68641374 788.56823692 136.48046875 792.7734375 C132.19926619 798.38904086 127.76704065 803.86619065 123.296875 809.33203125 C119.95440379 813.42950772 116.68641374 817.56823692 113.48046875 821.7734375 C108.10644557 828.81043202 102.56044587 835.69964941 96.92138672 842.52587891 C95.70486298 844.00129011 94.49957531 845.48595515 93.296875 846.97265625 C79.38415889 863.54643241 58.67880141 872.78635242 37.48046875 875.2734375 C8.43245729 876.81005662 -12.38270371 866.95321967 -34.62744141 848.80664062 C-37.56402227 846.42706284 -40.54105538 844.10020041 -43.51953125 841.7734375 C-48.37696194 837.96976418 -53.20676307 834.1334525 -58.01953125 830.2734375 C-62.85550045 826.39580254 -67.70581455 822.53785904 -72.58203125 818.7109375 C-73.15711426 818.25960449 -73.73219727 817.80827148 -74.32470703 817.34326172 C-77.19586438 815.09167415 -80.06969345 812.84354179 -82.9453125 810.59765625 C-89.90439305 805.15519711 -96.78605951 799.62804827 -103.62841797 794.03955078 C-108.73695083 789.879375 -113.93639455 785.86157142 -119.17578125 781.8671875 C-123.72075254 778.37105574 -128.13985923 774.71962088 -132.578125 771.08984375 C-136.67560147 767.74737254 -140.81433067 764.47938249 -145.01953125 761.2734375 C-150.63513461 756.99223494 -156.1122844 752.5600094 -161.578125 748.08984375 C-165.67560147 744.74737254 -169.81433067 741.47938249 -174.01953125 738.2734375 C-179.63513461 733.99223494 -185.1122844 729.5600094 -190.578125 725.08984375 C-194.67560147 721.74737254 -198.81433067 718.47938249 -203.01953125 715.2734375 C-208.63513461 710.99223494 -214.1122844 706.5600094 -219.578125 702.08984375 C-223.67560147 698.74737254 -227.81433067 695.47938249 -232.01953125 692.2734375 C-237.63513461 687.99223494 -243.1122844 683.5600094 -248.578125 679.08984375 C-252.67560147 675.74737254 -256.81433067 672.47938249 -261.01953125 669.2734375 C-266.63513461 664.99223494 -272.1122844 660.5600094 -277.578125 656.08984375 C-281.67560147 652.74737254 -285.81433067 649.47938249 -290.01953125 646.2734375 C-295.63513461 641.99223494 -301.1122844 637.5600094 -306.578125 633.08984375 C-310.67560147 629.74737254 -314.81433067 626.47938249 -319.01953125 623.2734375 C-324.63513461 618.99223494 -330.1122844 614.5600094 -335.578125 610.08984375 C-339.67560147 606.74737254 -343.81433067 603.47938249 -348.01953125 600.2734375 C-353.63513461 595.99223494 -359.1122844 591.5600094 -364.578125 587.08984375 C-368.67560147 583.74737254 -372.81433067 580.47938249 -377.01953125 577.2734375 C-382.63513461 572.99223494 -388.1122844 568.5600094 -393.578125 564.08984375 C-397.67560147 560.74737254 -401.81433067 557.47938249 -406.01953125 554.2734375 C-413.05652577 548.89941432 -419.94574316 543.35341462 -426.77197266 537.71435547 C-428.24738386 536.49783173 -429.7320489 535.29254406 -431.21875 534.08984375 C-447.79252616 520.17712764 -457.03244617 499.47177016 -459.51953125 478.2734375 C-461.05615037 449.22542604 -451.19931342 428.41026504 -433.05273438 406.16552734 C-430.67315659 403.22894648 -428.34629416 400.25191337 -426.01953125 397.2734375 C-422.21585793 392.41600681 -418.37954625 387.58620568 -414.51953125 382.7734375 C-410.64189629 377.9374683 -406.78395279 373.0871542 -402.95703125 368.2109375 C-402.50569824 367.63585449 -402.05436523 367.06077148 -401.58935547 366.46826172 C-399.3377679 363.59710437 -397.08963554 360.7232753 -394.84375 357.84765625 C-389.40129086 350.8885757 -383.87414202 344.00690924 -378.28564453 337.16455078 C-374.12546875 332.05601792 -370.10766517 326.8565742 -366.11328125 321.6171875 C-362.61714949 317.07221621 -358.96571463 312.65310952 -355.3359375 308.21484375 C-351.99346629 304.11736728 -348.72547624 299.97863808 -345.51953125 295.7734375 C-341.23832869 290.15783414 -336.80610315 284.68068435 -332.3359375 279.21484375 C-328.99346629 275.11736728 -325.72547624 270.97863808 -322.51953125 266.7734375 C-318.23832869 261.15783414 -313.80610315 255.68068435 -309.3359375 250.21484375 C-305.99346629 246.11736728 -302.72547624 241.97863808 -299.51953125 237.7734375 C-295.23832869 232.15783414 -290.80610315 226.68068435 -286.3359375 221.21484375 C-282.99346629 217.11736728 -279.72547624 212.97863808 -276.51953125 208.7734375 C-272.23832869 203.15783414 -267.80610315 197.68068435 -263.3359375 192.21484375 C-259.99346629 188.11736728 -256.72547624 183.97863808 -253.51953125 179.7734375 C-249.77585024 174.86289488 -245.92855196 170.05320945 -242.01953125 165.2734375 C-237.17278559 159.34641441 -232.44637886 153.34764367 -227.81640625 147.25 C-224.98333339 143.57856884 -222.02094452 140.02358911 -219.015625 136.4921875 C-217.36747135 134.3908217 -217.36747135 134.3908217 -217.171875 131.95703125 C-216.1532694 127.76671958 -213.40423932 125.07083745 -210.64453125 121.8359375 C-209.45083138 120.40316926 -208.25813967 118.96956054 -207.06640625 117.53515625 C-206.46763672 116.8189209 -205.86886719 116.10268555 -205.25195312 115.36474609 C-202.74310286 112.33616501 -200.31329036 109.24912778 -197.89453125 106.1484375 C-197.44787109 105.57794678 -197.00121094 105.00745605 -196.54101562 104.41967773 C-195.19921046 102.70528376 -193.85910157 100.9895781 -192.51953125 99.2734375 C-186.04558864 90.97958716 -179.50664629 82.74735758 -172.84619141 74.60205078 C-172.32589355 73.96509277 -171.8055957 73.32813477 -171.26953125 72.671875 C-170.54056641 71.78387207 -170.54056641 71.78387207 -169.796875 70.87792969 C-168.75223506 69.56574053 -167.78055449 68.19576305 -166.83203125 66.8125 C-166.39890625 66.30460937 -165.96578125 65.79671875 -165.51953125 65.2734375 C-164.52953125 65.2734375 -163.53953125 65.2734375 -162.51953125 65.2734375 C-160.35504447 62.9055279 -160.35504447 62.9055279 -158.14453125 59.7734375 C-157.25353201 58.57386131 -156.36019007 57.37602259 -155.46484375 56.1796875 C-154.98950195 55.54289062 -154.51416016 54.90609375 -154.02441406 54.25 C-151.44039707 50.85606724 -148.72635993 47.5696242 -146.01953125 44.2734375 C-142.0253403 39.39236123 -138.09276869 34.47714568 -134.26953125 29.4609375 C-129.81045157 23.62372801 -125.23204209 17.90777404 -120.51953125 12.2734375 C-119.57013672 11.10167969 -119.57013672 11.10167969 -118.6015625 9.90625 C-89.02328291 -25.34374093 -35.129709 -27.45835434 0 0 Z " fill="#C7FA6E" transform="translate(552.51953125,111.7265625)"/>
<path d="M0 0 C3.35013343 1.39971946 4.92845705 2.88067159 6.9609375 5.8671875 C7.5075 6.65996094 8.0540625 7.45273438 8.6171875 8.26953125 C9.48730469 9.55923828 9.48730469 9.55923828 10.375 10.875 C11.63258017 12.70588877 12.89039924 14.53661346 14.1484375 16.3671875 C14.7887793 17.30530273 15.42912109 18.24341797 16.08886719 19.20996094 C19.02546125 23.49705814 22.01349256 27.74760148 25 32 C26.16954417 33.67038157 27.3388143 35.34095505 28.5078125 37.01171875 C30.8141878 40.30663248 33.12154619 43.60085442 35.4296875 46.89453125 C42.31879526 56.72716687 49.18625662 66.574551 56.03857422 76.43286133 C60.34746142 82.63007026 64.66820467 88.8187852 69 95 C74.69853797 103.13147541 80.371884 111.28023925 86.0390625 119.43359375 C90.34781229 125.63054085 94.66837304 131.81902545 99 138 C104.01508445 145.15622781 109.01242802 152.32457117 114 159.5 C119.26198562 167.06869699 124.52998434 174.63311378 129.8125 182.1875 C130.39322266 183.01894531 130.97394531 183.85039062 131.57226562 184.70703125 C132.11173828 185.47789062 132.65121094 186.24875 133.20703125 187.04296875 C133.6760083 187.71352295 134.14498535 188.38407715 134.62817383 189.07495117 C135.60812076 190.45008582 136.62860956 191.7966909 137.67456055 193.12231445 C139 195 139 195 139 197 C140.21623047 197.14695312 140.21623047 197.14695312 141.45703125 197.296875 C159.21391439 199.69477773 173.56404043 206.84645344 185 221 C192.58356845 231.31104663 197.16192566 243.2740234 197.03672791 256.14317322 C197.04928404 267.91549047 201.30088339 276.34089544 206.9375 286.4375 C207.82249695 288.08098404 208.70430956 289.7261866 209.58300781 291.37304688 C211.28602294 294.55381937 213.00512256 297.72473077 214.74365234 300.88623047 C217.31195968 305.55680617 219.7883321 310.27257171 222.25 315 C222.99406816 316.40663295 223.73887646 317.81287461 224.484375 319.21875 C227.86661167 325.62305171 231.17767044 332.06449282 234.5 338.5 C238.63820636 346.51512752 242.78403241 354.52539011 247 362.5 C251.55174202 371.10973576 256.0208591 379.76163427 260.48876953 388.41503906 C264.29799211 395.79150879 268.1198112 403.16052423 272 410.5 C276.55174202 419.10973576 281.0208591 427.76163427 285.48876953 436.41503906 C289.29799211 443.79150879 293.1198112 451.16052423 297 458.5 C300.8808023 465.84063621 304.70312046 473.21086183 308.51287842 480.58853149 C316.54964952 496.21024709 316.54964952 496.21024709 324.75 511.74609375 C326.30347984 514.64418779 327.76589868 517.57030225 329.1875 520.53515625 C333.58562852 529.66305563 333.58562852 529.66305563 341.875 535.0625 C342.88820313 535.37703125 343.90140625 535.6915625 344.9453125 536.015625 C358.08060456 540.24848127 367.69865517 551.16389731 374 563 C381.0319398 579.06262218 382.61290971 595.68950946 377.3203125 612.640625 C371.38362001 627.74581892 360.13823736 641.23127181 345.04833984 647.85693359 C328.53713208 654.27728879 311.60201101 655.36083487 295.12109375 648.40625 C278.64431549 641.01184134 267.28272037 629.62050494 260.67358398 612.50317383 C258.16385573 605.27235473 257.55141078 598.25371678 257.5 590.625 C257.49355469 589.72209229 257.48710938 588.81918457 257.48046875 587.88891602 C257.61471663 580.85058353 259.19366536 574.60443937 261.7590332 568.06518555 C262.12433741 564.93437677 260.85646277 563.12425727 259.38671875 560.37109375 C258.80349854 559.2639502 258.22027832 558.15680664 257.61938477 557.01611328 C256.97560745 555.82314273 256.33164138 554.63027402 255.6875 553.4375 C255.03262098 552.20357285 254.37890258 550.96902905 253.72631836 549.73388672 C252.42320449 547.27176933 251.11380183 544.8131906 249.79785156 542.35791016 C247.53136877 538.12472109 245.29565731 533.8758219 243.0625 529.625 C242.67924561 528.89917725 242.29599121 528.17335449 241.90112305 527.42553711 C237.72174172 519.50453407 233.62027769 511.54326821 229.51150513 503.58551025 C225.70219163 496.20885697 221.88028455 488.83965687 218 481.5 C213.44825798 472.89026424 208.9791409 464.23836573 204.51123047 455.58496094 C200.70200789 448.20849121 196.8801888 440.83947577 193 433.5 C188.44825798 424.89026424 183.9791409 416.23836573 179.51123047 407.58496094 C175.32891619 399.48600793 171.12410106 391.40004027 166.85864258 383.34448242 C164.28407552 378.47113784 161.74887745 373.5783502 159.23046875 368.67578125 C158.55664989 367.36588065 157.88282171 366.05598485 157.20898438 364.74609375 C155.89002349 362.18164111 154.57564558 359.61490774 153.26367188 357.046875 C150.08671241 350.8543238 146.81065237 344.82848352 143 339 C136.77466364 346.62084102 130.55585605 354.24336472 124.5 362 C120.01803376 367.74013402 115.44043396 373.39693303 110.8359375 379.0390625 C107.34469917 383.32451618 103.90181112 387.64329453 100.5 392 C96.02377581 397.73270817 91.45267478 403.38271071 86.85351562 409.01708984 C82.73832338 414.06766479 78.6912161 419.16772984 74.68945312 424.30859375 C71.15076176 428.84650998 71.15076176 428.84650998 69.54296875 430.48339844 C67.892638 432.12714797 67.892638 432.12714797 66 435 C66.08969985 438.35151057 66.08969985 438.35151057 67 442 C68.25603338 461.45628325 65.88005594 478.19436629 52.5625 493.375 C51.06183124 494.93630184 49.54199333 496.47949787 48 498 C47.36320312 498.64710938 46.72640625 499.29421875 46.0703125 499.9609375 C33.78103568 511.63830012 18.42109073 514.51932908 2.0769043 514.41967773 C-5.22532779 514.22542624 -11.37753004 513.22608894 -18 510 C-19.10859375 509.46761719 -20.2171875 508.93523437 -21.359375 508.38671875 C-36.76543772 500.52683834 -46.74574748 488.69934666 -52.96484375 472.484375 C-57.1152349 459.09601644 -57.17849436 441.68312625 -51 429 C-50.46761719 427.89140625 -49.93523437 426.7828125 -49.38671875 425.640625 C-42.16326003 411.48200524 -31.18396136 400.65807003 -16 395 C-14.37771484 394.690625 -14.37771484 394.690625 -12.72265625 394.375 C-1.341134 392.16157689 3.05176309 386.08750491 9.48583984 377.09863281 C11.72902261 373.98957137 14.11491282 371.00055158 16.5 368 C17.39622304 366.85447145 18.29205205 365.70863453 19.1875 364.5625 C22.78740081 359.98080807 26.48011744 355.47506737 30.1640625 350.9609375 C33.65530083 346.67548382 37.09818888 342.35670547 40.5 338 C44.44195285 332.95153407 48.4504392 327.96253972 52.5 323 C57.06106076 317.4070068 61.60943802 311.80515703 66.01611328 306.08911133 C68.2705252 303.16590448 70.5698231 300.32410662 73.01171875 297.5546875 C77.98768936 292.2442689 77.98768936 292.2442689 80.05859375 285.609375 C79.24878975 283.25203978 78.17549893 281.19652524 77 279 C74.6129161 272.09597717 73.72137117 265.44695845 73.6875 258.1875 C73.67940308 257.12982422 73.67940308 257.12982422 73.67114258 256.05078125 C73.73519555 251.32757057 74.54296353 247.44076852 76 243 C75.40960938 242.77054688 74.81921875 242.54109375 74.2109375 242.3046875 C71.39090869 240.64057156 70.36279858 238.90075973 68.625 236.125 C64.99546964 230.4925066 61.2304453 224.98043702 57.375 219.5 C56.47297852 218.2150061 56.47297852 218.2150061 55.55273438 216.90405273 C54.31491843 215.14094927 53.07663355 213.37817495 51.83789062 211.61572266 C48.92921969 207.47604407 46.0266952 203.33207006 43.125 199.1875 C42.55313965 198.37087891 41.9812793 197.55425781 41.39208984 196.71289062 C36.23310796 189.3416892 31.09655874 181.95496528 25.96142578 174.56713867 C21.65253858 168.36992974 17.33179533 162.1812148 13 156 C7.98491569 148.84377239 2.98752299 141.67546271 -2 134.5 C-11.09976933 121.40939111 -20.24586713 108.35147314 -29.40136719 95.29980469 C-31.15253492 92.79991461 -32.89880867 90.29666318 -34.64453125 87.79296875 C-36.84902082 84.6333919 -39.07673199 81.49239729 -41.32421875 78.36328125 C-42.34124532 76.92975808 -43.35817752 75.49616795 -44.375 74.0625 C-44.84574951 73.41829102 -45.31649902 72.77408203 -45.80151367 72.11035156 C-47.55806078 69.61425838 -48.89819016 67.44550345 -49.58203125 64.453125 C-48.72914001 60.85838878 -46.63905662 58.45352171 -44.3125 55.6875 C-43.82209229 55.08429932 -43.33168457 54.48109863 -42.82641602 53.85961914 C-41.22814893 51.89752707 -39.61407036 49.94910211 -38 48 C-36.35819035 45.99062103 -34.72100928 43.97754204 -33.08447266 41.96386719 C-31.98135124 40.60663212 -30.87684523 39.25052131 -29.77099609 37.89550781 C-25.59882948 32.77405263 -21.55975486 27.56504736 -17.5546875 22.3125 C-14.11565251 17.82561266 -10.5663689 13.4263858 -7.02124023 9.02319336 C-4.62989099 6.0507611 -2.26124692 3.07376276 0 0 Z " fill="#FEFEFE" transform="translate(387,179)"/>
<path d="M0 0 C0.66 0 1.32 0 2 0 C2.21914063 0.82242187 2.43828125 1.64484375 2.6640625 2.4921875 C4.82900217 10.11347919 7.44612778 16.50929098 12 23 C12.41636719 23.61230469 12.83273437 24.22460938 13.26171875 24.85546875 C21.09212929 35.13141291 32.98812658 40.41624766 45 44 C44 46 44 46 41.2265625 47.0078125 C40.03804687 47.37648438 38.84953125 47.74515625 37.625 48.125 C23.99529743 52.71230385 13.25410962 62.3419764 6.5625 75.0625 C4.25883706 79.99527411 2.89345332 84.63928009 2 90 C1.34 90 0.68 90 0 90 C-0.20625 88.7625 -0.4125 87.525 -0.625 86.25 C-3.91245918 71.88425372 -13.2451709 60.45271067 -25.4140625 52.4296875 C-29.75263571 50.03102014 -34.3005897 48.52315756 -39 47 C-40.67156372 46.34570881 -42.33978188 45.68256723 -44 45 C-40.78441569 43.27268373 -37.5175762 42.16165726 -34.0625 41 C-19.56343911 35.42845076 -9.73284241 25.13286176 -3.0625 11.1875 C-1.48010508 7.48108506 -0.32861523 4.05292116 0 0 Z " fill="#FBE245" transform="translate(748,320)"/>
<path d="M0 0 C1.86265786 2.7939868 2.45738047 4.39710277 3.25 7.5625 C7.16338503 20.95756917 16.90123864 32.22401773 29 39 C32.37070538 40.45063462 35.75081176 41.74730375 39.21484375 42.95703125 C42 44 42 44 45 46 C44.29875 46.24234375 43.5975 46.4846875 42.875 46.734375 C27.4335781 52.18922513 14.6012312 59.95653239 6.46484375 74.80078125 C3.95543216 80.09029898 2.18860349 85.27309229 1 91 C-0.74093016 87.74555848 -1.91480115 84.4199953 -3.125 80.9375 C-8.94460352 65.83021528 -19.74961042 55.96828208 -34.25 49.15234375 C-37.47949252 47.79907629 -40.5883865 46.77536671 -44 46 C-41.41146147 43.41146147 -39.12187046 43.01435084 -35.625 41.9375 C-21.91661981 37.34912122 -11.67561666 27.74943484 -5.1875 15 C-2.78531476 10.10113227 -0.96822066 5.37900367 0 0 Z " fill="#FBE245" transform="translate(201,538)"/>
<path d="M0 0 C0 3 0 3 -2.40625 5.69921875 C-3.4299968 6.70302243 -4.4616054 7.69885649 -5.5 8.6875 C-6.02464844 9.19861328 -6.54929687 9.70972656 -7.08984375 10.23632812 C-8.38660904 11.49772708 -9.69246117 12.74977212 -11 14 C-11.66 13.67 -12.32 13.34 -13 13 C-11.58791833 11.39179588 -10.17013964 9.78859292 -8.75 8.1875 C-7.96109375 7.29417969 -7.1721875 6.40085937 -6.359375 5.48046875 C-4.34120555 3.35871775 -2.40083295 1.65745577 0 0 Z " fill="#8BAE4C" transform="translate(444,112)"/>
</svg>
