<?xml version="1.0" encoding="UTF-8"?>
<svg version="1.1" xmlns="http://www.w3.org/2000/svg" width="512" height="512">
<path d="M0 0 C7.34723672 -0.09219258 14.69243911 -0.17172659 22.03979492 -0.21972656 C24.53530709 -0.23975138 27.03077288 -0.26697941 29.52612305 -0.30175781 C33.12820941 -0.3506777 36.72967146 -0.37306113 40.33203125 -0.390625 C41.43456741 -0.41127014 42.53710358 -0.43191528 43.67304993 -0.45318604 C54.79751592 -0.45635596 63.63734503 2.65153935 72 10 C72.60585938 10.50144531 73.21171875 11.00289062 73.8359375 11.51953125 C80.23039649 17.2577903 85.53425478 26.21208453 86.13307858 34.93952847 C86.13693349 35.61951932 86.1407884 36.29951017 86.14476013 37.00010681 C86.15165863 37.78616302 86.15855713 38.57221924 86.16566467 39.38209534 C86.16827805 40.23561081 86.17089142 41.08912628 86.17358398 41.96850586 C86.180271 42.87479736 86.18695801 43.78108887 86.19384766 44.71484375 C86.20789044 46.68294371 86.21978695 48.65105988 86.22979546 50.61918449 C86.24624827 53.74419334 86.26949256 56.86908399 86.29469299 59.99403381 C86.36531781 68.87950702 86.42530246 77.76503063 86.47680664 86.65063477 C86.50880585 92.08885686 86.55014123 97.52694595 86.59700203 102.96505928 C86.61290758 105.02806743 86.6252812 107.09110621 86.63390923 109.15415764 C86.70184389 136.05340909 86.70184389 136.05340909 100.26171875 158.6640625 C108.42869029 165.63103679 117.96166521 168.97594364 128.61328125 169.31640625 C129.73774658 169.35451416 130.86221191 169.39262207 132.02075195 169.43188477 C133.43702881 169.47498779 134.85330566 169.51809082 136.3125 169.5625 C140.829375 169.706875 145.34625 169.85125 150 170 C150 184.52 150 199.04 150 214 C136.625 214.3125 136.625 214.3125 132.47119141 214.38793945 C119.93976758 214.76110386 109.22674323 217.39341513 99.76953125 226.0390625 C86.52120426 240.10764238 86.71287985 256.39936425 86.72560501 274.63188553 C86.7265826 277.72773067 86.71348607 280.8232402 86.69662476 283.91903687 C86.65070827 292.71129862 86.62574429 301.50352055 86.61914062 310.29589844 C86.61410709 315.69917909 86.58977585 321.1021015 86.55381393 326.50526047 C86.54407052 328.55038674 86.54165388 330.59556258 86.54698563 332.64070511 C86.58295379 347.10491672 85.95258123 358.67381797 76 370 C75.49855469 370.60585938 74.99710937 371.21171875 74.48046875 371.8359375 C68.9821 377.96307348 61.09533613 382.3716771 53 384 C51.2285438 384.08544597 49.45417478 384.11774804 47.68066406 384.11352539 C46.61986633 384.11344986 45.5590686 384.11337433 44.46612549 384.11329651 C42.75812775 384.10555458 42.75812775 384.10555458 41.015625 384.09765625 C39.84489441 384.0962413 38.67416382 384.09482635 37.46795654 384.09336853 C33.72861171 384.0877709 29.98932674 384.0752188 26.25 384.0625 C23.71484461 384.0574847 21.17968829 384.05292184 18.64453125 384.04882812 C12.42964588 384.03865313 6.21488996 384.01907708 0 384 C0 369.81 0 355.62 0 341 C14.19 341 28.38 341 43 341 C42.9685791 335.91416504 42.9685791 335.91416504 42.93652344 330.72558594 C42.87009518 319.49393858 42.82579712 308.26227561 42.79275131 297.03048325 C42.77219008 290.2239958 42.74419412 283.41769543 42.69824219 276.61132812 C42.65387591 270.03665122 42.63082824 263.46209524 42.62049103 256.8872757 C42.61312892 254.38518475 42.59875275 251.8831038 42.57707977 249.38109589 C42.5478301 245.8628844 42.54405311 242.34546291 42.54589844 238.82714844 C42.53151733 237.80430756 42.51713623 236.78146667 42.50231934 235.72763062 C42.57123509 223.49887042 46.68450834 212.80888944 55 203.84375 C61.06395497 198.03967881 68.38360296 193 77 193 C77 192.34 77 191.68 77 191 C76.071875 190.95875 75.14375 190.9175 74.1875 190.875 C65.44304473 189.59791931 57.38457831 183.81506778 52 177 C44.89228175 167.03575196 42.53240295 157.53021824 42.65942383 145.39990234 C42.65876671 143.72985138 42.65876671 143.72985138 42.65809631 142.02606201 C42.66017122 138.37916979 42.68344127 134.73274852 42.70703125 131.0859375 C42.71263181 128.54432425 42.71689973 126.00270774 42.71989441 123.46109009 C42.73014308 117.47603166 42.75373997 111.49117258 42.78394288 105.50619376 C42.817604 98.68628451 42.83400217 91.86636685 42.84902918 85.04639506 C42.88029352 71.03082121 42.93525811 57.01545714 43 43 C28.81 43 14.62 43 0 43 C0 28.81 0 14.62 0 0 Z " fill="#FAC02C" transform="translate(362,64)"/>
<path d="M0 0 C1.06079773 0.00007553 2.12159546 0.00015106 3.21453857 0.00022888 C4.35320374 0.00539017 5.4918689 0.01055145 6.66503906 0.01586914 C7.83576965 0.01728409 9.00650024 0.01869904 10.21270752 0.02015686 C13.95205235 0.0257545 17.69133732 0.03830659 21.43066406 0.05102539 C23.96581945 0.05604069 26.50097577 0.06060355 29.03613281 0.06469727 C35.25101819 0.07487226 41.4657741 0.09444831 47.68066406 0.11352539 C47.68066406 14.30352539 47.68066406 28.49352539 47.68066406 43.11352539 C33.49066406 43.11352539 19.30066406 43.11352539 4.68066406 43.11352539 C4.71208496 48.19936035 4.71208496 48.19936035 4.74414062 53.38793945 C4.81056889 64.61958681 4.85486694 75.85124978 4.88791275 87.08304214 C4.90847398 93.88952959 4.93646994 100.69582996 4.98242188 107.50219727 C5.02678816 114.07687417 5.04983582 120.65143015 5.06017303 127.22624969 C5.06753514 129.72834064 5.08191131 132.23042159 5.10358429 134.7324295 C5.13283396 138.25064099 5.13661096 141.76806248 5.13476562 145.28637695 C5.14914673 146.30921783 5.16352783 147.33205872 5.17834473 148.38589478 C5.10942897 160.61465497 0.99615572 171.30463595 -7.31933594 180.26977539 C-13.38329091 186.07384658 -20.7029389 191.11352539 -29.31933594 191.11352539 C-29.31933594 191.77352539 -29.31933594 192.43352539 -29.31933594 193.11352539 C-28.39121094 193.15477539 -27.46308594 193.19602539 -26.50683594 193.23852539 C-17.76238067 194.51560608 -9.70391425 200.29845761 -4.31933594 207.11352539 C2.78838231 217.07777343 5.14826111 226.58330715 5.02124023 238.71362305 C5.02189735 240.38367401 5.02189735 240.38367401 5.02256775 242.08746338 C5.02049285 245.7343556 4.99722279 249.38077687 4.97363281 253.02758789 C4.96803225 255.56920114 4.96376433 258.11081765 4.96076965 260.6524353 C4.95052098 266.63749373 4.92692409 272.62235281 4.89672118 278.60733163 C4.86306006 285.42724088 4.84666189 292.24715854 4.83163488 299.06713033 C4.80037054 313.08270418 4.74540595 327.09806825 4.68066406 341.11352539 C18.87066406 341.11352539 33.06066406 341.11352539 47.68066406 341.11352539 C47.68066406 355.30352539 47.68066406 369.49352539 47.68066406 384.11352539 C41.22402964 384.22905165 34.77105804 384.32836694 28.31420898 384.38818359 C26.12332938 384.41314767 23.93253151 384.44713132 21.74194336 384.49072266 C-1.37623949 384.93885163 -1.37623949 384.93885163 -12.31933594 379.11352539 C-13.15770996 378.71415771 -13.99608398 378.31479004 -14.85986328 377.90332031 C-25.32066359 372.83707645 -32.78325685 364.7423454 -37.31933594 354.11352539 C-38.56416325 349.85160542 -38.47927732 345.64361387 -38.49291992 341.23681641 C-38.49960693 340.34027847 -38.50629395 339.44374054 -38.51318359 338.52003479 C-38.52722575 336.5732159 -38.53912246 334.62638062 -38.54913139 332.67953682 C-38.56558564 329.5881323 -38.58883003 326.49684719 -38.61402893 323.40550232 C-38.68464939 314.6156108 -38.74463379 305.82566834 -38.79614258 297.03564453 C-38.82814536 291.65577631 -38.86948164 286.27604244 -38.91633797 280.8962841 C-38.93224152 278.8556049 -38.94461603 276.81489476 -38.95324516 274.77417183 C-39.04541254 247.97311771 -39.04541254 247.97311771 -52.58105469 225.44946289 C-60.74802622 218.4824886 -70.28100115 215.13758175 -80.93261719 214.79711914 C-82.05708252 214.75901123 -83.18154785 214.72090332 -84.34008789 214.68164062 C-85.75636475 214.6385376 -87.1726416 214.59543457 -88.63183594 214.55102539 C-93.14871094 214.40665039 -97.66558594 214.26227539 -102.31933594 214.11352539 C-102.31933594 199.59352539 -102.31933594 185.07352539 -102.31933594 170.11352539 C-88.94433594 169.80102539 -88.94433594 169.80102539 -84.79052734 169.72558594 C-72.27234085 169.35281571 -61.43914464 166.74231281 -52.05371094 158.00415039 C-47.81948908 153.45628247 -44.64568461 148.87400783 -42.31933594 143.11352539 C-41.92746094 142.14415039 -41.53558594 141.17477539 -41.13183594 140.17602539 C-39.25404854 133.09821136 -39.17289877 125.82889458 -39.17749023 118.5456543 C-39.17401581 117.63542007 -39.17054138 116.72518585 -39.16696167 115.78736877 C-39.15965599 113.82643864 -39.15428325 111.86550051 -39.15067101 109.90456009 C-39.1434437 106.79229457 -39.12773227 103.68018114 -39.10932922 100.56796265 C-39.05714435 91.72444708 -39.00889821 82.88101989 -38.9934082 74.03735352 C-38.98328795 68.61272626 -38.95386929 63.18849092 -38.91208839 57.76401901 C-38.89983984 55.70773669 -38.89464581 53.65139891 -38.89688683 51.59508133 C-38.90880443 37.09576238 -38.29621805 25.46736217 -28.31933594 14.11352539 C-27.81789063 13.50766602 -27.31644531 12.90180664 -26.79980469 12.27758789 C-19.99915362 4.6992468 -10.17535731 -0.02422704 0 0 Z " fill="#FAC02C" transform="translate(102.3193359375,63.886474609375)"/>
<path d="M0 0 C5.30020616 3.15174783 9.22263819 7.33459586 11.79296875 12.96484375 C13.52331869 20.83007076 12.47917854 27.09794769 8.48046875 34.08984375 C4.42861931 38.75619168 -0.13516206 41.68838754 -6.3515625 42.42578125 C-12.97503579 42.51258955 -18.11075124 42.14013948 -23.51953125 38.08984375 C-28.88783651 32.84083416 -31.14133114 27.49364474 -31.95703125 20.15234375 C-31.69181113 14.52746706 -29.65203841 9.41036778 -25.8359375 5.2578125 C-18.45660835 -1.26456229 -9.64671512 -3.48478236 0 0 Z " fill="#FBC02C" transform="translate(265.51953125,320.91015625)"/>
<path d="M0 0 C5.4887219 3.97932338 9.43685851 8.3031231 11.5 14.8125 C12.3969215 21.02753184 12.01429931 26.5384707 8.8359375 32.02734375 C4.78057193 37.44635564 -0.24942896 41.19221698 -7.04296875 42.18359375 C-14.20920869 42.36354365 -19.63285444 41.05164481 -25.5 36.8125 C-31.20643336 30.81746541 -31.86691848 25.0774208 -31.76953125 17.109375 C-31.31024245 11.49140764 -29.71748567 7.84705426 -25.55859375 4.03125 C-17.99997749 -1.87087393 -9.21371181 -3.12608079 0 0 Z " fill="#FBC02C" transform="translate(351.5,321.1875)"/>
<path d="M0 0 C5.09620539 3.01237564 8.70841667 7.93775001 10.5625 13.5 C11.16522587 22.18157077 11.08890385 28.26831538 5.375 35.125 C-0.64379451 40.20753758 -5.80364959 42.2201236 -13.76171875 41.87890625 C-20.60746991 40.90950791 -24.87540611 37.59849851 -29.2109375 32.37890625 C-32.91296013 26.7079735 -33.28469256 21.09221707 -32.4375 14.5 C-30.18022262 7.37546829 -26.87333309 3.19464492 -20.4375 -0.5 C-14.1537238 -2.59459207 -6.12809057 -2.6958848 0 0 Z " fill="#FBC02C" transform="translate(181.4375,321.5)"/>
</svg>
