<?xml version="1.0" encoding="UTF-8"?>
<svg version="1.1" xmlns="http://www.w3.org/2000/svg" width="512" height="512">
<path d="M0 0 C140.91 0 281.82 0 427 0 C429.619375 60.905625 432.23875 121.81125 434.9375 184.5625 C436.0937085 203.50599854 437.24991699 222.44949707 438.44116211 241.96704102 C441.24709644 319.33037382 439.9181064 388.38281387 385.10256076 448.05803943 C342.3718224 493.65540914 295.09767185 521.91519537 231.88563728 524.21066093 C206.92070902 524.93509345 182.09488578 523.29959403 157.23797745 521.14757067 C145.23162084 520.11978592 133.23832306 519.44194693 121.19750977 518.97631836 C120.32629453 518.94228269 119.45507929 518.90824702 118.55746359 518.87317997 C111.73090051 518.60866411 104.90377447 518.3602864 98.0764271 518.11695039 C65.29283706 516.9444662 32.7608663 514.39162484 0 512 C0 441.71 0 371.42 0 299 C-28.05 299 -56.1 299 -85 299 C-85 235.31 -85 171.62 -85 106 C-56.95 106 -28.9 106 0 106 C0 71.02 0 36.04 0 0 Z " fill="#ECEBEB" transform="translate(85,0)"/>
<path d="M0 0 C140.91 0 281.82 0 427 0 C429.619375 60.905625 432.23875 121.81125 434.9375 184.5625 C436.0937085 203.50599854 437.24991699 222.44949707 438.44116211 241.96704102 C441.24709644 319.33037382 439.9181064 388.38281387 385.10256076 448.05803943 C342.3718224 493.65540914 295.09767185 521.91519537 231.88563728 524.21066093 C206.92070902 524.93509345 182.09488578 523.29959403 157.23797745 521.14757067 C145.23162084 520.11978592 133.23832306 519.44194693 121.19750977 518.97631836 C120.32629453 518.94228269 119.45507929 518.90824702 118.55746359 518.87317997 C111.73090051 518.60866411 104.90377447 518.3602864 98.0764271 518.11695039 C65.29283706 516.9444662 32.7608663 514.39162484 0 512 C0 441.71 0 371.42 0 299 C-28.05 299 -56.1 299 -85 299 C-85 235.31 -85 171.62 -85 106 C-56.95 106 -28.9 106 0 106 C0 71.02 0 36.04 0 0 Z M21 21 C21 49.38 21 77.76 21 107 C105.48 107 189.96 107 277 107 C277 170.03 277 233.06 277 298 C258.60378906 297.98839844 240.20757812 297.97679687 221.25390625 297.96484375 C209.6373697 297.95973751 198.02083383 297.95487644 186.40429688 297.95117188 C180.30525713 297.94921386 174.20621742 297.94719334 168.10717773 297.94506836 C166.96048073 297.94467274 166.96048073 297.94467274 165.79061812 297.94426912 C153.43266754 297.93991427 141.07472159 297.93202741 128.71677376 297.9228472 C116.04368015 297.91351108 103.37058897 297.90794448 90.69749206 297.90591151 C82.87118202 297.90453619 75.04488506 297.90018515 67.21857905 297.89208353 C61.22754191 297.88619591 55.23651614 297.88554093 49.24547577 297.88689232 C46.78029487 297.88661579 44.3151135 297.88460803 41.84993553 297.88079453 C38.50028519 297.87586425 35.15069214 297.87699924 31.80104065 297.87974548 C30.81176168 297.87683264 29.8224827 297.8739198 28.80322558 297.87091869 C27.4678402 297.87390526 27.4678402 297.87390526 26.10547733 297.87695217 C25.33122758 297.87657245 24.55697783 297.87619273 23.75926596 297.8758015 C21.97273041 297.80875101 21.97273041 297.80875101 21 299 C20.90228517 301.47891363 20.87003828 303.92995348 20.87974548 306.40931702 C20.87888947 307.19231171 20.87803345 307.9753064 20.87715149 308.7820282 C20.87548619 311.43421652 20.88103623 314.08634277 20.88647461 316.73852539 C20.8867807 318.6610104 20.88664787 320.58349553 20.88610935 322.50598049 C20.88588278 327.6731732 20.89169558 332.84034294 20.89871979 338.00753021 C20.90439771 342.84905574 20.90468198 347.69057557 20.90539551 352.53210449 C20.91065128 366.70890606 20.92461231 380.88570332 20.9375 395.0625 C20.958125 426.721875 20.97875 458.38125 21 491 C105.81 491 190.62 491 278 491 C278 448.76 278 406.52 278 363 C320.24 363 362.48 363 406 363 C406 250.14 406 137.28 406 21 C278.95 21 151.9 21 21 21 Z " fill="#010101" transform="translate(85,0)"/>
<path d="M0 0 C105.27 0 210.54 0 319 0 C319 49.17 319 98.34 319 149 C213.73 149 108.46 149 0 149 C0 99.83 0 50.66 0 0 Z " fill="#CB5642" transform="translate(22,128)"/>
<path d="M0 0 C8.91 0 17.82 0 27 0 C28.3322516 4.66288061 29.46969289 9.03426493 30.3671875 13.76171875 C30.61130371 15.0367627 30.85541992 16.31180664 31.10693359 17.62548828 C31.36305733 18.97947297 31.61907757 20.33347725 31.875 21.6875 C32.40492213 24.4703062 32.93673656 27.2527492 33.46875 30.03515625 C33.59937836 30.71991028 33.73000671 31.40466431 33.86459351 32.11016846 C34.6436238 36.18198643 35.44794348 40.2475514 36.28125 44.30859375 C36.4683252 45.2210083 36.65540039 46.13342285 36.84814453 47.07348633 C37.18893042 48.72388176 37.53340982 50.37352069 37.88232422 52.0222168 C38.64648527 55.73567759 39.19505621 59.20390599 39 63 C39.66 63 40.32 63 41 63 C41.04608398 62.328479 41.09216797 61.65695801 41.13964844 60.96508789 C41.66268446 54.28824255 42.73105208 47.95292591 44.25 41.4375 C46.50782381 31.44237747 48.50331588 21.4134598 50.38769531 11.34155273 C50.58459961 10.29555908 50.78150391 9.24956543 50.984375 8.171875 C51.15678711 7.2447168 51.32919922 6.31755859 51.50683594 5.36230469 C52 3 52 3 53 0 C62.24 0 71.48 0 81 0 C81 30.36 81 60.72 81 92 C75.39 92 69.78 92 64 92 C63.67 68.9 63.34 45.8 63 22 C61.63875 28.373125 60.2775 34.74625 58.875 41.3125 C56.10691255 54.23425753 53.33851235 67.15599853 50.5 80.0625 C50.25749512 81.17729736 50.01499023 82.29209473 49.76513672 83.44067383 C49.5435791 84.44122803 49.32202148 85.44178223 49.09375 86.47265625 C48.90490234 87.33125244 48.71605469 88.18984863 48.52148438 89.07446289 C48 91 48 91 47 92 C44.64686445 92.07271741 42.29166332 92.08370868 39.9375 92.0625 C38.00197266 92.04896484 38.00197266 92.04896484 36.02734375 92.03515625 C35.02832031 92.02355469 34.02929688 92.01195312 33 92 C31.63588817 88.06474172 30.50721801 84.16880593 29.59545898 80.10571289 C29.33856796 78.9675563 29.08167694 77.82939972 28.81700134 76.65675354 C28.54610184 75.44100143 28.27520233 74.22524933 27.99609375 72.97265625 C27.71274673 71.71037704 27.42939972 70.44809784 27.13746643 69.14756775 C26.53959188 66.48269272 25.94391977 63.81733783 25.34985352 61.15161133 C24.59173438 57.75044371 23.82842014 54.35046771 23.06347561 50.95082951 C22.32997953 47.68787494 21.60070611 44.42398146 20.87109375 41.16015625 C20.59817001 39.94642838 20.32524628 38.7327005 20.04405212 37.48219299 C19.79031326 36.34088425 19.5365744 35.1995755 19.27514648 34.02368164 C19.0524559 33.02695938 18.82976532 32.03023712 18.60032654 31.00331116 C17.93843012 27.69197847 17.47755693 24.3428985 17 21 C16.67 44.1 16.34 67.2 16 91 C10.72 91 5.44 91 0 91 C0 60.97 0 30.94 0 0 Z " fill="#FDFBFB" transform="translate(66,157)"/>
<path d="M0 0 C43.86956522 0 43.86956522 0 52 8 C59.58419765 18.95495216 60.19743298 31.05537087 60.25 44 C60.270625 45.23878906 60.29125 46.47757813 60.3125 47.75390625 C60.36037156 59.23111328 59.26153565 71.08791653 53 81 C52.46375 81.886875 51.9275 82.77375 51.375 83.6875 C37.34897756 97.34441658 18.53284534 91 0 91 C0 60.97 0 30.94 0 0 Z " fill="#FEFCFC" transform="translate(174,157)"/>
<path d="M0 0 C32.01 0 64.02 0 97 0 C90.24974291 7.87529994 90.24974291 7.87529994 86.86845398 11.25852966 C86.10437729 12.02542618 85.3403006 12.79232269 84.55307007 13.5824585 C83.7346463 14.39885803 82.91622253 15.21525757 82.07299805 16.05639648 C80.75736122 17.37466179 80.75736122 17.37466179 79.41514587 18.71955872 C77.02894914 21.10938189 74.64055112 23.49696 72.25094962 25.88337588 C69.74618445 28.3855963 67.2438746 30.89027027 64.74116516 33.39454651 C60.54595409 37.59157109 56.34865131 41.78649513 52.15014648 45.98022461 C47.29141977 50.83348896 42.43633467 55.69037399 37.58308381 60.54911369 C33.41157011 64.7251565 29.23812211 68.8992587 25.06303245 73.07172638 C22.57097374 75.56222394 20.07960087 78.05339746 17.58997154 80.54632378 C14.82284145 83.31686331 12.05166003 86.08332775 9.2800293 88.84936523 C8.45148438 89.67993439 7.62293945 90.51050354 6.76928711 91.36624146 C6.01930954 92.1133992 5.26933197 92.86055695 4.49662781 93.63035583 C3.84165156 94.28495505 3.18667532 94.93955427 2.51185131 95.61398983 C1 97 1 97 0 97 C0 64.99 0 32.98 0 0 Z " fill="#AAAAAA" transform="translate(384,384)"/>
<path d="M0 0 C14.89189189 0 14.89189189 0 19 4 C24.5569802 11.08994025 23.1862733 21.13939359 23.18530273 29.70556641 C23.18748735 31.8625061 23.20568102 34.01893181 23.22460938 36.17578125 C23.29624404 53.402551 23.29624404 53.402551 19.125 59.9375 C13.04417709 65.83947518 9.48199046 64 0 64 C0 42.88 0 21.76 0 0 Z " fill="#CB5641" transform="translate(192,171)"/>
</svg>
