<?xml version="1.0" encoding="UTF-8"?>
<svg version="1.1" xmlns="http://www.w3.org/2000/svg" width="1080" height="1080">
<path d="M0 0 C1.68378746 -0.00480972 1.68378746 -0.00480972 3.40159082 -0.0097166 C7.1540878 -0.01800222 10.90642458 -0.01209723 14.6589241 -0.00622082 C17.38009919 -0.00813675 20.10126708 -0.01305088 22.82243848 -0.01781338 C28.73432469 -0.02655909 34.64617625 -0.0278933 40.55806732 -0.02431011 C49.34956369 -0.0189957 58.14102661 -0.02510586 66.93251934 -0.03339304 C83.5490365 -0.04862603 100.1655384 -0.05033882 116.78206107 -0.04787002 C129.61491103 -0.04603663 142.44775599 -0.04779792 155.28060532 -0.05209446 C157.12496611 -0.05269686 158.9693269 -0.05329806 160.8136877 -0.05389806 C163.59304762 -0.05480533 166.37240754 -0.05571399 169.15176746 -0.05663041 C194.99021663 -0.06505899 220.82866391 -0.06939631 246.66711426 -0.06522369 C248.12793924 -0.06498913 248.12793924 -0.06498913 249.61827583 -0.06474983 C254.55417983 -0.06394406 259.49008382 -0.06309829 264.42598781 -0.06223653 C265.40625429 -0.06206544 266.38652077 -0.06189435 267.3964923 -0.06171808 C269.37882902 -0.06137142 271.36116574 -0.06102289 273.34350247 -0.06067249 C304.18606073 -0.05531574 335.02859041 -0.06324478 365.87114334 -0.08170605 C400.53250089 -0.10242887 435.19384073 -0.1131482 469.85520482 -0.10913056 C473.55211973 -0.10873522 477.24903464 -0.10837367 480.94594955 -0.10803318 C481.85620602 -0.10794245 482.76646249 -0.10785172 483.70430249 -0.10775824 C497.43683142 -0.10659297 511.16934245 -0.11323519 524.90186691 -0.1238451 C540.5229561 -0.13590192 556.1440059 -0.13745052 571.76509568 -0.12505493 C580.50253396 -0.11843165 589.239878 -0.12004513 597.97730872 -0.13364345 C603.82019814 -0.14190183 609.66301714 -0.13917239 615.50590086 -0.12766818 C618.8306885 -0.1214254 622.15514311 -0.12144556 625.47994336 -0.13153151 C659.51536415 -0.22759519 686.93599575 8.01473525 711.63090897 32.19197559 C730.40983564 51.16379579 740.74935028 77.28579798 740.63538456 103.87356663 C740.64019428 105.55735409 740.64019428 105.55735409 740.64510116 107.27515745 C740.65338678 111.02765443 740.64748179 114.77999121 740.64160538 118.53249073 C740.6435213 121.25366582 740.64843544 123.97483371 740.65319794 126.69600511 C740.66194365 132.60789132 740.66327786 138.51974288 740.65969467 144.43163395 C740.65438026 153.22313032 740.66049042 162.01459324 740.6687776 170.80608597 C740.68401059 187.42260312 740.68572338 204.03910503 740.68325458 220.6556277 C740.68142119 233.48847765 740.68318248 246.32132261 740.68747902 259.15417194 C740.68808142 260.99853274 740.68868262 262.84289353 740.68928262 264.68725432 C740.69018989 267.46661425 740.69109855 270.24597417 740.69201497 273.02533409 C740.70044355 298.86378325 740.70478087 324.70223054 740.70060825 350.54068089 C740.70045188 351.5145642 740.7002955 352.48844752 740.70013439 353.49184246 C740.69932862 358.42774646 740.69848285 363.36365045 740.69762108 368.29955444 C740.69745 369.27982092 740.69727891 370.2600874 740.69710264 371.27005893 C740.69675598 373.25239565 740.69640745 375.23473237 740.69605705 377.21706909 C740.6907003 408.05962736 740.69862934 438.90215703 740.71709061 469.74470997 C740.73781343 504.40606752 740.74853276 539.06740736 740.74451512 573.72877145 C740.74411978 577.42568636 740.74375823 581.12260127 740.74341774 584.81951618 C740.74332701 585.72977265 740.74323628 586.64002912 740.7431428 587.57786912 C740.74197753 601.31039805 740.74861975 615.04290908 740.75922966 628.77543354 C740.77128648 644.39652273 740.77283508 660.01757253 740.76043949 675.63866231 C740.75381621 684.37610059 740.75542969 693.11344462 740.76902801 701.85087534 C740.77728639 707.69376477 740.77455695 713.53658376 740.76305274 719.37946749 C740.75680996 722.70425513 740.75683012 726.02870973 740.76691607 729.35350999 C740.86297975 763.38893078 732.62064931 790.80956238 708.44340897 815.50447559 C689.47158877 834.28340227 663.34958658 844.62291691 636.76181793 844.50895119 C635.07803047 844.5137609 635.07803047 844.5137609 633.36022711 844.51866779 C629.60773013 844.52695341 625.85539335 844.52104841 622.10289383 844.515172 C619.38171874 844.51708793 616.66055085 844.52200207 613.93937945 844.52676457 C608.02749324 844.53551028 602.11564168 844.53684449 596.20375061 844.5332613 C587.41225424 844.52794689 578.62079132 844.53405705 569.82929859 844.54234423 C553.21278144 844.55757722 536.59627953 844.55929 519.97975686 844.5568212 C507.14690691 844.55498782 494.31406195 844.55674911 481.48121262 844.56104565 C479.63685182 844.56164805 477.79249103 844.56224925 475.94813024 844.56284925 C473.16877031 844.56375651 470.38941039 844.56466518 467.61005047 844.5655816 C441.7716013 844.57401018 415.93315402 844.5783475 390.09470367 844.57417488 C389.12082036 844.5740185 388.14693704 844.57386213 387.1435421 844.57370101 C382.2076381 844.57289524 377.27173411 844.57204947 372.33583012 844.57118771 C371.35556364 844.57101662 370.37529716 844.57084554 369.36532563 844.57066926 C367.38298891 844.57032261 365.40065219 844.56997408 363.41831547 844.56962368 C332.5757572 844.56426693 301.73322752 844.57219597 270.89067459 844.59065723 C236.22931704 844.61138006 201.5679772 844.62209938 166.90661311 844.61808175 C163.2096982 844.61768641 159.51278329 844.61732486 155.81586838 844.61698437 C154.90561191 844.61689364 153.99535544 844.6168029 153.05751544 844.61670942 C139.32498651 844.61554416 125.59247548 844.62218638 111.85995102 844.63279629 C96.23886183 844.6448531 80.61781203 844.64640171 64.99672225 844.63400612 C56.25928397 844.62738284 47.52193993 844.62899632 38.78450922 844.64259463 C32.94161979 844.65085302 27.09880079 844.64812358 21.25591707 844.63661937 C17.93112943 844.63037659 14.60667483 844.63039674 11.28187457 844.6404827 C-22.75354622 844.73654637 -50.17417782 836.49421594 -74.86909103 812.31697559 C-93.64801771 793.34515539 -103.98753235 767.22315321 -103.87356663 740.63538456 C-103.87677311 739.51285959 -103.87997958 738.39033462 -103.88328323 737.23379374 C-103.89156885 733.48129676 -103.88566385 729.72895998 -103.87978745 725.97646046 C-103.88170337 723.25528537 -103.88661751 720.53411748 -103.89138001 717.81294608 C-103.90012572 711.90105987 -103.90145993 705.98920831 -103.89787674 700.07731724 C-103.89256233 691.28582087 -103.89867249 682.49435795 -103.90695967 673.70286522 C-103.92219266 657.08634806 -103.92390544 640.46984616 -103.92143665 623.85332349 C-103.91960326 611.02047353 -103.92136455 598.18762857 -103.92566109 585.35477924 C-103.92626349 583.51041845 -103.92686469 581.66605766 -103.92746469 579.82169686 C-103.92837195 577.04233694 -103.92928062 574.26297702 -103.93019704 571.4836171 C-103.93862562 545.64516793 -103.94296294 519.80672065 -103.93879032 493.9682703 C-103.93863395 492.99438698 -103.93847757 492.02050366 -103.93831645 491.01710873 C-103.93751068 486.08120473 -103.93666491 481.14530074 -103.93580315 476.20939675 C-103.93563206 475.22913027 -103.93546098 474.24886379 -103.9352847 473.23889226 C-103.93493805 471.25655554 -103.93458952 469.27421882 -103.93423912 467.29188209 C-103.92888237 436.44932383 -103.93681141 405.60679415 -103.95527267 374.76424122 C-103.9759955 340.10288367 -103.98671482 305.44154383 -103.98269719 270.78017974 C-103.98230185 267.08326483 -103.9819403 263.38634992 -103.98159981 259.68943501 C-103.98150908 258.77917854 -103.98141834 257.86892207 -103.98132486 256.93108207 C-103.9801596 243.19855314 -103.98680182 229.46604211 -103.99741173 215.73351765 C-104.00946854 200.11242845 -104.01101715 184.49137866 -103.99862156 168.87028888 C-103.99199828 160.1328506 -103.99361176 151.39550656 -104.00721008 142.65807584 C-104.01546846 136.81518642 -104.01273902 130.97236742 -104.00123481 125.1294837 C-103.99499203 121.80469606 -103.99501218 118.48024145 -104.00509814 115.15544119 C-104.10116181 81.12002041 -95.85883138 53.69938881 -71.68159103 29.00447559 C-52.70977083 10.22554892 -26.58776865 -0.11396572 0 0 Z " fill="#728ACE" transform="translate(221.61909103393555,117.7455244064331)"/>
<path d="M0 0 C0.90492188 0.79019531 1.80984375 1.58039063 2.7421875 2.39453125 C3.70898438 3.21566406 4.67578125 4.03679687 5.671875 4.8828125 C25.24493709 22.04101628 40.12281407 45.22573957 43.7421875 71.39453125 C45.35643123 104.8812714 40.95523437 137.76236981 17.7421875 163.39453125 C9.85139844 171.95646292 1.34361653 179.49290174 -7.85400391 186.63378906 C-12.0094299 189.86161048 -16.14796291 193.10880052 -20.2578125 196.39453125 C-20.8986377 196.90532227 -21.53946289 197.41611328 -22.19970703 197.94238281 C-35.37283346 208.5501646 -47.06288641 220.78530858 -49.2578125 238.39453125 C-49.46092329 243.73179134 -49.40410241 249.05521782 -49.3203125 254.39453125 C-49.2926736 256.53498346 -49.26803012 258.67537036 -49.24913025 260.81591797 C-49.23135091 262.73672594 -49.20393945 264.65743758 -49.17602539 266.578125 C-49.2578125 269.39453125 -49.2578125 269.39453125 -50.2578125 270.39453125 C-51.67460161 270.49003823 -53.09612491 270.51641608 -54.51612854 270.51478577 C-55.89390472 270.51684776 -55.89390472 270.51684776 -57.29951477 270.51895142 C-58.31514999 270.51535614 -59.33078522 270.51176086 -60.37719727 270.50805664 C-61.44048248 270.50820267 -62.5037677 270.50834869 -63.59927368 270.50849915 C-67.13260908 270.5077995 -70.6658925 270.50000468 -74.19921875 270.4921875 C-76.64159618 270.4903235 -79.08397399 270.48889952 -81.52635193 270.48789978 C-87.96915714 270.48407314 -94.41193998 270.47424162 -100.85473633 270.4631958 C-107.42333676 270.45298481 -113.9919408 270.44840283 -120.56054688 270.44335938 C-133.45964499 270.43261948 -146.35872756 270.41573229 -159.2578125 270.39453125 C-159.35840545 265.29408203 -159.4300726 260.19423834 -159.47753906 255.09301758 C-159.49737298 253.36602698 -159.5244489 251.63910086 -159.55957031 249.91235352 C-159.86768197 234.34818401 -157.92468336 220.07946873 -151.5703125 205.70703125 C-151.22709961 204.91723877 -150.88388672 204.12744629 -150.53027344 203.3137207 C-140.77856338 181.56176943 -123.79172425 163.99182058 -105.2578125 149.39453125 C-104.18735078 148.54445871 -103.11704346 147.6941917 -102.046875 146.84375 C-97.01125122 142.85782197 -91.96295458 138.90227065 -86.796875 135.0859375 C-86.04229004 134.52358398 -85.28770508 133.96123047 -84.51025391 133.38183594 C-83.05348579 132.29865479 -81.58999974 131.22442563 -80.11865234 130.16113281 C-72.33563602 124.35401932 -66.59681173 116.93449439 -64.2578125 107.39453125 C-63.13646176 97.4396828 -64.1530255 89.14304932 -70.0234375 80.921875 C-77.11126882 72.34113432 -85.39072104 69.12026039 -96.2578125 67.39453125 C-110.48893273 66.31220556 -124.23782428 68.32440161 -137.2578125 74.39453125 C-138.4334375 74.89726562 -138.4334375 74.89726562 -139.6328125 75.41015625 C-156.99132709 83.31050584 -168.52019197 96.87161941 -177.2578125 113.39453125 C-180.590101 110.39155761 -182.41163867 107.51187776 -184.32421875 103.46875 C-184.88641113 102.29151367 -185.44860352 101.11427734 -186.02783203 99.90136719 C-186.62546172 98.62831914 -187.22295187 97.35520557 -187.8203125 96.08203125 C-188.44564025 94.76556471 -189.07178915 93.44948794 -189.69873047 92.13378906 C-190.96351744 89.47649214 -192.2238001 86.81713784 -193.47998047 84.15576172 C-195.49074618 79.89721783 -197.52426432 75.64971442 -199.56054688 71.40332031 C-200.88108564 68.64813418 -202.19662956 65.89060324 -203.51171875 63.1328125 C-205.50581681 58.95682482 -207.51690793 54.78936815 -209.53515625 50.625 C-210.35669189 48.92585449 -210.35669189 48.92585449 -211.19482422 47.19238281 C-212.25209182 45.00670675 -213.31216403 42.82238437 -214.37548828 40.63964844 C-214.85356934 39.6499707 -215.33165039 38.66029297 -215.82421875 37.640625 C-216.24646729 36.77107178 -216.66871582 35.90151855 -217.10375977 35.00561523 C-218.3604099 32.16240111 -219.43136334 29.39302194 -220.2578125 26.39453125 C-219.203125 23.75390625 -219.203125 23.75390625 -217.3828125 21.14453125 C-216.72152344 20.19191406 -216.06023437 19.23929687 -215.37890625 18.2578125 C-214.67894531 17.31292969 -213.97898437 16.36804688 -213.2578125 15.39453125 C-212.63003906 14.54246094 -212.00226563 13.69039063 -211.35546875 12.8125 C-189.32193545 -15.79955244 -157.13943685 -28.6020131 -122.1484375 -33.19140625 C-78.87854171 -37.59141319 -33.74874849 -28.71089183 0 0 Z " fill="#FEFEFE" transform="translate(628.2578125,333.60546875)"/>
<path d="M0 0 C1.71848145 0.01353516 1.71848145 0.01353516 3.47167969 0.02734375 C21.52242084 0.39645859 37.85765924 7.51139521 50.94140625 20.12890625 C63.702592 33.80364445 69.56299296 49.3325178 69.40625 67.80859375 C69.07660284 73.27720468 67.86731897 78.23874992 66.1875 83.4375 C65.76984375 84.73300781 65.76984375 84.73300781 65.34375 86.0546875 C59.93614352 101.01883991 48.7350299 111.66699486 35.1875 119.4375 C34.24003906 120.02144531 34.24003906 120.02144531 33.2734375 120.6171875 C18.42019372 129.05801766 -1.39839228 129.75819124 -17.6875 125.9375 C-30.17916028 122.03813178 -40.67898538 115.83817409 -49.8125 106.4375 C-50.44542969 105.82519531 -51.07835937 105.21289062 -51.73046875 104.58203125 C-60.07253844 95.94531892 -64.8069992 84.12580932 -66.8125 72.4375 C-66.9775 71.49648438 -67.1425 70.55546875 -67.3125 69.5859375 C-68.79284174 58.14412948 -66.52858961 45.49120102 -60.8125 35.4375 C-60.31878906 34.55707031 -59.82507813 33.67664063 -59.31640625 32.76953125 C-49.69571509 16.6609837 -33.96355132 5.81361948 -15.88525391 1.05712891 C-10.59646785 -0.00936871 -5.37964989 -0.05076638 0 0 Z " fill="#FEFEFE" transform="translate(523.8125,642.5625)"/>
<path d="M0 0 C6.27948978 4.25728121 10.66767118 11.0108884 14.3046875 17.5625 C15.10712891 18.90634766 15.10712891 18.90634766 15.92578125 20.27734375 C17.64106956 24.36390881 17.71389328 27.62503068 17.6171875 32 C17.62041016 32.72509766 17.62363281 33.45019531 17.62695312 34.19726562 C17.57962803 38.98570453 16.95131172 43.05319339 15.3046875 47.5625 C14.3146875 48.0575 14.3146875 48.0575 13.3046875 48.5625 C12.8715625 49.573125 12.4384375 50.58375 11.9921875 51.625 C7.64986522 59.57226908 -3.46049537 63.86488749 -11.6953125 66.5625 C-12.9716438 67.09108165 -14.24272551 67.632545 -15.5078125 68.1875 C-18.6953125 69.5625 -18.6953125 69.5625 -21.6953125 70.5625 C-24.25570481 74.11860043 -24.2718143 78.32751798 -24.6953125 82.5625 C-28.30113986 82.73300322 -30.72542521 82.35003372 -34.0078125 80.875 C-41.05705668 77.89057037 -48.37722967 75.77789977 -55.6953125 73.5625 C-55.21753552 68.44710118 -54.19066037 65.04895337 -51.3828125 60.75 C-50.78855469 59.81542969 -50.19429687 58.88085938 -49.58203125 57.91796875 C-47.71117884 55.58230829 -46.45454503 54.61624664 -43.6953125 53.5625 C-43.6953125 52.9025 -43.6953125 52.2425 -43.6953125 51.5625 C-42.7259375 51.27375 -41.7565625 50.985 -40.7578125 50.6875 C-37.58867047 49.92035318 -37.58867047 49.92035318 -36.6953125 47.5625 C-34.4375 46.5625 -34.4375 46.5625 -31.5703125 45.5625 C-30.07951172 45.0365625 -30.07951172 45.0365625 -28.55859375 44.5 C-26.29581783 43.75911839 -24.06764639 43.1261196 -21.7578125 42.5625 C-18.2444675 41.41528531 -16.73191988 40.65814322 -14.6953125 37.5625 C-14.14980665 33.70499435 -14.45820204 30.27383139 -15.6953125 26.5625 C-21.18562066 22.09364452 -26.34804207 21.91962796 -33.3046875 22.08984375 C-37.41725312 22.66313919 -39.93212583 23.90452395 -43.14453125 26.46875 C-44.6953125 27.5625 -44.6953125 27.5625 -47.6953125 27.5625 C-48.03396391 24.56301609 -48.36636323 21.56305074 -48.6953125 18.5625 C-48.79070313 17.72332031 -48.88609375 16.88414062 -48.984375 16.01953125 C-50.53702161 1.7130018 -50.53702161 1.7130018 -48.375 -1.2421875 C-47.77945313 -1.59539062 -47.18390625 -1.94859375 -46.5703125 -2.3125 C-45.70019531 -2.86550781 -45.70019531 -2.86550781 -44.8125 -3.4296875 C-30.68252272 -10.15576525 -13.38729411 -7.13989019 0 0 Z " fill="#C1CCEA" transform="translate(766.6953125,310.4375)"/>
<path d="M0 0 C2.9865154 1.78605333 5.18482353 3.74136696 7.390625 6.4296875 C8.07125 6.9865625 8.751875 7.5434375 9.453125 8.1171875 C12.04116264 11.20613565 13.17727512 14.52642867 14.55859375 18.28515625 C15.20478988 20.37833999 15.20478988 20.37833999 16.390625 21.4296875 C17.30089545 30.21902019 15.51467237 37.28892171 12.390625 45.4296875 C10.23405584 51.32430988 8.98986246 57.37363334 11.1015625 63.48828125 C11.38257813 64.08769531 11.66359375 64.68710937 11.953125 65.3046875 C13.390625 68.4296875 13.390625 68.4296875 13.28076172 70.42285156 C12.00893896 73.29020841 10.27622295 74.09404495 7.5859375 75.6640625 C6.61011719 76.23769531 5.63429688 76.81132812 4.62890625 77.40234375 C3.60152344 77.98886719 2.57414062 78.57539063 1.515625 79.1796875 C-0.01384766 80.08267578 -0.01384766 80.08267578 -1.57421875 81.00390625 C-9.19137968 85.4296875 -9.19137968 85.4296875 -12.609375 85.4296875 C-12.609375 84.7696875 -12.609375 84.1096875 -12.609375 83.4296875 C-13.2075 83.2646875 -13.805625 83.0996875 -14.421875 82.9296875 C-17.87115842 80.56446459 -18.75985512 77.3548414 -19.609375 73.4296875 C-20.40773079 64.37756104 -19.36275904 55.74075215 -15.609375 47.4296875 C-14.949375 47.4296875 -14.289375 47.4296875 -13.609375 47.4296875 C-13.63 46.4809375 -13.650625 45.5321875 -13.671875 44.5546875 C-13.609375 41.4296875 -13.609375 41.4296875 -12.609375 39.4296875 C-12.33396101 35.78045217 -12.40290401 33.02329161 -13.609375 29.5546875 C-16.03173148 26.98093374 -17.98943322 26.5126381 -21.48828125 26.30078125 C-25.70741867 26.55719292 -29.07991352 27.94369909 -32.12109375 30.8984375 C-33.87932935 32.95391063 -35.39798727 35.00691205 -36.609375 37.4296875 C-37.269375 37.4296875 -37.929375 37.4296875 -38.609375 37.4296875 C-39.269375 41.3896875 -39.929375 45.3496875 -40.609375 49.4296875 C-44.32220816 47.94455423 -47.35423612 46.52337187 -50.734375 44.4921875 C-51.58257812 43.98816406 -52.43078125 43.48414063 -53.3046875 42.96484375 C-55.609375 41.4296875 -55.609375 41.4296875 -57.1640625 39.86328125 C-58.82407592 38.2167274 -60.48767913 37.38079254 -62.609375 36.4296875 C-61.50939864 23.9246931 -59.12608281 16.23666372 -49.546875 7.6171875 C-44.26959069 3.21778791 -39.05474128 0.65584475 -32.609375 -1.5703125 C-31.70316406 -1.9209375 -30.79695313 -2.2715625 -29.86328125 -2.6328125 C-20.0111319 -5.47136693 -9.15734923 -4.42855414 0 0 Z " fill="#C2CCEA" transform="translate(308.609375,311.5703125)"/>
<path d="M0 0 C0.61875 0.33 1.2375 0.66 1.875 1 C1.875 1.66 1.875 2.32 1.875 3 C2.4525 3.061875 3.03 3.12375 3.625 3.1875 C7.34219631 4.52982089 9.01201308 7.55457315 10.98046875 10.8515625 C12.04208317 13.40129146 12.10818084 15.30919115 12.0625 18.0625 C12.05605469 18.91972656 12.04960938 19.77695312 12.04296875 20.66015625 C11.83527537 23.55337335 11.45350856 25.43039157 9.3515625 27.5 C8.74054687 27.995 8.12953125 28.49 7.5 29 C5.66858071 30.49630853 3.91684149 31.95745104 2.2578125 33.64453125 C-0.2496513 36.10241244 -2.9112371 35.97904285 -6.3125 36.3125 C-12.26853629 35.8243003 -17.09311407 33.68497858 -21.6875 29.875 C-23.125 28 -23.125 28 -23.125 26 C-23.785 26 -24.445 26 -25.125 26 C-28.21340466 18.08596305 -27.31875864 12.58517676 -24.125 5 C-23.465 5 -22.805 5 -22.125 5 C-22.125 4.34 -22.125 3.68 -22.125 3 C-14.78602534 -0.97084619 -8.12792529 -2.60093609 0 0 Z " fill="#C0CBE9" transform="translate(724.125,400)"/>
<path d="M0 0 C2.0191034 1.22129288 3.75425664 2.45188412 5.5234375 4.01171875 C6.24273437 4.60082031 6.96203125 5.18992187 7.703125 5.796875 C10.73379284 9.48440432 10.12365987 13.08012175 9.96875 17.67578125 C9.21796185 23.30010652 7.26535476 27.81451273 2.7734375 31.4140625 C-3.2418827 35.05696115 -8.83137351 35.80849216 -15.75390625 34.62109375 C-19.98903662 33.52179202 -22.88936665 32.19466728 -25.5390625 28.63671875 C-28.49143092 23.06116585 -28.41644761 17.13243397 -27.4765625 11.01171875 C-25.68859749 6.02589562 -22.54803785 2.01049118 -17.69140625 -0.359375 C-11.96652961 -1.98495726 -5.57018189 -2.22280129 0 0 Z " fill="#C1CCEA" transform="translate(334.4765625,398.98828125)"/>
<path d="M0 0 C3.49568641 2.33045761 5.04037712 4.04721457 6.8125 7.875 C7.14347614 12.45215781 6.40974048 15.87248919 4.0625 19.8125 C0.59468186 22.9913333 -1.9754917 23.74278091 -6.625 24.25 C-11.68871761 23.71697709 -14.41668726 21.52775855 -18.0625 18.125 C-19.75952328 14.73095343 -19.82307611 11.54015559 -19.1875 7.875 C-14.96933115 -0.40510922 -8.89434708 -3.13918132 0 0 Z " fill="#F8F9FC" transform="translate(602.1875,897.125)"/>
<path d="M0 0 C3.49568641 2.33045761 5.04037712 4.04721457 6.8125 7.875 C7.14347614 12.45215781 6.40974048 15.87248919 4.0625 19.8125 C0.59468186 22.9913333 -1.9754917 23.74278091 -6.625 24.25 C-11.68871761 23.71697709 -14.41668726 21.52775855 -18.0625 18.125 C-19.75952328 14.73095343 -19.82307611 11.54015559 -19.1875 7.875 C-14.96933115 -0.40510922 -8.89434708 -3.13918132 0 0 Z " fill="#F8F9FC" transform="translate(493.1875,897.125)"/>
<path d="M0 0 C4.89180078 1.22295019 5.38629511 2.48568264 8.125 6.5625 C9.37039771 8.40709849 10.65203356 10.2289705 12 12 C12.66 12 13.32 12 14 12 C16.13527332 9.24817217 18.06258849 6.37942656 20.02734375 3.50390625 C22 1 22 1 25 0 C25 7.92 25 15.84 25 24 C23.02 24 21.04 24 19 24 C18.67 21.69 18.34 19.38 18 17 C16.35 18.98 14.7 20.96 13 23 C8.125 18.25 8.125 18.25 7 16 C6.67 18.64 6.34 21.28 6 24 C4.02 24 2.04 24 0 24 C0 16.08 0 8.16 0 0 Z " fill="#FBFBFD" transform="translate(634,896)"/>
<path d="M0 0 C1.98 0 3.96 0 6 0 C6.99 2.64 7.98 5.28 9 8 C9.433125 7.4225 9.86625 6.845 10.3125 6.25 C11.875 4.16666667 13.4375 2.08333333 15 0 C16.32 2.97 17.64 5.94 19 9 C20.32 6.03 21.64 3.06 23 0 C24.98 0 26.96 0 29 0 C24.96127563 16.8929385 24.96127563 16.8929385 22 24 C19 23 19 23 17.83203125 20.93359375 C17.49558594 20.10988281 17.15914062 19.28617188 16.8125 18.4375 C16.29623047 17.19806641 16.29623047 17.19806641 15.76953125 15.93359375 C15.51558594 15.29550781 15.26164063 14.65742187 15 14 C12.47650757 17.12432397 10.72743854 20.38060496 9 24 C8.34 24 7.68 24 7 24 C5.82599412 20.56496228 4.66206791 17.12659286 3.5 13.6875 C3.16613281 12.71103516 2.83226562 11.73457031 2.48828125 10.72851562 C2.17246094 9.79072266 1.85664063 8.85292969 1.53125 7.88671875 C1.23798828 7.02264404 0.94472656 6.15856934 0.64257812 5.26831055 C0 3 0 3 0 0 Z " fill="#F9FAFD" transform="translate(500,896)"/>
<path d="M0 0 C12.4 0 12.4 0 16 3 C17.85790076 4.85790076 17.17949707 7.42472159 17.23046875 9.89453125 C17 12 17 12 15.83984375 13.99609375 C15.56269531 14.65738281 15.28554688 15.31867187 15 16 C15.8426307 18.2193451 15.8426307 18.2193451 17.375 20.25 C18.09816406 21.30960938 18.09816406 21.30960938 18.8359375 22.390625 C19.22007812 22.92171875 19.60421875 23.4528125 20 24 C17.36 24 14.72 24 12 24 C10.35 21.03 8.7 18.06 7 15 C6.67 17.97 6.34 20.94 6 24 C4.02 24 2.04 24 0 24 C0 16.08 0 8.16 0 0 Z " fill="#FAFBFD" transform="translate(612,896)"/>
<path d="M0 0 C4.48415202 1.121038 5.6238804 2.29846336 8.75 5.5625 C9.94882812 6.80193359 9.94882812 6.80193359 11.171875 8.06640625 C11.77515625 8.70449219 12.3784375 9.34257813 13 10 C13.33 6.7 13.66 3.4 14 0 C15.98 0 17.96 0 20 0 C20 7.92 20 15.84 20 24 C16.33889657 22.16944828 14.62332645 20.81645033 11.875 17.9375 C9.22095 15.08428067 9.22095 15.08428067 6 13 C6 16.63 6 20.26 6 24 C4.02 24 2.04 24 0 24 C0 16.08 0 8.16 0 0 Z " fill="#FAFBFD" transform="translate(532,896)"/>
<path d="M0 0 C4.48415202 1.121038 5.6238804 2.29846336 8.75 5.5625 C9.94882812 6.80193359 9.94882812 6.80193359 11.171875 8.06640625 C11.77515625 8.70449219 12.3784375 9.34257813 13 10 C13.33 6.7 13.66 3.4 14 0 C15.98 0 17.96 0 20 0 C20 7.92 20 15.84 20 24 C16.33889657 22.16944828 14.62332645 20.81645033 11.875 17.9375 C9.22095 15.08428067 9.22095 15.08428067 6 13 C6 16.63 6 20.26 6 24 C4.02 24 2.04 24 0 24 C0 16.08 0 8.16 0 0 Z " fill="#FAFBFD" transform="translate(450,896)"/>
<path d="M0 0 C4.48415202 1.121038 5.6238804 2.29846336 8.75 5.5625 C9.94882812 6.80193359 9.94882812 6.80193359 11.171875 8.06640625 C11.77515625 8.70449219 12.3784375 9.34257813 13 10 C13.33 6.7 13.66 3.4 14 0 C15.98 0 17.96 0 20 0 C20 7.92 20 15.84 20 24 C16.33889657 22.16944828 14.62332645 20.81645033 11.875 17.9375 C9.22095 15.08428067 9.22095 15.08428067 6 13 C6 16.63 6 20.26 6 24 C4.02 24 2.04 24 0 24 C0 16.08 0 8.16 0 0 Z " fill="#FAFBFD" transform="translate(403,896)"/>
<path d="M0 0 C1.98 0 3.96 0 6 0 C6.33 2.31 6.66 4.62 7 7 C7.27972656 6.4946875 7.55945313 5.989375 7.84765625 5.46875 C9.1110842 3.42126548 10.28545186 1.69332848 12 0 C15.8125 -0.4375 15.8125 -0.4375 19 0 C18.55527344 0.66386719 18.11054688 1.32773437 17.65234375 2.01171875 C17.08644531 2.89472656 16.52054687 3.77773438 15.9375 4.6875 C15.36902344 5.55761719 14.80054688 6.42773438 14.21484375 7.32421875 C12.77100658 10.50437458 12.85431365 11.74328047 14 15 C15.1480434 16.9651091 15.1480434 16.9651091 16.5625 18.6875 C19 21.80169972 19 21.80169972 19 24 C15.8125 24.5 15.8125 24.5 12 24 C9.84975764 21.57299378 8.40896506 18.90883109 7 16 C6.67 18.64 6.34 21.28 6 24 C4.02 24 2.04 24 0 24 C0 16.08 0 8.16 0 0 Z " fill="#FBFCFD" transform="translate(428,896)"/>
<path d="M0 0 C1.98 0 3.96 0 6 0 C6.33 5.61 6.66 11.22 7 17 C8.65 17.33 10.3 17.66 12 18 C12.495 9.09 12.495 9.09 13 0 C14.98 0 16.96 0 19 0 C19.10822792 3.06345144 19.18741479 6.1230601 19.25 9.1875 C19.30027344 10.48397461 19.30027344 10.48397461 19.3515625 11.80664062 C19.41676616 16.0611794 19.39830711 18.35727716 17.109375 22.05078125 C14.37228737 24.58005296 13.45295804 24.95726811 9.6875 25.3125 C5.41222654 24.95018869 3.95172173 24.03853708 1 21 C0.07811539 18.23434618 -0.11785222 16.61716298 -0.09765625 13.76953125 C-0.09282227 12.56586914 -0.09282227 12.56586914 -0.08789062 11.33789062 C-0.07951172 10.50451172 -0.07113281 9.67113281 -0.0625 8.8125 C-0.05798828 7.96751953 -0.05347656 7.12253906 -0.04882812 6.25195312 C-0.03705403 4.16793845 -0.0191189 2.08396023 0 0 Z " fill="#FBFBFD" transform="translate(380,896)"/>
<path d="M0 0 C1.83886719 0.1953125 1.83886719 0.1953125 4 1 C5.37207031 3.1171875 5.37207031 3.1171875 6.578125 5.875 C7.23554687 7.35226562 7.23554687 7.35226562 7.90625 8.859375 C8.3496875 9.89578125 8.793125 10.9321875 9.25 12 C9.70890625 13.03640625 10.1678125 14.0728125 10.640625 15.140625 C14 22.77920387 14 22.77920387 14 24 C11.69 24 9.38 24 7 24 C7 23.01 7 22.02 7 21 C3.7 21 0.4 21 -3 21 C-3.33 21.99 -3.66 22.98 -4 24 C-5.98 24 -7.96 24 -10 24 C-9.40915596 20.47944083 -8.4844458 17.56638778 -6.93359375 14.35546875 C-6.3293457 13.09379883 -6.3293457 13.09379883 -5.71289062 11.80664062 C-5.29201172 10.94232422 -4.87113281 10.07800781 -4.4375 9.1875 C-4.01275391 8.30384766 -3.58800781 7.42019531 -3.15039062 6.50976562 C-2.10528576 4.33735663 -1.05503238 2.16760043 0 0 Z " fill="#FAFBFD" transform="translate(672,896)"/>
<path d="M0 0 C4.95 0 9.9 0 15 0 C15 1.98 15 3.96 15 6 C12.03 6 9.06 6 6 6 C6 7.32 6 8.64 6 10 C8.64 10 11.28 10 14 10 C14 11.65 14 13.3 14 15 C11.36 15 8.72 15 6 15 C6 17.97 6 20.94 6 24 C4.02 24 2.04 24 0 24 C0 16.08 0 8.16 0 0 Z " fill="#FBFBFD" transform="translate(566,896)"/>
<path d="M0 0 C5.61 0 11.22 0 17 0 C17 1.98 17 3.96 17 6 C15.02 6 13.04 6 11 6 C11 11.94 11 17.88 11 24 C9.02 24 7.04 24 5 24 C5 18.06 5 12.12 5 6 C3.35 6 1.7 6 0 6 C0 4.02 0 2.04 0 0 Z " fill="#F8F9FC" transform="translate(685,896)"/>
<path d="M0 0 C2.7912125 1.98322993 3.82597224 3.12986121 4.5 6.5 C3.82597224 9.87013879 2.7912125 11.01677007 0 13 C-3.70758991 13.61793165 -5.2935202 13.50197249 -8.375 11.3125 C-10 9 -10 9 -10.5 6.5 C-9.33827182 0.69135908 -5.5534724 -0.92557873 0 0 Z " fill="#7990D1" transform="translate(599,902)"/>
<path d="M0 0 C2.7912125 1.98322993 3.82597224 3.12986121 4.5 6.5 C3.82597224 9.87013879 2.7912125 11.01677007 0 13 C-3.70758991 13.61793165 -5.2935202 13.50197249 -8.375 11.3125 C-10 9 -10 9 -10.5 6.5 C-9.33827182 0.69135908 -5.5534724 -0.92557873 0 0 Z " fill="#7990D1" transform="translate(490,902)"/>
<path d="M0 0 C0.66 0.33 1.32 0.66 2 1 C-2.75 5 -2.75 5 -5 5 C-5.20625 5.556875 -5.4125 6.11375 -5.625 6.6875 C-7.55000774 9.92501302 -10.03850902 11.68231141 -13 14 C-13 11 -13 11 -11.6796875 9.31640625 C-7.99156424 5.73206135 -4.39443818 2.67953548 0 0 Z " fill="#ACBAE3" transform="translate(266,314)"/>
<path d="M0 0 C2.475 0.495 2.475 0.495 5 1 C4.67 2.65 4.34 4.3 4 6 C2.68 6 1.36 6 0 6 C0 4.02 0 2.04 0 0 Z " fill="#8DA1D8" transform="translate(618,901)"/>
<path d="M0 0 C1.5 1.3125 1.5 1.3125 3 3 C3 3.99 3 4.98 3 6 C1.35 6 -0.3 6 -2 6 C-1.34 4.02 -0.68 2.04 0 0 Z " fill="#97A9DB" transform="translate(673,907)"/>
<path d="M0 0 C0.66 0.33 1.32 0.66 2 1 C0.7934375 2.051875 0.7934375 2.051875 -0.4375 3.125 C-3.23433811 6.26291593 -3.71308751 7.88758763 -4 12 C-4.33 12 -4.66 12 -5 12 C-5.44041451 6.71502591 -5.44041451 6.71502591 -5 4 C-2.5 1.5 -2.5 1.5 0 0 Z " fill="#AEBCE3" transform="translate(722,307)"/>
</svg>
