<?xml version="1.0" encoding="UTF-8"?>
<svg version="1.1" xmlns="http://www.w3.org/2000/svg" width="1080" height="1080">
<path d="M0 0 C356.4 0 712.8 0 1080 0 C1080 356.4 1080 712.8 1080 1080 C723.6 1080 367.2 1080 0 1080 C0 723.6 0 367.2 0 0 Z " fill="#9CD67A" transform="translate(0,0)"/>
<path d="M0 0 C356.4 0 712.8 0 1080 0 C1080 356.4 1080 712.8 1080 1080 C723.6 1080 367.2 1080 0 1080 C0 723.6 0 367.2 0 0 Z M188 110 C186.51306641 110.28230469 186.51306641 110.28230469 184.99609375 110.5703125 C170.02375412 113.8162243 156.846652 121.50723104 145 131 C144.03449219 131.76957031 143.06898438 132.53914063 142.07421875 133.33203125 C123.40946507 149.25119175 111.37255477 172.86021455 108 197 C107.74051723 201.01008443 107.73068671 205.00322675 107.74831772 209.02069855 C107.74541084 210.18663125 107.74250396 211.35256395 107.73950899 212.55382794 C107.73349353 215.77262841 107.73635618 218.99127563 107.74306489 222.21007004 C107.74815918 225.71853853 107.74161022 229.22698911 107.73657823 232.73545504 C107.7293674 238.87877344 107.72956626 245.02205666 107.73467255 251.16537666 C107.74224516 260.3007904 107.73836605 269.43617453 107.73225593 278.57158808 C107.72172865 294.88849968 107.72263557 311.20539561 107.72841376 327.52230869 C107.73344551 341.80154101 107.73475797 356.08076759 107.73236847 370.36000061 C107.7322157 371.30729565 107.73206293 372.25459068 107.73190553 373.23059163 C107.73128285 377.07600243 107.73064605 380.92141323 107.729986 384.76682402 C107.72386845 420.83732086 107.72941422 456.90780772 107.7401798 492.97830302 C107.74967095 525.02248731 107.7488217 557.0666557 107.73925781 589.11083984 C107.7285478 625.11550436 107.72430231 661.12016006 107.73048234 697.12482595 C107.73112377 700.9632171 107.73174945 704.80160824 107.73236847 708.63999939 C107.73252662 709.58510431 107.73268478 710.53020923 107.73284773 711.5039537 C107.73512236 725.77396492 107.7324627 740.04396977 107.72740936 754.3139801 C107.72169195 770.54013919 107.72311817 786.76628017 107.73397085 802.99243701 C107.73984389 812.07285073 107.74022608 821.15322523 107.7326785 830.23363794 C107.72819237 836.30003996 107.73098736 842.36641055 107.73968804 848.43280791 C107.74444263 851.88846424 107.74607845 855.34404265 107.73887607 858.79969651 C107.73280092 862.52630643 107.73902663 866.25270269 107.74831772 869.97930145 C107.74363539 871.04623661 107.73895305 872.11317176 107.73412883 873.21243829 C107.84855477 896.15213304 116.89055432 918.84328211 132 936 C132.67546875 936.81855469 133.3509375 937.63710938 134.046875 938.48046875 C152.57155584 960.28415331 179.07430396 970.48808884 207 973 C216.20781941 973.50310399 225.43208441 973.40222203 234.65019226 973.3742218 C237.39848639 973.37530136 240.14676741 973.38090056 242.89505607 973.38626546 C248.83530456 973.3954924 254.77546807 973.39376201 260.71571541 973.38453293 C269.54936585 973.37084665 278.38295191 973.37452681 287.21660719 973.38149153 C302.99879859 973.39337903 318.78094987 973.38836216 334.56313904 973.37621326 C348.37295032 973.36565566 362.18274796 973.3611405 375.99256325 973.36250877 C376.91042808 973.3625928 377.82829291 973.36267683 378.77397183 973.36276341 C382.50033184 973.36311569 386.22669186 973.36349971 389.95305187 973.36392899 C424.8691488 973.36788912 459.78522164 973.35519889 494.70131168 973.33440243 C525.69321451 973.31603 556.68509426 973.31022181 587.67700195 973.31567383 C589.66756519 973.31602026 591.65812844 973.31636636 593.64869168 973.31671212 C594.63280954 973.31688311 595.61692741 973.31705411 596.63086703 973.31723029 C601.58524164 973.31808389 606.53961627 973.31890767 611.4939909 973.31969929 C612.96026624 973.31993491 612.96026624 973.31993491 614.4561633 973.32017529 C640.38863304 973.32416866 666.32110056 973.3186854 692.25356895 973.310188 C695.04510259 973.309281 697.83663623 973.30837535 700.62816988 973.30747276 C702.47982708 973.30687166 704.33148427 973.30626304 706.18314147 973.30564686 C719.07017572 973.30143226 731.95720561 973.30084438 744.84424033 973.30275235 C761.45272464 973.30519917 778.06118557 973.30109226 794.66966351 973.28554235 C803.4442708 973.27751545 812.2188392 973.27487326 820.99344878 973.2801847 C826.86459193 973.28317553 832.73570089 973.27881592 838.60683587 973.26863613 C841.94506791 973.26304434 845.28315637 973.26156339 848.62139853 973.26680271 C875.58100379 973.30525909 898.12430641 971.21760497 922 958 C922.98742187 957.45601562 923.97484375 956.91203125 924.9921875 956.3515625 C948.87519334 942.16021121 962.80761158 918.51957027 970.47851562 892.49609375 C972.08731928 884.79552795 972.14369353 877.08962239 972.12863445 869.25942516 C972.13038749 868.0994765 972.13214053 866.93952783 972.13394669 865.7444292 C972.13778911 862.53312126 972.13718203 859.32185023 972.13466892 856.11054213 C972.13303104 852.61361747 972.13718066 849.1166988 972.14057809 845.61977607 C972.14572571 839.49359652 972.1471504 833.36742486 972.14612198 827.24124336 C972.14459639 818.13122202 972.14876025 809.02120941 972.1539966 799.91118977 C972.16366653 782.69383348 972.1664807 765.47648018 972.16705366 748.2591215 C972.16751321 734.96376595 972.1695716 721.66841158 972.17275429 708.37305641 C972.17365183 704.54595067 972.17454164 700.71884493 972.17542917 696.89173919 C972.17565021 695.94031176 972.17587126 694.98888433 972.17609901 694.00862576 C972.18225296 667.24779666 972.18619959 640.48696796 972.18575573 613.72613811 C972.18574015 612.71724132 972.18572457 611.70834453 972.18570852 610.66887511 C972.18562541 605.55536494 972.18552637 600.44185477 972.18542381 595.32834461 C972.18540387 594.31278224 972.18538392 593.29721988 972.18536337 592.25088289 C972.18532294 590.19716898 972.18528114 588.14345506 972.18523798 586.08974114 C972.18462515 554.13314645 972.19213339 522.17656236 972.20581055 490.2199707 C972.22117018 454.31749174 972.22977686 418.41501975 972.22884732 382.5125373 C972.22877269 378.6844885 972.22872399 374.85643969 972.22869301 371.02839088 C972.22868135 370.08582669 972.2286697 369.14326249 972.22865769 368.17213574 C972.22862692 353.00290911 972.23501313 337.8336917 972.24362527 322.66446782 C972.25210092 307.42045119 972.25309238 292.17644803 972.24651595 276.93243035 C972.24281985 267.8766751 972.24465449 258.82096078 972.25445829 249.76520986 C972.2604559 243.71390001 972.25916526 237.66261982 972.25198779 231.61131133 C972.24810448 228.16505748 972.24733585 224.71888287 972.25544515 221.27263459 C972.26250002 217.55438316 972.25721539 213.83634254 972.24888897 210.11809826 C972.25634124 208.52559154 972.25634124 208.52559154 972.26394406 206.90091297 C972.15052407 182.93911562 962.87544463 162.36272836 948 144 C947.46117187 143.29617187 946.92234375 142.59234375 946.3671875 141.8671875 C931.23146362 123.08063575 905.92145591 111.06542328 882.3890854 108.21085384 C877.73071009 107.79971897 873.06566426 107.86239149 868.39250374 107.87136555 C867.2347981 107.86961251 866.07709245 107.86785947 864.88430482 107.86605331 C861.67463926 107.8622066 858.46501054 107.8628201 855.2553448 107.86533108 C851.76196842 107.86696727 848.26859806 107.86282075 844.77522361 107.85942191 C838.65378301 107.85427157 832.5323503 107.85285007 826.41090775 107.85387802 C817.3080241 107.8554029 808.20514921 107.85124133 799.10226727 107.8460034 C781.89906861 107.83633101 764.69587292 107.83351921 747.49267186 107.83294634 C734.2091936 107.83248688 720.9257165 107.83042902 707.64223862 107.82724571 C703.8193324 107.82634818 699.99642619 107.82545836 696.17351997 107.82457083 C695.22315319 107.82434979 694.27278641 107.82412874 693.29362064 107.82390099 C666.56101273 107.81774665 639.82840523 107.81380045 613.09579659 107.81424427 C612.0878662 107.81425985 611.07993582 107.81427543 610.04146209 107.81429148 C604.93278172 107.81437459 599.82410135 107.81447363 594.71542098 107.81457619 C593.19349974 107.8146061 593.19349974 107.8146061 591.64083261 107.81463663 C589.58903625 107.81467706 587.53723989 107.81471886 585.48544352 107.81476202 C553.55588358 107.81537491 521.62633425 107.80786579 489.69677734 107.79418945 C453.82984963 107.77883299 417.9629289 107.77022295 382.09599769 107.77115268 C378.27246277 107.77122731 374.44892784 107.77127601 370.62539291 107.77130699 C369.21319932 107.77132447 369.21319932 107.77132447 367.77247657 107.77134231 C352.61488783 107.77137309 337.4573083 107.76498438 322.2997223 107.75637473 C307.07018091 107.74790302 291.84065302 107.74690453 276.61111058 107.75348405 C267.56160526 107.75718275 258.51214089 107.75533775 249.4626399 107.74554171 C243.41801337 107.7395508 237.37341657 107.74082727 231.32879142 107.74801221 C227.88469671 107.75190119 224.44068136 107.75264787 220.99659218 107.74455485 C217.28404781 107.73751738 213.57171562 107.74277092 209.85917854 107.75111103 C208.26076853 107.74365876 208.26076853 107.74365876 206.63006741 107.73605594 C200.18234418 107.76674883 194.27168718 108.52790997 188 110 Z " fill="#9BD67A" transform="translate(0,0)"/>
<path d="M0 0 C4.02419253 1.34139751 7.36299708 2.55661201 11.07972276 4.41566288 C12.06219655 4.90465249 13.04467034 5.39364209 14.05691606 5.89744955 C15.66007921 6.70297165 15.66007921 6.70297165 17.2956295 7.52476692 C18.44389318 8.09774492 19.59215685 8.67072291 20.7752164 9.26106387 C23.96944989 10.85511184 27.16116561 12.4541444 30.35250118 14.0539844 C33.82212793 15.79223168 37.29407436 17.52583444 40.76573145 19.26002204 C46.85214197 22.30115282 52.93705812 25.34525669 59.02101135 28.3913002 C68.06766019 32.92065519 77.11659505 37.44542827 86.16600845 41.96925676 C101.38787636 49.57887618 116.6078779 57.1922214 131.82682419 64.80768204 C146.8983976 72.34938307 161.97079516 79.88943293 177.04430008 87.4272728 C178.44943706 88.1299444 178.44943706 88.1299444 179.88296064 88.84681138 C184.6401655 91.22575214 189.39738514 93.60466334 194.15461047 95.98356317 C227.86167302 112.8391956 261.56687874 129.6985379 295.27099609 146.56005859 C328.01680222 162.94214404 360.76344705 179.32255107 393.51123047 195.70068359 C394.52042311 196.20541144 395.52961575 196.71013929 396.56938998 197.23016191 C406.70399505 202.29878296 416.83861721 207.36736985 426.97325187 212.43593172 C447.61919926 222.76144172 468.26503265 233.08717967 488.91079712 243.41305542 C489.86008389 243.8878361 490.80937066 244.36261677 491.7874237 244.85178474 C555.19352562 276.56403843 618.59696961 308.28160587 682 340 C682 340.66 682 341.32 682 342 C617.20033424 374.41696385 552.40017618 406.83294352 487.59738159 439.24365234 C486.63903618 439.72296311 485.68069076 440.20227387 484.69330458 440.69610921 C463.8683552 451.11157645 443.04331688 461.52686585 422.21818686 471.9419719 C412.0062812 477.04917212 401.7943952 482.15641167 391.58251953 487.26367188 C390.56628802 487.77191839 389.5500565 488.28016491 388.5030301 488.80381283 C355.53468879 505.2922486 322.56764817 521.78328302 289.60127752 538.27565846 C255.73803251 555.21670401 221.87348407 572.15514119 188.00728171 589.09027413 C183.22934782 591.47952925 178.45142892 593.86881434 173.67351913 596.25811768 C172.73311165 596.72838884 171.79270417 597.19866 170.8237995 597.68318181 C155.65566244 605.26843433 140.48891132 612.85645407 125.32267035 620.44549686 C110.09375491 628.06582808 94.86339829 635.68327229 79.63154472 643.29772902 C70.5702453 647.82761529 61.51008043 652.35975371 52.45148904 656.89505302 C46.41113577 659.91896113 40.36935348 662.94 34.32636935 665.95864714 C30.87624267 667.68219113 27.42678189 669.40703471 23.97904731 671.13535953 C20.27680262 672.99123241 16.57154 674.84099455 12.86590767 676.69009399 C11.7802068 677.23557144 10.69450592 677.78104889 9.57590503 678.34305596 C8.59668674 678.83041781 7.61746846 679.31777966 6.60857689 679.81991005 C5.76035426 680.24417735 4.91213162 680.66844465 4.03820527 681.10556853 C2 682 2 682 0 682 C0 456.94 0 231.88 0 0 Z " fill="#FEFEFE" transform="translate(202,199)"/>
<path d="M0 0 C3.94906286 1.31635429 7.22102001 2.48560182 10.86171377 4.30665839 C11.79545137 4.7712799 12.72918897 5.2359014 13.69122165 5.71460235 C14.70544935 6.22434321 15.71967704 6.73408407 16.7646389 7.25927162 C17.85549787 7.80354726 18.94635684 8.3478229 20.07027215 8.90859175 C23.10316683 10.4228453 26.13422414 11.94067259 29.16456814 13.46001788 C32.4596718 15.11100468 35.75709596 16.75734504 39.05423033 18.40427148 C44.83421987 21.29219211 50.61271521 24.18308467 56.39024734 27.0759182 C64.98125323 31.37745254 73.57454562 35.67440348 82.16831643 39.97041075 C96.62386124 47.19686873 111.07753977 54.42705195 125.53016281 61.65935135 C139.84256051 68.82146479 154.15578248 75.98192664 168.47011185 83.14017868 C169.35973404 83.58505852 170.24935624 84.02993835 171.16593668 84.4882994 C175.68378001 86.74755939 180.20163813 89.00678983 184.71950193 91.2660089 C216.72947833 107.27309818 248.73759789 123.28389719 280.74462891 139.296875 C311.84134641 154.85441633 342.93890271 170.410279 374.03759766 185.96386719 C374.99599239 186.44319608 375.95438713 186.92252498 376.94182414 187.41637899 C386.56631361 192.22994224 396.19082016 197.04347133 405.81533923 201.8569754 C425.42204592 211.66286504 445.0286386 221.46898263 464.63516235 231.27523804 C465.98741258 231.95156908 465.98741258 231.95156908 467.36698099 232.64156338 C527.57989726 262.75722405 587.79015549 292.87819858 648 323 C645.24905923 325.16639778 642.51862381 326.8657722 639.38898456 328.43085688 C638.460254 328.89772568 637.53152343 329.36459449 636.57464951 329.84561083 C635.55573949 330.35272467 634.53682947 330.85983852 633.48704338 331.38231945 C632.39909129 331.92774894 631.3111392 332.47317842 630.19021887 333.03513607 C627.1590362 334.55375646 624.12609307 336.06875732 621.09236697 337.58228407 C617.79652928 339.22767243 614.50300745 340.87768457 611.20919144 342.52711517 C605.43247239 345.4190922 599.65426472 348.30807707 593.87508011 351.19512367 C585.28152307 355.488127 576.69025022 359.78568606 568.09942764 364.08415821 C552.75888067 371.75970378 537.41604145 379.43065818 522.07223108 387.09967758 C508.64658555 393.80998761 495.22168175 400.52177867 481.79751968 407.23505592 C480.90805026 407.67986702 480.01858083 408.12467812 479.10215779 408.58296834 C475.49180192 410.3884576 471.88144889 412.19395251 468.27110051 413.99945674 C434.38669894 430.94471823 400.4999636 447.88530791 366.61218617 464.82381702 C336.48054448 479.88489093 306.35097495 494.95010242 276.22314453 510.01879883 C242.39853515 526.93645341 208.57263963 543.85153199 174.74465287 560.7624324 C171.14138229 562.56374695 167.53811487 564.36506782 163.93484879 566.16639137 C163.04758702 566.60994318 162.16032526 567.05349498 161.24617678 567.51048775 C147.82495967 574.21995698 134.40473358 580.93140556 120.98498154 587.64380455 C105.73421311 595.27204162 90.48202872 602.89743905 75.227944 610.51904257 C66.68209216 614.78902231 58.13735844 619.06122161 49.5941892 623.33656615 C43.89755582 626.18711429 38.19948937 629.03478283 32.5002156 631.88004818 C29.24647724 633.50452383 25.99340229 635.13029303 22.74204884 636.75953754 C19.25059653 638.50905614 15.75611589 640.25246461 12.26127434 641.99520397 C10.7258858 642.76640999 10.7258858 642.76640999 9.15947932 643.55319592 C8.23575579 644.01255417 7.31203226 644.47191242 6.36031711 644.94519061 C5.16045276 645.54502114 5.16045276 645.54502114 3.93634873 646.15696947 C2 647 2 647 0 647 C-0.14861989 641.82231153 -0.25734045 636.64587099 -0.32958984 631.46655273 C-0.35971388 629.70591601 -0.40062296 627.94542878 -0.45263672 626.18530273 C-0.52565267 623.65050374 -0.55949741 621.11769201 -0.5859375 618.58203125 C-0.61690521 617.79850784 -0.64787292 617.01498444 -0.67977905 616.2077179 C-0.68304446 610.87288254 -0.68304446 610.87288254 1.22502136 608.43450928 C3.9576887 606.07546916 7.00208091 604.26398303 10.28515625 602.7890625 C11.05698242 602.43481201 11.82880859 602.08056152 12.62402344 601.71557617 C13.4287207 601.35568604 14.23341797 600.9957959 15.0625 600.625 C16.75773605 599.84510656 18.45174414 599.06253854 20.14453125 598.27734375 C20.97033691 597.89433105 21.79614258 597.51131836 22.64697266 597.11669922 C29.22845434 593.99326104 35.58562593 590.42111042 41.875 586.75 C45.17174961 584.90382022 48.5190155 583.46567768 52 582 C54.68649035 580.70550162 57.34215635 579.3521457 60 578 C61.2078066 577.39478101 62.41615161 576.79063545 63.625 576.1875 C64.61886719 575.69056641 64.61886719 575.69056641 65.6328125 575.18359375 C85.6875 565.15625 85.6875 565.15625 87.57202148 564.21411133 C88.87374637 563.56316647 90.17533824 562.91195555 91.47680664 562.26049805 C95.41762626 560.28845227 99.36162135 558.32298661 103.30859375 556.36328125 C112.75853114 551.66431701 122.17919762 546.93380876 131.45874023 541.90454102 C135.55732121 539.69801529 139.71750856 537.83397091 144 536 C146.30771576 534.79259883 148.59447203 533.56837538 150.875 532.3125 C156.29470653 529.37120988 161.77603851 526.64524675 167.375 524.0625 C173.14211469 521.39894158 178.78342216 518.57700489 184.375 515.5625 C190.33522964 512.35054481 196.36302857 509.35956754 202.5 506.5 C208.5947629 503.65976404 214.58168574 500.69179854 220.5 497.5 C228.09545235 493.40475611 235.84045116 489.6885505 243.66015625 486.04296875 C247.8120135 484.10273677 251.90948932 482.06577121 256 480 C257.35647791 479.32102905 258.71324866 478.64264283 260.0703125 477.96484375 C260.73321289 477.63339355 261.39611328 477.30194336 262.07910156 476.96044922 C274.68554688 470.65722656 287.29199219 464.35400391 299.8984375 458.05078125 C300.93057373 457.53435059 301.96270996 457.01791992 303.02612305 456.48583984 C304.92744785 455.53587984 306.8298522 454.58807551 308.73364258 453.64306641 C313.85204905 451.09924329 318.90765296 448.46387033 323.9375 445.75 C330.98025299 441.97575552 338.13365501 438.49678452 345.40405273 435.18261719 C349.91592529 433.09878729 354.06070918 430.75476713 358.23852539 428.06640625 C360.32006993 426.80622794 362.34564459 426.02431296 364.6875 425.375 C368.21311857 424.38241269 370.86115918 422.88592383 374 421 C377.86358184 419.08840202 381.78703161 417.30165205 385.69921875 415.4921875 C391.27351716 412.88787528 396.65864617 410.05239219 402 407 C409.37491643 402.81721158 416.9067122 399.12314981 424.58496094 395.53930664 C430.92705003 392.55887474 437.11409318 389.34320944 443.28540039 386.02636719 C447.33387747 383.85810505 451.39009515 381.86263058 455.6171875 380.0625 C461.02214885 377.65241887 466.2715956 374.89307156 471.5546875 372.22851562 C474.28259152 370.8580271 477.01586991 369.49864861 479.75 368.140625 C480.73331299 367.65150635 481.71662598 367.1623877 482.72973633 366.65844727 C484.66899516 365.69402015 486.60891426 364.73091931 488.54956055 363.76928711 C492.80280282 361.65013183 496.9473222 359.48739881 501 357 C502.59393717 356.33585951 504.18823721 355.67256325 505.78515625 355.015625 C509.85075328 353.15133007 513.71977061 350.9015762 517.62109375 348.71875 C520.07675815 347.46962591 522.30004826 346.48139219 524.8671875 345.5625 C529.36412726 343.93763235 533.48909914 341.77366481 537.6875 339.5 C538.42033203 339.10941406 539.15316406 338.71882813 539.90820312 338.31640625 C542.9400328 336.69250469 545.93049963 335.04177567 548.87890625 333.26953125 C551 332 551 332 553.25 331.1875 C553.8275 330.795625 554.405 330.40375 555 330 C555.12375 329.030625 555.2475 328.06125 555.375 327.0625 C555.58125 326.051875 555.7875 325.04125 556 324 C558.72457485 322.26090967 560.72482466 321 564 321 C564 320.34 564 319.68 564 319 C563.20496358 318.76494393 562.40992717 318.52988786 561.59079874 318.28770888 C557.05256503 316.66023703 552.85014767 314.5609748 548.54722023 312.39665794 C547.59818465 311.923294 546.64914907 311.44993005 545.67135483 310.96222174 C542.47720244 309.36780205 539.28594628 307.76766985 536.09463501 306.16757202 C533.78798886 305.01468485 531.481167 303.86214917 529.1741842 302.70993578 C524.15123471 300.20053419 519.12977895 297.68816411 514.10928726 295.17384911 C506.64398764 291.4351654 499.17640005 287.70106959 491.70833444 283.96791468 C479.14605844 277.68809081 466.58564846 271.40454332 454.02629471 265.11887741 C441.58950766 258.89456849 429.15189595 252.67191241 416.71317673 246.45146561 C415.94000766 246.06481233 415.1668386 245.67815906 414.37024017 245.27978902 C410.44376061 243.31621091 406.51726627 241.35266236 402.59076624 239.38912518 C374.77359086 225.47843663 346.95827241 211.5640388 319.14404297 197.64746094 C292.12154446 184.12702852 265.09820688 170.60827549 238.07373047 157.09179688 C237.24083643 156.67521833 236.40794239 156.25863978 235.54980913 155.82943764 C227.18560525 151.64601719 218.82138429 147.4626309 210.45715081 143.27926962 C193.41797998 134.75714794 176.37892317 126.23479828 159.3399353 117.71231079 C158.55649622 117.32045396 157.77305714 116.92859713 156.96587749 116.52486585 C104.64200803 90.35372921 52.32082775 64.17721692 0 38 C0 25.46 0 12.92 0 0 Z " fill="#CBE9BB" transform="translate(320,220)"/>
<path d="M0 0 C2.78008599 -0.00191781 5.56016495 -0.00683224 8.34024733 -0.01159257 C14.37160779 -0.02032514 20.40293427 -0.02167719 26.43429947 -0.01808929 C35.40351091 -0.01276791 44.37268964 -0.018892 53.34189753 -0.02717223 C70.29493973 -0.04239342 87.24796696 -0.04411924 104.20101456 -0.0416492 C117.29407306 -0.03981489 130.38712667 -0.04157904 143.48018456 -0.04587364 C145.36279903 -0.04647605 147.2454135 -0.04707725 149.12802797 -0.04767724 C151.96511847 -0.04858452 154.80220897 -0.04949319 157.63929947 -0.0504096 C184.00896005 -0.05883628 210.37861879 -0.06317677 236.74828053 -0.05900288 C238.23867284 -0.05876831 238.23867284 -0.05876831 239.7591741 -0.05852901 C244.79484138 -0.05772325 249.83050865 -0.05687748 254.86617593 -0.05601571 C255.86623415 -0.05584462 256.86629237 -0.05567353 257.89665539 -0.05549726 C259.9190145 -0.0551506 261.9413736 -0.05480207 263.96373271 -0.05445167 C295.43112972 -0.04909457 326.89849872 -0.05702576 358.3658905 -0.07548523 C393.73888196 -0.09621162 429.11185606 -0.10692676 464.48485392 -0.10290974 C468.25814895 -0.10251441 472.03144397 -0.10215286 475.804739 -0.10181236 C476.73378523 -0.10172163 477.66283145 -0.1016309 478.6200306 -0.10153742 C492.63057309 -0.10037259 506.64109802 -0.10701102 520.65163612 -0.11762428 C536.58953211 -0.12968542 552.52738948 -0.13122467 568.46528605 -0.11883412 C577.37783951 -0.11221491 586.29030057 -0.11381489 595.2028466 -0.12742263 C601.1649092 -0.13568897 607.12690286 -0.13294131 613.0889599 -0.12144736 C616.48011862 -0.11521247 619.87095136 -0.11520986 623.26212225 -0.1253107 C637.12704885 -0.16373034 650.29539054 0.09832596 663.84318542 3.26069641 C664.70137039 3.45266198 665.55955535 3.64462756 666.44374591 3.84241027 C695.76118266 10.88383038 720.54679066 29.00706339 736.84318542 54.26069641 C752.41366792 79.97142704 755.15078521 105.7228064 755.09715271 135.2142334 C755.09835059 137.97226954 755.10255463 140.73029934 755.1066072 143.48833257 C755.11380523 149.47157218 755.11362709 155.45477565 755.10851288 161.43801689 C755.10092827 170.33577593 755.10482565 179.23350464 755.11092949 188.13126349 C755.12144826 204.02675907 755.1205531 219.92223855 755.11477167 235.81773565 C755.10973606 249.73146165 755.10842924 263.64518174 755.11081696 277.55890846 C755.11104611 278.94452787 755.11104611 278.94452787 755.1112799 280.35813959 C755.1119026 284.10819537 755.1125394 287.85825116 755.11319942 291.60830694 C755.11931522 326.77611134 755.11377446 361.94390551 755.10300563 397.11170834 C755.09351862 428.33072873 755.09436063 459.5497328 755.10392761 490.76875305 C755.11464707 525.86562215 755.11887751 560.96248219 755.11270308 596.0593527 C755.11206168 599.80403697 755.111436 603.54872125 755.11081696 607.29340553 C755.1106588 608.21540116 755.11050065 609.13739679 755.1103377 610.08733168 C755.10806657 623.98611248 755.11071627 637.88488672 755.11577606 651.78366661 C755.1215044 667.59743315 755.12004421 683.4111811 755.10921457 699.22494533 C755.10335908 708.06596164 755.10293383 716.90693766 755.11050692 725.74795289 C755.11501447 731.66488403 755.11215971 737.5817831 755.10349739 743.49870951 C755.09877213 746.86239906 755.09816426 750.22594423 755.10430935 753.589641 C755.16784519 791.27413504 755.16784519 791.27413504 749.78068542 807.88569641 C749.47686951 808.84588684 749.17305359 809.80607727 748.86003113 810.79536438 C744.04889949 825.34864401 736.63413308 837.56283751 726.84318542 849.26069641 C726.21025574 850.05733704 725.57732605 850.85397766 724.92521667 851.67475891 C709.69789811 870.0514376 686.64384556 881.73630739 663.84318542 887.26069641 C662.79658544 887.51437249 662.79658544 887.51437249 661.72884203 887.77317334 C655.06582558 889.25539774 648.71949273 889.54306762 641.90985584 889.515172 C640.74121025 889.51837848 639.57256466 889.52158496 638.36850557 889.5248886 C635.1374094 889.53173828 631.90646288 889.5296994 628.67536941 889.52383288 C625.15524699 889.51964896 621.63514538 889.52707223 618.11502808 889.53298539 C611.94958287 889.54173792 605.78417088 889.54306287 599.61872101 889.53948212 C590.45017066 889.53417131 581.28165242 889.54027426 572.11310556 889.54856505 C554.78418195 889.56380421 537.45527296 889.56551017 520.12634406 889.56304202 C506.74331762 889.5612091 493.36029597 889.56296895 479.97727013 889.56726646 C478.05427741 889.56786887 476.13128469 889.56847007 474.20829197 889.56907007 C471.31047889 889.56997733 468.41266581 889.57088599 465.51485273 889.57180242 C438.57219211 889.580232 411.62953329 889.58456765 384.68687153 889.5803957 C383.67120211 889.58023932 382.65553268 889.58008295 381.6090854 889.57992183 C376.4613272 889.57911605 371.313569 889.57827028 366.1658108 889.57740853 C364.6322841 889.5771519 364.6322841 889.5771519 363.06777707 889.57689008 C361.00033417 889.57654343 358.93289128 889.5761949 356.86544838 889.5758445 C324.70054585 889.57048804 292.53567073 889.57841554 260.37077332 889.59687805 C224.22800619 889.61759958 188.08525605 889.62832041 151.94248265 889.62430257 C148.08771495 889.62390722 144.23294725 889.62354568 140.37817955 889.62320518 C138.95448278 889.62306909 138.95448278 889.62306909 137.50202445 889.62293024 C123.18076868 889.6217648 108.85953007 889.62840855 94.53827858 889.63901711 C78.2474259 889.65107239 61.956611 889.65262433 45.66575775 889.64022694 C36.55284434 889.63360213 27.44002128 889.63522065 18.3271151 889.64881545 C12.23390915 889.65707089 6.14077076 889.65434819 0.04757028 889.64284018 C-3.4201603 889.63659456 -6.88771481 889.63495475 -10.3554351 889.64670352 C-36.81706452 889.71827449 -36.81706452 889.71827449 -49.15681458 886.26069641 C-50.43625656 885.90528376 -50.43625656 885.90528376 -51.74154586 885.54269105 C-53.74651919 884.95595164 -55.69635231 884.29388048 -57.65681458 883.57319641 C-58.70917297 883.19082825 -58.70917297 883.19082825 -59.78279114 882.80073547 C-72.68595786 877.94245813 -83.58140479 871.0264104 -94.15681458 862.26069641 C-94.95603333 861.62647766 -95.75525208 860.99225891 -96.57868958 860.33882141 C-112.93978662 846.76259195 -123.95982065 826.77232009 -130.34431458 806.82319641 C-130.59455383 806.07997131 -130.84479309 805.33674622 -131.10261536 804.57099915 C-136.52117199 786.7967412 -135.44470732 767.16752237 -135.41078186 748.82014465 C-135.41198239 746.08239167 -135.41618792 743.34464503 -135.42023635 740.60689497 C-135.42741006 734.68653626 -135.42727147 728.76621413 -135.42214203 722.84585381 C-135.41453496 714.04164038 -135.41846626 705.23745745 -135.42455864 696.43324418 C-135.43505943 680.7032393 -135.43418961 664.97325072 -135.42840082 649.24324431 C-135.42335997 635.47724495 -135.42206083 621.71125155 -135.42444611 607.94525146 C-135.42459888 607.03038084 -135.42475165 606.11551021 -135.42490905 605.17291623 C-135.42553177 601.45870127 -135.42616858 597.74448631 -135.42682857 594.03027135 C-135.43293985 559.22290177 -135.42741033 524.41554254 -135.41663478 489.60817456 C-135.40714432 458.7171151 -135.40799361 427.82607213 -135.41755676 396.93501282 C-135.4282774 362.18930893 -135.43250635 327.44361419 -135.42633224 292.69790888 C-135.42569085 288.99065304 -135.42506516 285.2833972 -135.42444611 281.57614136 C-135.42420887 280.20701591 -135.42420887 280.20701591 -135.42396685 278.81023135 C-135.4216966 265.05644811 -135.42434369 251.30267149 -135.42940521 237.54888916 C-135.43513468 221.90254855 -135.43367076 206.25622672 -135.42284372 190.60988843 C-135.41699093 181.86458827 -135.41655908 173.11932883 -135.42413607 164.37402976 C-135.42864672 158.5198366 -135.42578338 152.66567583 -135.41712654 146.81148743 C-135.41240562 143.48455656 -135.41178678 140.15777147 -135.4179385 136.83083338 C-135.47748209 101.93523109 -131.70957465 72.38211064 -109.71931458 44.07319641 C-109.27684387 43.50270569 -108.83437317 42.93221497 -108.37849426 42.34443665 C-93.06891021 23.08497991 -71.65686667 10.63489355 -48.15681458 4.26069641 C-46.62927551 3.76376282 -46.62927551 3.76376282 -45.07087708 3.25679016 C-30.36899316 -0.78247681 -15.09639277 -0.0232349 0 0 Z M-42.15681458 15.26069641 C-43.64374817 15.5430011 -43.64374817 15.5430011 -45.16072083 15.83100891 C-60.13306046 19.07692071 -73.31016257 26.76792745 -85.15681458 36.26069641 C-86.12232239 37.03026672 -87.0878302 37.79983704 -88.08259583 38.59272766 C-106.74734951 54.51188816 -118.78425981 78.12091096 -122.15681458 102.26069641 C-122.41629734 106.27078084 -122.42612786 110.26392317 -122.40849686 114.28139496 C-122.41140374 115.44732766 -122.41431062 116.61326036 -122.41730559 117.81452435 C-122.42332105 121.03332482 -122.42045839 124.25197204 -122.41374968 127.47076645 C-122.40865539 130.97923494 -122.41520436 134.48768553 -122.42023635 137.99615145 C-122.42744718 144.13946985 -122.42724831 150.28275307 -122.42214203 156.42607307 C-122.41456941 165.56148682 -122.41844853 174.69687095 -122.42455864 183.8322845 C-122.43508593 200.14919609 -122.43417901 216.46609202 -122.42840082 232.7830051 C-122.42336906 247.06223742 -122.42205661 261.341464 -122.42444611 275.62069702 C-122.42459888 276.56799206 -122.42475165 277.51528709 -122.42490905 278.49128804 C-122.42553173 282.33669884 -122.42616853 286.18210964 -122.42682857 290.02752043 C-122.43294613 326.09801727 -122.42740035 362.16850414 -122.41663478 398.23899943 C-122.40714362 430.28318372 -122.40799288 462.32735211 -122.41755676 494.37153625 C-122.42826678 530.37620077 -122.43251227 566.38085648 -122.42633224 602.38552237 C-122.4256908 606.22391351 -122.42506512 610.06230465 -122.42444611 613.9006958 C-122.42428795 614.84580072 -122.4241298 615.79090564 -122.42396685 616.76465011 C-122.42169222 631.03466133 -122.42435188 645.30466618 -122.42940521 659.57467651 C-122.43512262 675.80083561 -122.4336964 692.02697658 -122.42284372 708.25313342 C-122.41697068 717.33354714 -122.4165885 726.41392164 -122.42413607 735.49433435 C-122.4286222 741.56073637 -122.42582722 747.62710696 -122.41712654 753.69350432 C-122.41237194 757.14916065 -122.41073612 760.60473906 -122.4179385 764.06039292 C-122.42401366 767.78700284 -122.41778794 771.5133991 -122.40849686 775.23999786 C-122.41317919 776.30693302 -122.41786152 777.37386817 -122.42268574 778.4731347 C-122.30825981 801.41282945 -113.26626025 824.10397852 -98.15681458 841.26069641 C-97.48134583 842.0792511 -96.80587708 842.89780579 -96.10993958 843.74116516 C-77.58525874 865.54484973 -51.08251061 875.74878525 -23.15681458 878.26069641 C-13.94899516 878.7638004 -4.72473017 878.66291844 4.49337769 878.63491821 C7.24167181 878.63599777 9.98995283 878.64159697 12.73824149 878.64696187 C18.67848998 878.65618882 24.61865349 878.65445842 30.55890083 878.64522934 C39.39255127 878.63154306 48.22613734 878.63522322 57.05979261 878.64218794 C72.84198402 878.65407544 88.6241353 878.64905857 104.40632446 878.63690967 C118.21613575 878.62635207 132.02593339 878.62183691 145.83574867 878.62320518 C146.7536135 878.62328922 147.67147833 878.62337325 148.61715725 878.62345982 C152.34351727 878.6238121 156.06987728 878.62419612 159.79623729 878.6246254 C194.71233423 878.62858554 229.62840706 878.6158953 264.5444971 878.59509884 C295.53639994 878.57672641 326.52827968 878.57091822 357.52018738 878.57637024 C359.51075062 878.57671667 361.50131386 878.57706277 363.4918771 878.57740853 C364.47599497 878.57757952 365.46011283 878.57775052 366.47405245 878.5779267 C371.42842707 878.5787803 376.38280169 878.57960408 381.33717632 878.5803957 C382.80345166 878.58063132 382.80345166 878.58063132 384.29934873 878.5808717 C410.23181846 878.58486507 436.16428598 878.57938181 462.09675437 878.57088441 C464.88828802 878.56997741 467.67982166 878.56907176 470.4713553 878.56816918 C472.3230125 878.56756807 474.1746697 878.56695945 476.02632689 878.56634327 C488.91336114 878.56212867 501.80039103 878.5615408 514.68742575 878.56344876 C531.29591006 878.56589558 547.904371 878.56178867 564.51284894 878.54623876 C573.28745623 878.53821186 582.06202462 878.53556967 590.83663421 878.54088112 C596.70777736 878.54387194 602.57888631 878.53951234 608.4500213 878.52933254 C611.78825334 878.52374075 615.1263418 878.5222598 618.46458396 878.52749912 C645.42418921 878.5659555 667.96749184 876.47830138 691.84318542 863.26069641 C692.8306073 862.71671204 693.81802917 862.17272766 694.83537292 861.61225891 C718.71837876 847.42090762 732.65079701 823.78026668 740.32170105 797.75679016 C741.9305047 790.05622436 741.98687895 782.3503188 741.97181988 774.52012157 C741.97357291 773.36017291 741.97532595 772.20022424 741.97713211 771.00512561 C741.98097454 767.79381767 741.98036746 764.58254664 741.97785434 761.37123854 C741.97621646 757.87431388 741.98036608 754.37739521 741.98376352 750.88047248 C741.98891114 744.75429293 741.99033582 738.62812128 741.9893074 732.50193977 C741.98778182 723.39191843 741.99194568 714.28190582 741.99718203 705.17188618 C742.00685195 687.9545299 742.00966613 670.73717659 742.01023909 653.51981791 C742.01069864 640.22446237 742.01275702 626.92910799 742.01593971 613.63375282 C742.01683725 609.80664708 742.01772707 605.97954134 742.01861459 602.1524356 C742.01883564 601.20100817 742.01905669 600.24958074 742.01928443 599.26932218 C742.02543839 572.50849307 742.02938502 545.74766437 742.02894115 518.98683453 C742.02892558 517.97793773 742.02891 516.96904094 742.02889395 515.92957152 C742.02881084 510.81606135 742.0287118 505.70255118 742.02860924 500.58904102 C742.02858929 499.57347865 742.02856935 498.55791629 742.0285488 497.5115793 C742.02850836 495.45786539 742.02846656 493.40415147 742.02842341 491.35043755 C742.02781057 459.39384286 742.03531881 427.43725877 742.04899597 395.48066711 C742.06435561 359.57818815 742.07296228 323.67571616 742.07203275 287.77323371 C742.07195812 283.94518491 742.07190941 280.1171361 742.07187843 276.2890873 C742.07186678 275.3465231 742.07185512 274.4039589 742.07184312 273.43283215 C742.07181234 258.26360552 742.07819855 243.09438811 742.0868107 227.92516423 C742.09528634 212.6811476 742.0962778 197.43714444 742.08970138 182.19312676 C742.08600527 173.13737151 742.08783992 164.08165719 742.09764372 155.02590627 C742.10364132 148.97459642 742.10235068 142.92331623 742.09517322 136.87200775 C742.09128991 133.42575389 742.09052127 129.97957928 742.09863057 126.533331 C742.10568545 122.81507957 742.10040081 119.09703895 742.09207439 115.37879467 C742.09952666 113.78628795 742.09952666 113.78628795 742.10712948 112.16160938 C741.9937095 88.19981203 732.71863006 67.62342477 717.84318542 49.26069641 C717.3043573 48.55686829 716.76552917 47.85304016 716.21037292 47.12788391 C701.07464905 28.34133216 675.76464133 16.32611969 652.23227082 13.47155025 C647.57389552 13.06041538 642.90884968 13.1230879 638.23568916 13.13206196 C637.07798352 13.13030892 635.92027788 13.12855588 634.72749025 13.12674972 C631.51782468 13.12290301 628.30819596 13.12351651 625.09853023 13.1260275 C621.60515385 13.12766368 618.11178349 13.12351716 614.61840904 13.12011832 C608.49696843 13.11496798 602.37553573 13.11354648 596.25409317 13.11457443 C587.15120953 13.11609931 578.04833463 13.11193774 568.94545269 13.10669981 C551.74225403 13.09702742 534.53905835 13.09421562 517.33585729 13.09364275 C504.05237902 13.0931833 490.76890193 13.09112543 477.48542404 13.08794212 C473.66251783 13.08704459 469.83961161 13.08615478 466.01670539 13.08526725 C465.06633861 13.0850462 464.11597183 13.08482515 463.13680606 13.0845974 C436.40419816 13.07844306 409.67159066 13.07449686 382.93898201 13.07494068 C381.93105162 13.07495626 380.92312124 13.07497184 379.88464751 13.07498789 C374.77596714 13.075071 369.66728677 13.07517004 364.5586064 13.0752726 C363.03668516 13.07530252 363.03668516 13.07530252 361.48401804 13.07533304 C359.43222167 13.07537347 357.38042531 13.07541527 355.32862895 13.07545843 C323.399069 13.07607132 291.46951968 13.0685622 259.53996277 13.05488586 C223.67303506 13.0395294 187.80611432 13.03091936 151.93918312 13.03184909 C148.11564819 13.03192372 144.29211326 13.03197242 140.46857834 13.0320034 C139.05638475 13.03202088 139.05638475 13.03202088 137.61566199 13.03203872 C122.45807325 13.03206951 107.30049372 13.02568079 92.14290772 13.01707114 C76.91336634 13.00859943 61.68383844 13.00760094 46.45429601 13.01418046 C37.40479069 13.01787917 28.35532632 13.01603416 19.30582532 13.00623812 C13.2611988 13.00024721 7.216602 13.00152368 1.17197685 13.00870862 C-2.27211787 13.0125976 -5.71613322 13.01334428 -9.1602224 13.00525127 C-12.87276677 12.99821379 -16.58509895 13.00346733 -20.29763603 13.01180744 C-21.89604604 13.00435517 -21.89604604 13.00435517 -23.52674717 12.99675235 C-29.9744704 13.02744524 -35.88512739 13.78860638 -42.15681458 15.26069641 Z " fill="#FAFCF8" transform="translate(230.1568145751953,94.73930358886719)"/>
<path d="M0 0 C2.64 0 5.28 0 8 0 C8 225.06 8 450.12 8 682 C15.59 678.04 23.18 674.08 31 670 C35.31845178 667.80080857 39.63776479 665.60996527 43.97301102 663.4449873 C45.09609354 662.88212012 46.21917607 662.31925295 47.37629139 661.73932919 C50.41800348 660.21495416 53.46088087 658.69291976 56.50400299 657.171362 C59.84293745 655.50134894 63.18072517 653.82904645 66.51867747 652.15707141 C73.10411484 648.85887918 79.6905919 645.56276845 86.27741641 642.2673475 C94.17979368 638.3136308 102.08103403 634.35764423 109.98228301 630.40167333 C129.95498278 620.40198407 149.92998469 610.40689722 169.9053241 600.41248223 C175.31528994 597.70566058 180.72519085 594.99870917 186.13507748 592.29172921 C219.74965631 575.47181971 253.3648765 558.65319272 286.9820137 541.83839703 C294.74810979 537.95388852 302.51419653 534.06936132 310.28027344 530.18481445 C311.24502253 529.70225445 312.20977161 529.21969446 313.20375552 528.72251143 C344.55847283 513.03906049 375.90941703 497.34808563 407.25824556 481.65286763 C439.51587196 465.50268662 471.77670664 449.358934 504.04183649 433.22374827 C508.59213671 430.94822794 513.14240287 428.67263952 517.69264984 426.39701271 C518.58812588 425.94917939 519.48360191 425.50134606 520.40621358 425.03994203 C534.83708677 417.82274628 549.26458908 410.59883675 563.69088502 403.3724968 C578.16312686 396.12334032 592.63900357 388.88148608 607.1186637 381.64715811 C615.72855092 377.34521375 624.33558495 373.0376729 632.93870953 368.72221977 C638.67531554 365.8453362 644.41547969 362.97564445 650.15866816 360.1119243 C653.43678577 358.47709932 656.7131916 356.8390616 659.9853262 355.19228955 C663.49949534 353.42379991 667.02116688 351.67062976 670.5438118 349.91907787 C671.5721808 349.39846876 672.60054981 348.87785965 673.66008151 348.3414745 C674.59265139 347.88093591 675.52522127 347.42039731 676.48605084 346.945903 C677.29153614 346.54288228 678.09702143 346.13986155 678.92691536 345.72462807 C681 345 681 345 684 346 C683.02406824 348.60334151 682.4225382 349.77335583 679.93389893 351.10823059 C679.03693298 351.42934311 678.13996704 351.75045563 677.21582031 352.08129883 C671.35306782 354.37316634 665.75744519 357.01945584 660.13574219 359.8503418 C659.22383747 360.30896008 658.31193275 360.76757837 657.37239456 361.24009418 C655.43666402 362.21589058 653.50166822 363.19314563 651.56734467 364.17172813 C648.49157072 365.72718684 645.41287145 367.27671003 642.33331299 368.82466125 C633.58643668 373.22240336 624.84421076 377.62933026 616.10546875 382.04321289 C610.73934927 384.75309297 605.36933327 387.45511559 599.99686432 390.1523838 C597.95885681 391.17757801 595.92237043 392.20580214 593.88747406 393.23715782 C591.04418169 394.67808047 588.19605213 396.10898885 585.34667969 397.5378418 C584.51532501 397.96228073 583.68397034 398.38671967 582.8274231 398.82402039 C577.93139388 401.26389663 573.356724 402.86914402 568 404 C568 404.66 568 405.32 568 406 C565.50494359 407.30203187 563.00462318 408.59160266 560.5 409.875 C559.80390625 410.23980469 559.1078125 410.60460937 558.390625 410.98046875 C553.64979323 413.39478122 549.20498481 414.88632082 544 416 C544 416.66 544 417.32 544 418 C525.88932469 427.10209068 507.77405683 436.19497663 489.65329742 445.27697563 C481.23932975 449.49426519 472.82688253 453.71453569 464.41796875 457.94189453 C457.08742865 461.62711999 449.75407866 465.30668223 442.41732168 468.97951615 C438.53388619 470.92383762 434.65190103 472.87093548 430.77326965 474.82482529 C427.11932896 476.66541351 423.46166558 478.49838136 419.80106354 480.32568359 C418.46136554 480.99608087 417.12302672 481.6692026 415.78620148 482.34531021 C409.31999379 485.61379151 403.17586053 488.6649351 396 490 C396 490.66 396 491.32 396 492 C393.50494359 493.30203187 391.00462318 494.59160266 388.5 495.875 C387.80390625 496.23980469 387.1078125 496.60460937 386.390625 496.98046875 C381.64979323 499.39478122 377.20498481 500.88632082 372 502 C372 502.66 372 503.32 372 504 C354.96449816 512.541151 337.92668397 521.07767205 320.88613319 529.60874557 C312.97328711 533.57031649 305.06119382 537.53337701 297.15087891 541.5 C290.2531749 544.95884502 283.3540511 548.41483885 276.45323503 551.86747098 C272.80217247 553.69430154 269.1518179 555.52251489 265.50316238 557.35414886 C262.06254207 559.08129221 258.62002269 560.80459089 255.17606735 562.52507401 C253.9185431 563.1541092 252.66169355 563.78449551 251.40560913 564.41640091 C245.06693084 567.60426287 238.74964295 570.63900395 232.11622429 573.16618347 C228.66709763 574.52517875 225.38969201 576.20005634 222.09375 577.890625 C221.40236938 578.24010193 220.71098877 578.58957886 219.99865723 578.949646 C217.83040524 580.04580896 215.66489366 581.14722098 213.5 582.25 C210.61687473 583.71811773 207.73114911 585.18093443 204.84375 586.640625 C204.18548218 586.97805725 203.52721436 587.3154895 202.84899902 587.66314697 C198.22551165 590 198.22551165 590 196 590 C196 590.66 196 591.32 196 592 C192.8367619 593.61099198 189.66881744 595.21251423 186.5 596.8125 C185.613125 597.26431641 184.72625 597.71613281 183.8125 598.18164062 C179.7526624 600.2264853 175.75000469 602.16148961 171.46875 603.69921875 C167.99520463 604.72892674 167.99520463 604.72892674 166 607 C164.01178687 607.39764263 162.01055661 607.73775349 160 608 C160 608.66 160 609.32 160 610 C158.80375 610.4125 157.6075 610.825 156.375 611.25 C153.47850383 612.32088767 151.47602021 613.35630626 148.875 615.125 C145.80490282 617.12723729 143.61348451 617.65585862 140 618 C140 618.66 140 619.32 140 620 C138.75264433 620.6509259 137.50198168 621.29551669 136.25 621.9375 C135.55390625 622.29714844 134.8578125 622.65679688 134.140625 623.02734375 C132 624 132 624 129.8203125 624.4765625 C127.70683532 624.85395021 127.70683532 624.85395021 126.625 627.4375 C124.4918812 630.80126426 122.75634072 630.89519391 119 632 C118.01 632.66 117.02 633.32 116 634 C112.99727182 636.00181879 110.39819024 636.86726992 107 638 C106.01 638.66 105.02 639.32 104 640 C100.99727182 642.00181879 98.39819024 642.86726992 95 644 C94.01 644.66 93.02 645.32 92 646 C88.99727182 648.00181879 86.39819024 648.86726992 83 650 C82.01 650.66 81.02 651.32 80 652 C76.99727182 654.00181879 74.39819024 654.86726992 71 656 C70.01 656.66 69.02 657.32 68 658 C64.99727182 660.00181879 62.39819024 660.86726992 59 662 C58.01 662.66 57.02 663.32 56 664 C52.99727182 666.00181879 50.39819024 666.86726992 47 668 C46.01 668.66 45.02 669.32 44 670 C40.99727182 672.00181879 38.39819024 672.86726992 35 674 C34.01 674.66 33.02 675.32 32 676 C28.99727182 678.00181879 26.39819024 678.86726992 23 680 C22.01 680.66 21.02 681.32 20 682 C16.98365923 684.01089385 14.46093483 684.99056067 11 686 C10.030625 686.4125 9.06125 686.825 8.0625 687.25 C3.9971398 688.24559842 1.78306705 687.74603094 -2 686 C-4.32907813 681.04317699 -4.28004062 676.29801228 -4.24723816 670.94232178 C-4.24965434 670.03397711 -4.25207053 669.12563244 -4.25455993 668.18976218 C-4.26021395 665.12871425 -4.25151311 662.06787467 -4.24291992 659.00683594 C-4.24396902 656.78681477 -4.24588334 654.56679387 -4.24858665 652.3467741 C-4.25342481 646.20188893 -4.24554148 640.05707449 -4.23559308 633.91219783 C-4.22774873 627.89946782 -4.22920577 621.88674385 -4.23018648 615.87401053 C-4.23198948 601.85784581 -4.21958922 587.84171374 -4.20308512 573.82556027 C-4.19029159 562.88772589 -4.18149456 551.94989444 -4.17523193 541.01205444 C-4.1496094 497.31363117 -4.09505185 453.61527824 -4.02744627 409.91690105 C-4.00685073 396.59440344 -3.9872691 383.27190464 -3.96818397 369.94940479 C-3.89677347 320.21316942 -3.81351229 270.47697191 -3.70765209 220.74079704 C-3.70533723 219.65292963 -3.70302236 218.56506222 -3.70063734 217.44422913 C-3.69129644 213.05744856 -3.68195513 208.67066799 -3.67256332 204.28388752 C-3.63975855 188.9308696 -3.61079326 173.57784882 -3.5845549 158.22481834 C-3.5504721 138.2868891 -3.50975805 118.34899181 -3.45751089 98.41110128 C-3.43219936 88.68890597 -3.41002324 78.96672844 -3.39660454 69.24450874 C-3.38539785 61.12905366 -3.36761642 53.01364875 -3.34081415 44.8982295 C-3.32745757 40.79377308 -3.31730297 36.68937495 -3.31578958 32.58489561 C-3.31433828 28.84702027 -3.30379361 25.10928728 -3.28586633 21.37145566 C-3.27870877 19.38286984 -3.28135513 17.39425621 -3.28433555 15.40565974 C-3.27687012 14.22868523 -3.26940469 13.05171072 -3.26171303 11.83907032 C-3.25943471 10.82450947 -3.25715638 9.80994861 -3.25480902 8.76464349 C-2.95986863 5.56458001 -2.3496298 2.3496298 0 0 Z " fill="#7DB568" transform="translate(193,200)"/>
<path d="M0 0 C1.32 0 2.64 0 4 0 C4 222.09 4 444.18 4 673 C2.68 673 1.36 673 0 673 C-1.19832932 670.60334135 -1.12513212 669.13302891 -1.12534916 666.45669407 C-1.12910444 665.00975224 -1.12910444 665.00975224 -1.13293558 663.53357926 C-1.13059442 662.46420769 -1.12825325 661.39483612 -1.12584114 660.29305935 C-1.1280213 658.59323166 -1.1280213 658.59323166 -1.13024551 656.85906401 C-1.13328356 653.69016295 -1.13179639 650.52129983 -1.12846755 647.35240019 C-1.12594397 643.91377832 -1.12918553 640.47516129 -1.13171089 637.03654009 C-1.13533351 631.00219765 -1.13520632 624.96786414 -1.13266373 618.93352127 C-1.12889313 609.96053865 -1.13080877 600.98756361 -1.13387203 592.01458104 C-1.13914786 575.99242987 -1.1386774 559.97028269 -1.13579312 543.94813114 C-1.13328148 529.92783349 -1.13261903 515.90753729 -1.13381577 501.88723946 C-1.13389215 500.95866972 -1.13396854 500.03009998 -1.13404724 499.07339176 C-1.13435855 495.30441094 -1.13467695 491.53543011 -1.135007 487.76644929 C-1.13806863 452.38306421 -1.13528832 416.99968166 -1.1299101 381.61629697 C-1.12516381 350.15101628 -1.12558915 318.68573964 -1.13037109 287.22045898 C-1.13572064 251.90191462 -1.13785193 216.5833725 -1.13475883 181.26482779 C-1.13443809 177.50286679 -1.13412525 173.74090578 -1.13381577 169.97894478 C-1.13373669 169.05259438 -1.13365761 168.12624398 -1.13357614 167.17182236 C-1.1324366 153.15650357 -1.13377276 139.14118641 -1.13629532 125.12586784 C-1.13914783 109.19748179 -1.13845418 93.26910034 -1.13301457 77.34071486 C-1.13006765 68.41600126 -1.12990187 59.49129765 -1.13366075 50.56658429 C-1.13589137 44.61641468 -1.13452905 38.66625312 -1.13015598 32.71608471 C-1.12776124 29.31846907 -1.12699661 25.92087337 -1.13056196 22.52325832 C-1.13356234 18.87585235 -1.13052523 15.22850245 -1.12584114 11.58109951 C-1.12818231 10.50938677 -1.13052347 9.43767404 -1.13293558 8.33348516 C-1.13043207 7.37136079 -1.12792855 6.40923642 -1.12534916 5.41795677 C-1.1252814 4.58250408 -1.12521365 3.7470514 -1.12514383 2.88628196 C-1 1 -1 1 0 0 Z " fill="#090D07" transform="translate(197,206)"/>
<path d="M0 0 C0 1.32 0 2.64 0 4 C-1.32 4.33 -2.64 4.66 -4 5 C-4 226.76 -4 448.52 -4 677 C-2.68 677 -1.36 677 0 677 C0 677.99 0 678.98 0 680 C0.99 679.67 1.98 679.34 3 679 C3 679.66 3 680.32 3 681 C-0.04983996 682.52491998 -2.6423369 682.23562548 -6 682 C-8.19565619 680.42138253 -8.90741288 679.53045344 -9.3754315 676.84906429 C-9.37563478 676.00666024 -9.37583805 675.16425618 -9.37604749 674.29632473 C-9.38355805 673.3213615 -9.3910686 672.34639827 -9.39880675 671.34189069 C-9.39178325 670.26609176 -9.38475975 669.19029282 -9.37752342 668.08189392 C-9.38188374 666.93799057 -9.38624407 665.79408721 -9.39073652 664.61552012 C-9.39984083 661.42119641 -9.39539785 658.22721235 -9.38540266 655.03290148 C-9.37782409 651.56505176 -9.38755971 648.09724493 -9.39513266 644.62940121 C-9.40599485 638.5452354 -9.40562247 632.46114937 -9.39799118 626.37697983 C-9.38667413 617.32983305 -9.39242906 608.28275394 -9.4016161 599.23560765 C-9.41743969 583.08027881 -9.41603368 566.92498548 -9.40737936 550.76965323 C-9.39984285 536.63214741 -9.39785784 522.49465463 -9.4014473 508.35714722 C-9.40167645 507.42061839 -9.40190561 506.48408956 -9.40214171 505.51918107 C-9.40307567 501.71783234 -9.40403086 497.91648363 -9.405021 494.11513492 C-9.41420506 458.43065289 -9.40586642 422.74619353 -9.38973031 387.06171499 C-9.37549271 355.33442545 -9.37676656 323.60717203 -9.39111328 291.87988281 C-9.40716527 256.26209362 -9.41355382 220.64432448 -9.40427649 185.02653217 C-9.40331429 181.23197238 -9.40237577 177.43741258 -9.4014473 173.64285278 C-9.40121006 172.70848483 -9.40097283 171.77411687 -9.40072841 170.81143474 C-9.39731107 156.68026375 -9.40131597 142.54910722 -9.40888596 128.41793823 C-9.41744734 112.35567193 -9.41535436 96.29344682 -9.39904372 80.23118567 C-9.3902092 71.23354155 -9.38969662 62.23598653 -9.40098225 53.23834465 C-9.40768163 47.23703789 -9.40357335 41.23580294 -9.39046794 35.23450686 C-9.3832942 31.80930187 -9.38096823 28.38427459 -9.39168589 24.95907485 C-9.40070971 21.27857724 -9.39155261 17.59857698 -9.37752342 13.91810608 C-9.38454692 12.84230714 -9.39157042 11.76650821 -9.39880675 10.65810931 C-9.3912962 9.68314608 -9.38378564 8.70818284 -9.37604749 7.70367527 C-9.37584421 6.86127122 -9.37564094 6.01886716 -9.3754315 5.15093571 C-8.42516341 -0.29337453 -4.84296255 -0.32286417 0 0 Z " fill="#63884D" transform="translate(201,202)"/>
<path d="M0 0 C-0.97593176 2.60334151 -1.5774618 3.77335583 -4.06610107 5.10823059 C-4.96306702 5.42934311 -5.86003296 5.75045563 -6.78417969 6.08129883 C-12.64693218 8.37316634 -18.24255481 11.01945584 -23.86425781 13.8503418 C-24.77616253 14.30896008 -25.68806725 14.76757837 -26.62760544 15.24009418 C-28.56333598 16.21589058 -30.49833178 17.19314563 -32.43265533 18.17172813 C-35.50842928 19.72718684 -38.58712855 21.27671003 -41.66668701 22.82466125 C-50.41356332 27.22240336 -59.15578924 31.62933026 -67.89453125 36.04321289 C-73.26065073 38.75309297 -78.63066673 41.45511559 -84.00313568 44.1523838 C-86.04114319 45.17757801 -88.07762957 46.20580214 -90.11252594 47.23715782 C-92.95581831 48.67808047 -95.80394787 50.10898885 -98.65332031 51.5378418 C-99.48467499 51.96228073 -100.31602966 52.38671967 -101.1725769 52.82402039 C-106.06860612 55.26389663 -110.643276 56.86914402 -116 58 C-116 58.66 -116 59.32 -116 60 C-118.49505641 61.30203187 -120.99537682 62.59160266 -123.5 63.875 C-124.19609375 64.23980469 -124.8921875 64.60460937 -125.609375 64.98046875 C-130.35020677 67.39478122 -134.79501519 68.88632082 -140 70 C-140 70.66 -140 71.32 -140 72 C-158.11067531 81.10209068 -176.22594317 90.19497663 -194.34670258 99.27697563 C-202.76067025 103.49426519 -211.17311747 107.71453569 -219.58203125 111.94189453 C-226.91257135 115.62711999 -234.24592134 119.30668223 -241.58267832 122.97951615 C-245.46611381 124.92383762 -249.34809897 126.87093548 -253.22673035 128.82482529 C-256.88067104 130.66541351 -260.53833442 132.49838136 -264.19893646 134.32568359 C-265.53863446 134.99608087 -266.87697328 135.6692026 -268.21379852 136.34531021 C-274.68000621 139.61379151 -280.82413947 142.6649351 -288 144 C-288 144.66 -288 145.32 -288 146 C-290.49505641 147.30203187 -292.99537682 148.59160266 -295.5 149.875 C-296.19609375 150.23980469 -296.8921875 150.60460937 -297.609375 150.98046875 C-302.35020677 153.39478122 -306.79501519 154.88632082 -312 156 C-312 156.66 -312 157.32 -312 158 C-329.03550184 166.541151 -346.07331603 175.07767205 -363.11386681 183.60874557 C-371.02671289 187.57031649 -378.93880618 191.53337701 -386.84912109 195.5 C-393.7468251 198.95884502 -400.6459489 202.41483885 -407.54676497 205.86747098 C-411.19782753 207.69430154 -414.8481821 209.52251489 -418.49683762 211.35414886 C-421.93745793 213.08129221 -425.37997731 214.80459089 -428.82393265 216.52507401 C-430.0814569 217.1541092 -431.33830645 217.78449551 -432.59439087 218.41640091 C-438.93306916 221.60426287 -445.25035705 224.63900395 -451.88377571 227.16618347 C-455.33290237 228.52517875 -458.61030799 230.20005634 -461.90625 231.890625 C-462.94332092 232.41484039 -462.94332092 232.41484039 -464.00134277 232.949646 C-466.16959476 234.04580896 -468.33510634 235.14722098 -470.5 236.25 C-473.38312527 237.71811773 -476.26885089 239.18093443 -479.15625 240.640625 C-479.81451782 240.97805725 -480.47278564 241.3154895 -481.15100098 241.66314697 C-485.77448835 244 -485.77448835 244 -488 244 C-488 244.66 -488 245.32 -488 246 C-491.1632381 247.61099198 -494.33118256 249.21251423 -497.5 250.8125 C-498.8303125 251.49022461 -498.8303125 251.49022461 -500.1875 252.18164062 C-504.2473376 254.2264853 -508.24999531 256.16148961 -512.53125 257.69921875 C-516.00479537 258.72892674 -516.00479537 258.72892674 -518 261 C-519.98821313 261.39764263 -521.98944339 261.73775349 -524 262 C-524 262.66 -524 263.32 -524 264 C-525.19625 264.4125 -526.3925 264.825 -527.625 265.25 C-530.52149617 266.32088767 -532.52397979 267.35630626 -535.125 269.125 C-538.19509718 271.12723729 -540.38651549 271.65585862 -544 272 C-544 272.66 -544 273.32 -544 274 C-552.261959 278.40774487 -552.261959 278.40774487 -557 279 C-557 278.01 -557 277.02 -557 276 C-504.22869203 249.57156956 -451.45619394 223.14551647 -398.67707825 196.73268127 C-397.89649782 196.34204592 -397.11591739 195.95141056 -396.31168301 195.54893777 C-379.34941954 187.06032456 -362.38693359 178.57215601 -345.42421825 170.0844458 C-337.10625708 165.92234675 -328.78834511 161.7601494 -320.47045898 157.59790039 C-319.64270841 157.18369821 -318.81495783 156.76949602 -317.96212391 156.34274225 C-291.11036136 142.90619895 -264.26185628 129.46316169 -237.41502464 116.01676927 C-209.83688341 102.20413893 -182.25548524 88.39803407 -154.66994535 74.6001852 C-150.77775215 72.65336817 -146.88559643 70.70647621 -142.99346352 68.75953865 C-142.22740042 68.37633854 -141.46133732 67.99313844 -140.67206019 67.59832621 C-128.31800962 61.41834139 -115.96743325 55.23144398 -103.61812769 49.04198376 C-91.21654702 42.82650666 -78.81137031 36.61825732 -66.4024398 30.41746645 C-59.021307 26.72880808 -51.64304318 23.03454185 -44.26868859 19.33235044 C-38.77533131 16.57524752 -33.27686105 13.82849758 -27.77625791 11.08588172 C-25.54162437 9.96962889 -23.30870689 8.84993324 -21.07762256 7.72660332 C-18.06329318 6.20952276 -15.04317195 4.70468102 -12.0211668 3.20296383 C-11.14024047 2.75593313 -10.25931413 2.30890243 -9.35169306 1.84832534 C-8.55083805 1.45351607 -7.74998305 1.0587068 -6.9248597 0.65193361 C-6.23402152 0.30612457 -5.54318333 -0.03968448 -4.83141066 -0.39597258 C-3 -1 -3 -1 0 0 Z " fill="#92A98A" transform="translate(877,546)"/>
<path d="M0 0 C-2.2123981 2.44984756 -4.27997676 3.78744255 -7.2734375 5.15625 C-8.0984375 5.53910156 -8.9234375 5.92195312 -9.7734375 6.31640625 C-10.63195312 6.70699219 -11.49046875 7.09757813 -12.375 7.5 C-17.40364113 9.80860343 -22.27511448 12.10774471 -27 15 C-28.90852382 15.69101724 -30.81713927 16.38178442 -32.7265625 17.0703125 C-36.26890276 18.51889838 -39.53239798 20.42666078 -42.87109375 22.2890625 C-46.23062163 24.12610771 -49.63402131 25.85925501 -53.0625 27.5625 C-53.71250977 27.88549072 -54.36251953 28.20848145 -55.03222656 28.54125977 C-56.49738087 29.26858729 -57.96272628 29.99552993 -59.42822266 30.72216797 C-64.70767773 33.34535649 -69.97782226 35.98722529 -75.25 38.625 C-78.45522574 40.22773282 -81.66054143 41.83028386 -84.86621094 43.43212891 C-86.95905058 44.47920091 -89.05084589 45.52836283 -91.14160156 46.57958984 C-97.14172349 49.59298018 -103.16893307 52.52894992 -109.25 55.375 C-120.78859454 60.81287447 -132.21992287 66.40434901 -143.3828125 72.58203125 C-147.07777679 74.58392982 -150.84610127 76.42763239 -154.61328125 78.2890625 C-159.43533039 80.72511501 -164.19568457 83.27506535 -168.94970703 85.84106445 C-172.2089113 87.58599583 -175.45562752 89.23850942 -178.86328125 90.67578125 C-181.95152619 91.87906327 -181.95152619 91.87906327 -184.375 93.5 C-187.31732031 95.18132589 -190.17203225 96.05878898 -193.42578125 96.9609375 C-195.77358288 97.90860857 -197.60774473 98.96807678 -199.7265625 100.33203125 C-204.00399874 103.07693146 -208.44511403 105.20554672 -213.0625 107.3125 C-219.02372478 110.08259017 -224.90887306 112.92827691 -230.6875 116.0625 C-237.47975955 119.74164059 -244.36088385 123.21592615 -251.28125 126.64648438 C-254.67091281 128.33401047 -258.05416665 130.03420997 -261.4375 131.734375 C-263.46694376 132.75309315 -265.49649695 133.77159291 -267.52609253 134.79000854 C-268.87254276 135.46606865 -270.21867879 136.14275495 -271.56448364 136.82009888 C-273.48083373 137.78433031 -275.39848575 138.74592807 -277.31640625 139.70703125 C-278.43474854 140.2688208 -279.55309082 140.83061035 -280.70532227 141.40942383 C-283.0493362 142.54104671 -285.37459087 143.60396811 -287.76831055 144.61645508 C-290.72188329 145.88093319 -293.25422408 147.34760191 -296 149 C-298.8919082 150.42804755 -301.82273512 151.77122859 -304.75 153.125 C-311.0937278 156.08995029 -317.33804434 159.17393193 -323.5 162.5 C-330.22743094 166.12537725 -337.0607383 169.45300957 -343.97998047 172.6953125 C-354.57417807 177.66249193 -364.99967242 182.91085462 -375.3125 188.4375 C-382.97475951 192.54142364 -390.78326274 196.285128 -398.66015625 199.95703125 C-405.55224742 203.18087447 -412.29184818 206.66186353 -419 210.25 C-426.51524272 214.24706756 -434.09631328 218.09088878 -441.72314453 221.86962891 C-446.19567533 224.09006828 -450.65946827 226.32802843 -455.125 228.5625 C-457.00517613 229.50266857 -458.88538376 230.44277415 -460.765625 231.3828125 C-461.65830078 231.82915039 -462.55097656 232.27548828 -463.47070312 232.73535156 C-470.43880208 236.21940104 -477.40690104 239.70345052 -484.375 243.1875 C-484.97957031 243.49042969 -485.58414063 243.79335938 -486.20703125 244.10546875 C-487.4732182 244.73718294 -488.74167518 245.36435694 -490.01171875 245.98828125 C-493.2569942 247.5892838 -496.44121218 249.23013684 -499.5625 251.0625 C-502.32631368 252.62028589 -505.03443352 253.89646468 -507.95703125 255.109375 C-516.47371052 258.8221912 -524.63479344 263.3717467 -532.83007812 267.73706055 C-537.55367387 270.24928118 -542.30488035 272.68826066 -547.1171875 275.02734375 C-549.24001129 276.07988672 -549.24001129 276.07988672 -552 278 C-552 276.35 -552 274.7 -552 273 C-550.21046815 272.16209211 -548.41830305 271.32980604 -546.625 270.5 C-545.62726563 270.0359375 -544.62953125 269.571875 -543.6015625 269.09375 C-541 268 -541 268 -539 268 C-539 267.34 -539 266.68 -539 266 C-538.030625 265.608125 -537.06125 265.21625 -536.0625 264.8125 C-532.21634424 263.18648293 -528.68689529 261.14006662 -525.11328125 258.98828125 C-523 258 -523 258 -519 258 C-519 257.34 -519 256.68 -519 256 C-517.948125 255.566875 -516.89625 255.13375 -515.8125 254.6875 C-513.62687983 253.75578144 -511.7129612 252.82157048 -509.6875 251.5625 C-507.27543428 250.16013621 -505.03174546 249.18719332 -502.4375 248.1875 C-497.26249933 246.18753734 -492.3867586 243.73228154 -487.46875 241.171875 C-485 240 -485 240 -483 240 C-483 239.34 -483 238.68 -483 238 C-477.48912586 235.21967017 -471.9755391 232.44481894 -466.45947266 229.67480469 C-464.58698968 228.73356346 -462.71523004 227.79088168 -460.84423828 226.84667969 C-458.14028108 225.48244315 -455.43368384 224.12356986 -452.7265625 222.765625 C-451.90322418 222.34879456 -451.07988586 221.93196411 -450.2315979 221.50250244 C-446.36767058 219.57017401 -442.5184631 217.77851493 -438.47994995 216.2409668 C-432.31337382 213.79368394 -426.43329238 210.84159872 -420.51367188 207.85449219 C-419.29396242 207.24271378 -418.07406764 206.63130472 -416.85400391 206.02023315 C-414.24801743 204.7141025 -411.64328997 203.40550697 -409.03953552 202.09493256 C-404.92380714 200.0234582 -400.80497102 197.95821637 -396.68566895 195.89385986 C-387.95472093 191.5173332 -379.2271991 187.13399635 -370.5 182.75 C-361.04888164 178.00240286 -351.5971705 173.25600765 -342.14156008 168.51736188 C-338.04415682 166.46367249 -333.94873615 164.4060966 -329.85478115 162.34554243 C-327.31678725 161.06910905 -324.77715671 159.79595989 -322.23706055 158.52371597 C-320.49233173 157.64857511 -318.74961884 156.76941884 -317.00695801 155.89016724 C-315.97530518 155.37427032 -314.94365234 154.85837341 -313.8807373 154.32684326 C-312.98115044 153.87482922 -312.08156357 153.42281517 -311.15471649 152.95710373 C-309 152 -309 152 -307 152 C-307 151.34 -307 150.68 -307 150 C-305.91460938 149.52949219 -304.82921875 149.05898438 -303.7109375 148.57421875 C-302.26558788 147.94539781 -300.82027746 147.31648677 -299.375 146.6875 C-298.66214844 146.37876953 -297.94929687 146.07003906 -297.21484375 145.75195312 C-293.95911992 144.33317439 -290.76842302 142.88208206 -287.6015625 141.26953125 C-285 140 -285 140 -283 140 C-283 139.34 -283 138.68 -283 138 C-282.19223114 137.66757797 -281.38446228 137.33515594 -280.55221558 136.99266052 C-266.46135651 131.01713599 -252.8580207 124.04106218 -239.19277811 117.16485143 C-235.60003224 115.35838585 -232.00461372 113.55725632 -228.40939331 111.75572205 C-219.31218766 107.19610766 -210.21843505 102.6296284 -201.125 98.0625 C-191.25561851 93.10574212 -181.38561952 88.15023461 -171.5117358 83.20244974 C-167.23870704 81.06095214 -162.96765819 78.91557036 -158.69808412 76.76719391 C-156.05520443 75.4383199 -153.41068947 74.11272692 -150.76570892 72.78804016 C-149.53705785 72.17183629 -148.30910162 71.55424478 -147.08188248 70.93519402 C-145.41247712 70.09331946 -143.74038577 69.25677731 -142.06814575 68.42054749 C-141.13210573 67.95030686 -140.19606571 67.48006624 -139.23166084 66.9955759 C-137 66 -137 66 -135 66 C-135 65.34 -135 64.68 -135 64 C-133.91460938 63.52949219 -132.82921875 63.05898438 -131.7109375 62.57421875 C-130.26558788 61.94539781 -128.82027746 61.31648677 -127.375 60.6875 C-126.66214844 60.37876953 -125.94929688 60.07003906 -125.21484375 59.75195312 C-121.95911992 58.33317439 -118.76842302 56.88208206 -115.6015625 55.26953125 C-113 54 -113 54 -111 54 C-111 53.34 -111 52.68 -111 52 C-110.09538528 51.61976685 -109.19077057 51.23953369 -108.25874329 50.84777832 C-97.40688588 46.225366 -86.88028503 41.04208891 -76.36198997 35.71031189 C-73.35046496 34.18454981 -70.33577409 32.66521529 -67.32014465 31.14758301 C-58.76009415 26.83877061 -50.20429917 22.52159517 -41.65405273 18.19335938 C-36.3943926 15.53141319 -31.12996635 12.87910967 -25.86236 10.23292542 C-23.86173763 9.22547521 -21.86299333 8.21428659 -19.86617088 7.19932556 C-17.09257876 5.78981389 -14.31312897 4.3925786 -11.53198242 2.99804688 C-10.70763702 2.57531494 -9.88329163 2.15258301 -9.03396606 1.71704102 C-8.27886246 1.34148071 -7.52375885 0.96592041 -6.74577332 0.57897949 C-6.09088016 0.24792961 -5.435987 -0.08312027 -4.76124859 -0.42420197 C-3 -1 -3 -1 0 0 Z " fill="#B3D2A8" transform="translate(872,552)"/>
<path d="M0 0 C0 0.66 0 1.32 0 2 C-1.32 2.33 -2.64 2.66 -4 3 C-4 224.76 -4 446.52 -4 675 C-2.68 675 -1.36 675 0 675 C0 676.32 0 677.64 0 679 C-2.375 679.125 -2.375 679.125 -5 679 C-7.47346798 676.52653202 -7.25039299 675.83796735 -7.251849 672.43334728 C-7.25974389 670.97857363 -7.25974389 670.97857363 -7.26779827 669.4944106 C-7.26120355 667.88158472 -7.26120355 667.88158472 -7.25447559 666.23617649 C-7.25768207 665.09680373 -7.26088855 663.95743097 -7.26419219 662.78353176 C-7.27110307 659.59731955 -7.26896356 656.41125595 -7.26313647 653.22504609 C-7.25898686 649.76766206 -7.26635629 646.31030018 -7.27228898 642.85292143 C-7.28107846 636.78558334 -7.28235339 630.718279 -7.27878571 624.65093613 C-7.27349446 615.6287831 -7.27955802 606.60666293 -7.28786864 597.58451347 C-7.30313961 580.53629575 -7.30481054 563.48809283 -7.30234561 546.43986971 C-7.30051562 533.27870747 -7.30226636 520.1175501 -7.30657005 506.95638847 C-7.30717244 505.06804875 -7.30777364 503.17970903 -7.30837366 501.2913693 C-7.30928087 498.44610544 -7.31018954 495.60084157 -7.31110601 492.75557771 C-7.31954024 466.28875529 -7.32386798 439.8219347 -7.31969929 413.35511112 C-7.31954291 412.35657099 -7.31938654 411.35803087 -7.31922542 410.32923195 C-7.31841959 405.26780327 -7.31757382 400.2063746 -7.31671212 395.14494593 C-7.31654103 394.13966286 -7.31636994 393.1343798 -7.31619367 392.09863361 C-7.31584702 390.06570543 -7.31549849 388.03277724 -7.31514808 385.99984905 C-7.3097896 354.35999577 -7.31772299 322.72017035 -7.33618164 291.08032227 C-7.35687781 255.56325675 -7.36762893 220.04620849 -7.36360615 184.5291366 C-7.36321078 180.7452335 -7.36284924 176.9613304 -7.36250877 173.17742729 C-7.36241804 172.24567914 -7.36232731 171.31393098 -7.36223383 170.35394804 C-7.36106577 156.26199533 -7.36773198 142.17006001 -7.37832069 128.07811165 C-7.39034437 112.0597413 -7.39196446 96.04140934 -7.37953053 80.02303845 C-7.37287779 71.04983657 -7.37458824 62.07672634 -7.38811904 53.1035317 C-7.39631978 47.11848622 -7.39372346 41.13350991 -7.38214377 35.14847013 C-7.37584352 31.73253153 -7.37439799 28.31677269 -7.38600711 24.90084399 C-7.39599228 21.23027934 -7.38779527 17.56020855 -7.37473011 13.88966465 C-7.38203946 12.81678856 -7.3893488 11.74391247 -7.39687964 10.63852498 C-7.38962531 9.66617236 -7.38237098 8.69381973 -7.37489682 7.69200188 C-7.37491729 6.85186977 -7.37493775 6.01173767 -7.37495883 5.14614702 C-7 3 -7 3 -5.72656895 1.20674988 C-4 0 -4 0 0 0 Z " fill="#425A34" transform="translate(201,204)"/>
<path d="M0 0 C1.32 0 2.64 0 4 0 C4 0.99 4 1.98 4 3 C3.01 3.495 3.01 3.495 2 4 C2 223.78 2 443.56 2 670 C2.66 670.33 3.32 670.66 4 671 C4 671.66 4 672.32 4 673 C2.68 673 1.36 673 0 673 C-1.19832932 670.60334135 -1.12513212 669.13302891 -1.12534916 666.45669407 C-1.12910444 665.00975224 -1.12910444 665.00975224 -1.13293558 663.53357926 C-1.13059442 662.46420769 -1.12825325 661.39483612 -1.12584114 660.29305935 C-1.1280213 658.59323166 -1.1280213 658.59323166 -1.13024551 656.85906401 C-1.13328356 653.69016295 -1.13179639 650.52129983 -1.12846755 647.35240019 C-1.12594397 643.91377832 -1.12918553 640.47516129 -1.13171089 637.03654009 C-1.13533351 631.00219765 -1.13520632 624.96786414 -1.13266373 618.93352127 C-1.12889313 609.96053865 -1.13080877 600.98756361 -1.13387203 592.01458104 C-1.13914786 575.99242987 -1.1386774 559.97028269 -1.13579312 543.94813114 C-1.13328148 529.92783349 -1.13261903 515.90753729 -1.13381577 501.88723946 C-1.13389215 500.95866972 -1.13396854 500.03009998 -1.13404724 499.07339176 C-1.13435855 495.30441094 -1.13467695 491.53543011 -1.135007 487.76644929 C-1.13806863 452.38306421 -1.13528832 416.99968166 -1.1299101 381.61629697 C-1.12516381 350.15101628 -1.12558915 318.68573964 -1.13037109 287.22045898 C-1.13572064 251.90191462 -1.13785193 216.5833725 -1.13475883 181.26482779 C-1.13443809 177.50286679 -1.13412525 173.74090578 -1.13381577 169.97894478 C-1.13373669 169.05259438 -1.13365761 168.12624398 -1.13357614 167.17182236 C-1.1324366 153.15650357 -1.13377276 139.14118641 -1.13629532 125.12586784 C-1.13914783 109.19748179 -1.13845418 93.26910034 -1.13301457 77.34071486 C-1.13006765 68.41600126 -1.12990187 59.49129765 -1.13366075 50.56658429 C-1.13589137 44.61641468 -1.13452905 38.66625312 -1.13015598 32.71608471 C-1.12776124 29.31846907 -1.12699661 25.92087337 -1.13056196 22.52325832 C-1.13356234 18.87585235 -1.13052523 15.22850245 -1.12584114 11.58109951 C-1.12818231 10.50938677 -1.13052347 9.43767404 -1.13293558 8.33348516 C-1.13043207 7.37136079 -1.12792855 6.40923642 -1.12534916 5.41795677 C-1.1252814 4.58250408 -1.12521365 3.7470514 -1.12514383 2.88628196 C-1 1 -1 1 0 0 Z " fill="#1D2917" transform="translate(197,206)"/>
<path d="M0 0 C0.66 0.33 1.32 0.66 2 1 C1.67534022 1.69120318 1.35068044 2.38240635 1.01618248 3.09455508 C-0.14176613 6.40533436 -0.25358319 8.98223361 -0.25891972 12.48711872 C-0.26261618 13.12782278 -0.26631265 13.76852684 -0.27012113 14.42864618 C-0.28009837 16.57867829 -0.27587435 18.72844637 -0.27174377 20.87849426 C-0.27603067 22.43507426 -0.28119388 23.99165206 -0.28715843 25.54822654 C-0.30103857 29.82984013 -0.30251442 34.11138273 -0.30201519 38.3930155 C-0.30365147 43.01232642 -0.31677888 47.63160607 -0.32855225 52.25090027 C-0.34744549 60.26813959 -0.35913909 68.28536365 -0.36609077 76.30262184 C-0.37628819 87.95521998 -0.39837834 99.60777261 -0.42347669 111.26034709 C-0.4641309 130.24622761 -0.49654874 149.23211254 -0.52319336 168.21801758 C-0.54891211 186.52303484 -0.57615526 204.8280475 -0.60717773 223.13305664 C-0.60907388 224.25306074 -0.61097003 225.37306484 -0.61292363 226.52700845 C-0.64315953 244.29859934 -0.67649823 262.07018368 -0.71177601 279.84176525 C-0.73487146 291.47661264 -0.75605361 303.11145484 -0.77020454 314.74631691 C-0.82435476 359.17421858 -0.94961577 403.58230205 -2 448 C-2.33 448 -2.66 448 -3 448 C-3.06861269 391.50512087 -3.1215016 335.01024588 -3.15319599 278.51533331 C-3.15694827 271.85104245 -3.16082774 265.18675167 -3.16479492 258.52246094 C-3.1651872 257.85927382 -3.16557948 257.1960867 -3.16598364 256.512803 C-3.1787742 235.00594609 -3.20131297 213.49911279 -3.22889166 191.99227019 C-3.25797544 169.27051021 -3.27598403 146.54876415 -3.28226548 123.82698607 C-3.28638922 110.21039123 -3.29943045 96.59386413 -3.3237494 82.97729012 C-3.33956329 73.64972523 -3.34441025 64.32219554 -3.34050413 54.99461821 C-3.33857579 49.60686722 -3.34160616 44.2192349 -3.35761642 38.83150482 C-3.37215224 33.90417274 -3.3729937 28.9770398 -3.36269668 24.0496988 C-3.36142294 22.26228688 -3.36528187 20.47486282 -3.37464955 18.687475 C-3.38660366 16.26683755 -3.38025258 13.84692896 -3.36914349 11.42630386 C-3.37702453 10.72448254 -3.38490557 10.02266122 -3.39302543 9.29957259 C-3.35071997 5.24950653 -2.83751815 2.95073133 0 0 Z " fill="#98C671" transform="translate(191,200)"/>
<path d="M0 0 C1.32 0 2.64 0 4 0 C4 0.66 4 1.32 4 2 C3.01 2.33 2.02 2.66 1 3 C0.67 223.44 0.34 443.88 0 671 C-0.33 671 -0.66 671 -1 671 C-1.0171305 607.13838261 -1.03303121 543.27676494 -1.04234314 479.41514587 C-1.0424812 478.47075978 -1.04261925 477.52637368 -1.04276149 476.55336982 C-1.04575404 456.03189466 -1.04852427 435.51041946 -1.05106533 414.98894424 C-1.05231272 404.92597909 -1.05360927 394.86301396 -1.05493164 384.80004883 C-1.0550624 383.79863498 -1.05519316 382.79722114 -1.05532788 381.76546142 C-1.0595932 349.27623795 -1.06710746 316.78701621 -1.07629722 284.29779379 C-1.08571969 250.92543855 -1.09188309 217.55308427 -1.09391499 184.18072773 C-1.09420317 179.47275909 -1.0945288 174.76479046 -1.09487724 170.05682182 C-1.09494467 169.13017842 -1.09501209 168.20353503 -1.09508156 167.24881152 C-1.09626567 152.30101021 -1.10091019 137.35321186 -1.10683203 122.40541176 C-1.11270471 107.39685431 -1.11497165 92.38829981 -1.11350138 77.37974126 C-1.11273778 68.45059351 -1.11479531 59.52145652 -1.12079754 50.59231071 C-1.12452779 44.63911594 -1.12467762 38.68592828 -1.12183181 32.73273304 C-1.12031181 29.33335313 -1.12042825 25.93399366 -1.12488318 22.53461588 C-1.12884239 18.88528751 -1.12676638 15.2360135 -1.12304783 11.58668613 C-1.12567484 10.5144017 -1.12830186 9.44211727 -1.13100848 8.33733937 C-1.12876118 7.37470255 -1.12651389 6.41206574 -1.1241985 5.4202581 C-1.12435448 4.58435794 -1.12451046 3.74845777 -1.12467116 2.8872273 C-1 1 -1 1 0 0 Z " fill="#2A3A21" transform="translate(197,206)"/>
<path d="M0 0 C0.66 0.33 1.32 0.66 2 1 C1.67 1.33 1.34 1.66 1 2 C0.90251677 3.4546434 0.87477036 4.91401574 0.87465084 6.3719219 C0.87214732 7.32375612 0.8696438 8.27559034 0.86706442 9.25626802 C0.86940558 10.3164645 0.87174675 11.37666097 0.87415886 12.4689846 C0.87270542 13.58863141 0.87125198 14.70827822 0.86975449 15.86185372 C0.86606574 19.66461936 0.86959413 23.46734564 0.87301636 27.27011108 C0.8724202 30.00357949 0.87031981 32.73704627 0.86828911 35.47051394 C0.86466451 41.43992178 0.86479488 47.4093206 0.86733627 53.37872887 C0.87110515 62.25527786 0.86919212 71.13181918 0.86612797 80.00836812 C0.86085057 95.85870084 0.86132327 111.70902955 0.86420688 127.55936266 C0.86671826 141.43115294 0.86738109 155.30294175 0.86618423 169.17473221 C0.86610785 170.09337601 0.86603146 171.01201981 0.86595276 171.9585013 C0.86564145 175.68720234 0.86532305 179.41590337 0.864993 183.1446044 C0.86193092 218.15508179 0.86471226 253.16555661 0.8700899 288.1760336 C0.87483505 319.30550815 0.87441189 350.43497861 0.86962891 381.56445312 C0.86427818 416.50615458 0.86214883 451.44785377 0.86524117 486.38955557 C0.86556191 490.11224914 0.86587474 493.8349427 0.86618423 497.55763626 C0.86626331 498.47431626 0.86634239 499.39099626 0.86642386 500.33545444 C0.86756303 514.19979633 0.8662279 528.06413658 0.86370468 541.92847824 C0.86085077 557.68884746 0.86154876 573.44921201 0.86698543 589.20958064 C0.86993022 598.03833187 0.87010118 606.867073 0.86633925 615.69582397 C0.86410605 621.58461598 0.86547571 627.47339985 0.86984402 633.36219065 C0.87223514 636.72313212 0.87246811 640.08403681 0.86943804 643.44498031 C0.86643 647.05645102 0.86948287 650.66786542 0.87415886 654.27933311 C0.87181769 655.33484725 0.86947653 656.39036139 0.86706442 657.47786081 C0.86956793 658.43470207 0.87207145 659.39154333 0.87465084 660.37737978 C0.8747186 661.20400932 0.87478635 662.03063887 0.87485617 662.8823178 C0.91928504 665.19070931 0.91928504 665.19070931 2 668 C1.01 667.67 0.02 667.34 -1 667 C-1.01713051 603.51973027 -1.03303121 540.03946026 -1.04234314 476.55918884 C-1.0424812 475.6204417 -1.04261925 474.68169455 -1.04276149 473.71450052 C-1.04575404 453.31555815 -1.04852427 432.91661575 -1.05106533 412.51767332 C-1.05231272 402.51479327 -1.05360927 392.51191324 -1.05493164 382.5090332 C-1.0550624 381.51359873 -1.05519316 380.51816425 -1.05532788 379.4925651 C-1.0595932 347.19734886 -1.06710746 314.90213436 -1.07629722 282.60691918 C-1.08571969 249.43383695 -1.09188309 216.26075568 -1.09391499 183.08767213 C-1.09420317 178.40781268 -1.0945288 173.72795324 -1.09487724 169.0480938 C-1.09494467 168.126983 -1.09501209 167.2058722 -1.09508156 166.25684896 C-1.09626567 151.39831162 -1.10091018 136.53977725 -1.10683203 121.68124113 C-1.11270472 106.76230028 -1.11497165 91.84336239 -1.11350138 76.92442042 C-1.11273778 68.04859549 -1.1147953 59.17278138 -1.12079754 50.29695839 C-1.1245278 44.37930712 -1.12467761 38.46166299 -1.12183181 32.54401124 C-1.12031182 29.16492744 -1.12097047 25.78588102 -1.12488318 22.40679658 C-1.12884242 18.77925137 -1.12676636 15.15176085 -1.12304783 11.52421665 C-1.12698835 9.92541608 -1.12698835 9.92541608 -1.13100848 8.2943165 C-1.12876118 7.33741335 -1.12651389 6.3805102 -1.1241985 5.39460999 C-1.12435448 4.5637012 -1.12451046 3.73279242 -1.12467116 2.87670458 C-1 1 -1 1 0 0 Z " fill="#131B0F" transform="translate(199,209)"/>
<path d="M0 0 C2.01822917 0.06510417 4.03645833 0.13020833 6.0546875 0.1953125 C6.0546875 0.8553125 6.0546875 1.5153125 6.0546875 2.1953125 C4.9203125 2.5046875 3.7859375 2.8140625 2.6171875 3.1328125 C-0.73306349 3.82455781 -0.73306349 3.82455781 -1.9453125 5.1953125 C-2.0492675 7.7438135 -2.08737464 10.26547078 -2.0839777 12.81469822 C-2.08681992 13.62627143 -2.08966214 14.43784465 -2.09259048 15.27401099 C-2.10099808 18.02875836 -2.1022104 20.78346401 -2.10353088 23.53822327 C-2.10809212 25.51899153 -2.11309148 27.49975882 -2.11849445 29.48052496 C-2.13213498 34.95101892 -2.13951093 40.42150663 -2.14592111 45.89201319 C-2.15389921 51.780947 -2.16760583 57.6698677 -2.18063354 63.55879211 C-2.20385597 74.43738624 -2.22262838 85.31598256 -2.23930337 96.19458854 C-2.25475159 106.24224826 -2.2724575 116.28990117 -2.29237175 126.33755302 C-2.29368936 127.00293074 -2.29500696 127.66830845 -2.2963645 128.35384913 C-2.30306629 131.73276179 -2.30980493 135.11167437 -2.31655776 138.49058693 C-2.36436151 162.44334368 -2.40753481 186.39610677 -2.44799805 210.34887695 C-2.48732591 233.62329571 -2.52874307 256.89770921 -2.57299805 280.17211914 C-2.57436058 280.88913445 -2.57572311 281.60614976 -2.57712692 282.34489281 C-2.59081192 289.54524523 -2.60453949 296.74559757 -2.61829827 303.94594984 C-2.64632722 318.61479923 -2.67407195 333.28364914 -2.7016449 347.95249939 C-2.7029131 348.62699678 -2.7041813 349.30149418 -2.70548792 349.99643088 C-2.79018956 395.06271623 -2.86824421 440.12901352 -2.9453125 485.1953125 C-3.2753125 485.1953125 -3.6053125 485.1953125 -3.9453125 485.1953125 C-3.97953423 439.17581521 -4.0113774 393.15631679 -4.02999878 347.1368103 C-4.03027489 346.45618318 -4.03055101 345.77555607 -4.03083549 345.07430388 C-4.03682069 330.28400495 -4.04236114 315.49370588 -4.04744316 300.70340661 C-4.04993793 293.45070854 -4.05253102 286.19801051 -4.05517578 278.9453125 C-4.0554373 278.223565 -4.05569882 277.50181749 -4.05596826 276.75819886 C-4.06449763 253.3457993 -4.07952522 229.93340938 -4.09790694 206.52101566 C-4.11675543 182.47054641 -4.12907951 158.4200825 -4.13314248 134.36960599 C-4.13371883 130.97606274 -4.1343701 127.58251951 -4.13506699 124.18897629 C-4.13520183 123.52104945 -4.13533668 122.85312262 -4.13547561 122.16495557 C-4.13784308 111.39415585 -4.14713005 100.62337257 -4.15897657 89.85257956 C-4.170727 79.03581805 -4.17509209 68.21907369 -4.17231525 57.40230609 C-4.17102839 51.53686756 -4.17306465 45.67147746 -4.18372345 39.80604744 C-4.19339576 34.44462494 -4.19398696 29.08328382 -4.18711029 23.72185771 C-4.18625933 21.77432328 -4.1888472 19.82678395 -4.19507886 17.8792593 C-4.20301518 15.2476037 -4.19883429 12.61624838 -4.19140816 9.98459816 C-4.19666218 9.21495334 -4.20191621 8.44530852 -4.20732945 7.65234113 C-4.16066626 0.41773758 -4.16066626 0.41773758 0 0 Z " fill="#80A760" transform="translate(194.9453125,199.8046875)"/>
<path d="M0 0 C0.33 0 0.66 0 1 0 C1.33 65.34 1.66 130.68 2 198 C5.63 198 9.26 198 13 198 C13 197.01 13 196.02 13 195 C18.94202641 192.00369645 24.88713965 189.01358858 30.83447266 186.02783203 C32.85863252 185.01071364 34.88207309 183.9921625 36.90478516 182.97216797 C39.80705262 181.50894738 42.71184145 180.0508462 45.6171875 178.59375 C46.52556366 178.13440063 47.43393982 177.67505127 48.36984253 177.20178223 C49.63092331 176.57112854 49.63092331 176.57112854 50.91748047 175.92773438 C51.65916473 175.55467163 52.400849 175.18160889 53.16500854 174.79724121 C55 174 55 174 57 174 C57 174.99 57 175.98 57 177 C53.05154255 178.99891133 49.10050563 180.99259885 45.14697266 182.98144531 C43.80184612 183.65904347 42.45744044 184.33807459 41.11376953 185.01855469 C39.18448716 185.99529838 37.25268782 186.96689277 35.3203125 187.9375 C34.15773926 188.52402344 32.99516602 189.11054687 31.79736328 189.71484375 C29 191 29 191 27 191 C27 191.66 27 192.32 27 193 C25.3767313 193.6708712 23.75132422 194.33657029 22.125 195 C21.22007812 195.37125 20.31515625 195.7425 19.3828125 196.125 C17 197 17 197 15 197 C15 197.66 15 198.32 15 199 C14.34 199 13.68 199 13 199 C12.67 199.99 12.34 200.98 12 202 C6.81726228 203.01622308 5.11809703 203.04723881 0 201 C0 134.67 0 68.34 0 0 Z " fill="#68A55D" transform="translate(191,685)"/>
<path d="M0 0 C-5.37261841 2.71097513 -10.74781116 5.41674929 -16.12548828 8.11767578 C-17.95563839 9.03778854 -19.78506886 9.9593341 -21.61376953 10.88232422 C-24.23804151 12.20655035 -26.86483392 13.5256508 -29.4921875 14.84375 C-30.72350906 15.46715271 -30.72350906 15.46715271 -31.97970581 16.10314941 C-32.74034332 16.4835437 -33.50098083 16.86393799 -34.28466797 17.25585938 C-34.95529266 17.59339233 -35.62591736 17.93092529 -36.31686401 18.27868652 C-38 19 -38 19 -40 19 C-40.495 20.485 -40.495 20.485 -41 22 C-42.56640625 23.02734375 -42.56640625 23.02734375 -44.5625 23.9375 C-45.284375 24.27652344 -46.00625 24.61554687 -46.75 24.96484375 C-47.4925 25.30644531 -48.235 25.64804687 -49 26 C-50.35714597 26.66058052 -51.7114204 27.32709903 -53.0625 28 C-53.7225 28.32871094 -54.3825 28.65742187 -55.0625 28.99609375 C-56.93239966 29.96497321 -58.7465926 30.99646507 -60.5625 32.0625 C-63.32631368 33.62028589 -66.03443352 34.89646468 -68.95703125 36.109375 C-77.47371052 39.8221912 -85.63479344 44.3717467 -93.83007812 48.73706055 C-98.55367387 51.24928118 -103.30488035 53.68826066 -108.1171875 56.02734375 C-110.24001129 57.07988672 -110.24001129 57.07988672 -113 59 C-113 57.35 -113 55.7 -113 54 C-111.21046815 53.16209211 -109.41830305 52.32980604 -107.625 51.5 C-106.62726563 51.0359375 -105.62953125 50.571875 -104.6015625 50.09375 C-102 49 -102 49 -100 49 C-100 48.34 -100 47.68 -100 47 C-98.5459375 46.4121875 -98.5459375 46.4121875 -97.0625 45.8125 C-93.21634424 44.18648293 -89.68689529 42.14006662 -86.11328125 39.98828125 C-84 39 -84 39 -80 39 C-80 38.34 -80 37.68 -80 37 C-78.948125 36.566875 -77.89625 36.13375 -76.8125 35.6875 C-74.62687983 34.75578144 -72.7129612 33.82157048 -70.6875 32.5625 C-68.27543428 31.16013621 -66.03174546 30.18719332 -63.4375 29.1875 C-58.26249933 27.18753734 -53.3867586 24.73228154 -48.46875 22.171875 C-46 21 -46 21 -44 21 C-44 20.34 -44 19.68 -44 19 C-38.38510711 16.1165633 -32.76093609 13.25189345 -27.12988281 10.40014648 C-25.21492621 9.42757061 -23.3021446 8.45069999 -21.39160156 7.46948242 C-18.64686985 6.06077666 -15.89471693 4.66764173 -13.140625 3.27734375 C-12.28631897 2.83470688 -11.43201294 2.39207001 -10.55181885 1.9360199 C-9.75129089 1.53552933 -8.95076294 1.13503876 -8.12597656 0.72241211 C-7.42426331 0.36489365 -6.72255005 0.00737518 -5.99957275 -0.36097717 C-3.61107842 -1.12429144 -2.33558124 -0.81464678 0 0 Z " fill="#A9CDA4" transform="translate(433,771)"/>
<path d="M0 0 C0 0.99 0 1.98 0 3 C-3.94845745 4.99891133 -7.89949437 6.99259885 -11.85302734 8.98144531 C-13.19815388 9.65904347 -14.54255956 10.33807459 -15.88623047 11.01855469 C-17.81551284 11.99529838 -19.74731218 12.96689277 -21.6796875 13.9375 C-22.84226074 14.52402344 -24.00483398 15.11054687 -25.20263672 15.71484375 C-28 17 -28 17 -30 17 C-30 17.66 -30 18.32 -30 19 C-31.6232687 19.6708712 -33.24867578 20.33657029 -34.875 21 C-35.77992188 21.37125 -36.68484375 21.7425 -37.6171875 22.125 C-40 23 -40 23 -42 23 C-42 23.66 -42 24.32 -42 25 C-44.40545638 26.20272819 -45.94996953 26.10071472 -48.625 26.0625 C-49.85089844 26.04896484 -49.85089844 26.04896484 -51.1015625 26.03515625 C-51.72804687 26.02355469 -52.35453125 26.01195312 -53 26 C-53 25.67 -53 25.34 -53 25 C-50.03 24.67 -47.06 24.34 -44 24 C-44 23.01 -44 22.02 -44 21 C-38.05797359 18.00369645 -32.11286035 15.01358858 -26.16552734 12.02783203 C-24.14136748 11.01071364 -22.11792691 9.9921625 -20.09521484 8.97216797 C-17.19294738 7.50894738 -14.28815855 6.0508462 -11.3828125 4.59375 C-10.47443634 4.13440063 -9.56606018 3.67505127 -8.63015747 3.20178223 C-7.78943695 2.78134644 -6.94871643 2.36091064 -6.08251953 1.92773438 C-5.34083527 1.55467163 -4.599151 1.18160889 -3.83499146 0.79724121 C-2 0 -2 0 0 0 Z " fill="#639A5E" transform="translate(248,859)"/>
<path d="M0 0 C-3.94553268 2.81823763 -7.43204065 4.47734688 -12 6 C-12.99 6.66 -13.98 7.32 -15 8 C-18.00272818 10.00181879 -20.60180976 10.86726992 -24 12 C-24.99 12.66 -25.98 13.32 -27 14 C-30.00272818 16.00181879 -32.60180976 16.86726992 -36 18 C-38.01254782 19.31431695 -40.01310269 20.64721885 -42 22 C-43.64619113 22.71573527 -45.30728055 23.4025696 -47 24 C-47.33 23.34 -47.66 22.68 -48 22 C-47.34 22 -46.68 22 -46 22 C-46 21.34 -46 20.68 -46 20 C-44.75539217 19.32332002 -43.50403104 18.65905281 -42.25 18 C-41.20585937 17.443125 -41.20585937 17.443125 -40.140625 16.875 C-38 16 -38 16 -34 16 C-34 15.34 -34 14.68 -34 14 C-30.0881958 12.01933482 -26.17376382 10.04399198 -22.25683594 8.07348633 C-20.92537576 7.40273492 -19.5946379 6.73054765 -18.26464844 6.05688477 C-16.35020104 5.08749903 -14.43319508 4.12334715 -12.515625 3.16015625 C-11.36352539 2.57886963 -10.21142578 1.99758301 -9.02441406 1.39868164 C-2.88299925 -1.44149962 -2.88299925 -1.44149962 0 0 Z " fill="#71BC6A" transform="translate(252,862)"/>
<path d="M0 0 C0.33 0.66 0.66 1.32 1 2 C3.97 1.34 6.94 0.68 10 0 C7.00674781 2.99325219 4.78112748 4.22064589 1 6 C0.01 6.495 -0.98 6.99 -2 7.5 C-8.33333333 10.66666667 -14.66666667 13.83333333 -21 17 C-21.33 16.34 -21.66 15.68 -22 15 C-21.34 15 -20.68 15 -20 15 C-20 14.34 -20 13.68 -20 13 C-17.04492094 11.49352402 -14.08542659 9.99593635 -11.125 8.5 C-9.86236328 7.85611328 -9.86236328 7.85611328 -8.57421875 7.19921875 C-7.76855469 6.79316406 -6.96289062 6.38710938 -6.1328125 5.96875 C-5.38918457 5.59169922 -4.64555664 5.21464844 -3.87939453 4.82617188 C-2 4 -2 4 0 4 C0 2.68 0 1.36 0 0 Z " fill="#73BB6A" transform="translate(290,837)"/>
<path d="M0 0 C0 0.99 0 1.98 0 3 C-2.95507906 4.50647598 -5.91457341 6.00406365 -8.875 7.5 C-9.71675781 7.92925781 -10.55851562 8.35851562 -11.42578125 8.80078125 C-12.23144531 9.20683594 -13.03710938 9.61289062 -13.8671875 10.03125 C-14.61081543 10.40830078 -15.35444336 10.78535156 -16.12060547 11.17382812 C-18 12 -18 12 -20 12 C-20 12.66 -20 13.32 -20 14 C-21.65 14 -23.3 14 -25 14 C-24 11 -24 11 -21.89868164 9.6496582 C-20.99496826 9.20452881 -20.09125488 8.75939941 -19.16015625 8.30078125 C-18.17982422 7.81416016 -17.19949219 7.32753906 -16.18945312 6.82617188 C-15.15755859 6.32666016 -14.12566406 5.82714844 -13.0625 5.3125 C-11.52045898 4.54583008 -11.52045898 4.54583008 -9.94726562 3.76367188 C-2.29429865 0 -2.29429865 0 0 0 Z " fill="#64995D" transform="translate(290,838)"/>
<path d="M0 0 C0 1.32 0 2.64 0 4 C-2.97 4.66 -5.94 5.32 -9 6 C-8 3 -8 3 -5.0625 1.3125 C-2 0 -2 0 0 0 Z " fill="#659B5E" transform="translate(300,833)"/>
<path d="M0 0 C0.33 0.66 0.66 1.32 1 2 C3.8159849 2.46898963 3.8159849 2.46898963 7.0625 2.625 C8.71958984 2.73714844 8.71958984 2.73714844 10.41015625 2.8515625 C11.26480469 2.90054688 12.11945313 2.94953125 13 3 C12.67 3.66 12.34 4.32 12 5 C7.31090292 6.08209933 4.30902834 6.21980248 0 4 C0 2.68 0 1.36 0 0 Z " fill="#6EB768" transform="translate(191,882)"/>
<path d="M0 0 C-4.3852919 2.97068161 -8.98491285 4.45941767 -14 6 C-12.00834262 3.01251394 -11.18755691 2.29861368 -8.125 0.75 C-7.44695312 0.39421875 -6.76890625 0.0384375 -6.0703125 -0.328125 C-3.63319086 -1.11903995 -2.38480081 -0.83414558 0 0 Z " fill="#A5C7A0" transform="translate(353,811)"/>
<path d="M0 0 C0.99 0.33 1.98 0.66 3 1 C0.375 5.875 0.375 5.875 -3 7 C-2.625 4.0625 -2.625 4.0625 -2 1 C-1.34 0.67 -0.68 0.34 0 0 Z " fill="#B8D2AA" transform="translate(878,543)"/>
<path d="M0 0 C0.99 0.33 1.98 0.66 3 1 C2.375 2.9375 2.375 2.9375 1 5 C-2.125 5.75 -2.125 5.75 -5 6 C-3.68 5.34 -2.36 4.68 -1 4 C-1.33 3.01 -1.66 2.02 -2 1 C-1.34 0.67 -0.68 0.34 0 0 Z " fill="#A4BB97" transform="translate(874,545)"/>
<path d="M0 0 C0.4125 0.639375 0.825 1.27875 1.25 1.9375 C3.17810487 4.20990931 4.11424181 4.60196439 7 5 C7 5.66 7 6.32 7 7 C4.625 7.125 4.625 7.125 2 7 C0 5 0 5 -0.125 2.375 C-0.08375 1.59125 -0.0425 0.8075 0 0 Z " fill="#436F3F" transform="translate(194,876)"/>
<path d="M0 0 C-0.33 0.99 -0.66 1.98 -1 3 C-3.31 3.33 -5.62 3.66 -8 4 C-8 3.34 -8 2.68 -8 2 C-4.91190305 0.23537317 -3.76687864 0 0 0 Z " fill="#A9C9A0" transform="translate(573,700)"/>
<path d="M0 0 C-0.33 0.99 -0.66 1.98 -1 3 C-3.31 3.33 -5.62 3.66 -8 4 C-8 3.34 -8 2.68 -8 2 C-4.91190305 0.23537317 -3.76687864 0 0 0 Z " fill="#ADC9A1" transform="translate(769,602)"/>
</svg>
